<svg version="1" xmlns="http://www.w3.org/2000/svg" width="110.667" height="110.667" viewBox="0 0 83.000000 83.000000"><path d="M33.4 3C18.2 6.2 5.9 19.2 3 35.2c-2 10.9 2 25 9.3 32.5 1.7 1.8 3.5 3.3 3.9 3.3 1.7 0 .6-4.6-2.2-8.9-5.1-8-6.3-12-6.4-20.6 0-6.6.5-9 2.6-13.7C17.2 12.7 34 4.4 50 8.2c4.2 1 5.6 1.8 5.8 3.4.3 1.7-.3 2-5.2 2C40.7 13.8 34 20 34 29.2c0 4.1.5 5.4 3.3 8.5 2.3 2.5 3.9 3.4 5 3 2.3-.9 2.1-3.3-.3-5.7-4.7-4.7-2.9-12.9 3.5-15.6 4.6-1.9 6.3-1.8 11 .6 2.2 1.1 4.1 2 4.3 2 .1 0 .2-3.5 0-7.7l-.3-7.7-4.8-1.8C50 2.7 39.1 1.8 33.4 3z"/><path d="M67 15.1c0 1.8 1.3 4.9 3 7.5 9.4 13.5 7.8 30.9-3.9 42.5-8.2 8.2-13.5 10.4-24.6 10.4C27 75.5 28 77.8 28 46V19h3.5c2.3 0 3.7-.6 4.4-1.9 1-1.7.5-1.9-4.4-2.6-10.3-1.2-9.5-3.7-9.5 31.1v30.5l4.8 2.2c5.8 2.6 18.3 3.5 25 1.7C69.8 75.1 81 60.1 81 41.1c-.1-8.6-2.5-15.7-8-23.4-4.2-5.9-6-6.7-6-2.6z"/><path d="M45 22.5c-.9 1-.9 1.9-.2 2.7.5.7 1.5 3 2 5.1 2.2 7.9-2.5 14.8-11.5 16.8-3.9.9-5.3 1.7-5.3 3 0 2.4 1.7 2.8 7.5 1.4 7.1-1.6 9.2-3 12.6-8.3 3.6-5.6 3.8-11.6.8-17.9-2.2-4.5-3.8-5.3-5.9-2.8z"/><path d="M53.5 42.6c-2 2-1.9 3.1.4 3.9 4 1.2 7.1 5.6 7.1 9.9 0 5.3-2.1 8.2-6.9 9.7-7.1 2.1-14.4-.8-17.6-7.2-1.7-3.1-5.5-4.1-5.5-1.4 0 2.6 2.7 7.1 5.9 9.8 4.4 3.7 9.4 5 15.8 4.2 4.6-.6 6.1-1.3 9.3-4.5 7.7-7.7 6.2-18.1-3.5-23.8-3.1-1.9-3.6-1.9-5-.6z"/></svg>