<!-- Generated by IcoMoon.io -->
<svg version="1.1" xmlns="http://www.w3.org/2000/svg" width="32" height="32" viewBox="0 0 32 32">
<title>candle-3</title>
<path d="M14.010 11.807c-0.031 0.002-0.060 0.006-0.087 0.013-1.126 0.164-2.020 0.438-2.637 0.837-0.308 0.199-0.561 0.435-0.697 0.758-0.076 0.18-0.091 0.386-0.061 0.586h-0.027v16h11v-16h-0.025c0.030-0.202 0.015-0.409-0.062-0.59-0.137-0.322-0.39-0.557-0.699-0.756-0.618-0.398-1.512-0.672-2.643-0.836-0.030-0.006-0.064-0.010-0.098-0.010-0.276 0-0.5 0.224-0.5 0.5 0 0.26 0.198 0.474 0.452 0.498 1.042 0.151 1.837 0.424 2.246 0.688 0.204 0.132 0.299 0.257 0.32 0.309s0.031 0.030-0.019 0.111c-0.102 0.163-0.634 0.516-1.445 0.736s-1.879 0.355-3.023 0.355c-1.145 0-2.211-0.134-3.023-0.354s-1.346-0.572-1.449-0.736c-0.051-0.082-0.043-0.062-0.021-0.113s0.117-0.175 0.32-0.307c0.408-0.264 1.2-0.536 2.24-0.688 0.248-0.032 0.437-0.242 0.437-0.496 0-0.275-0.222-0.498-0.496-0.5zM20.5 15.166v7.084h-0.5c-0.282 0-0.5-0.218-0.5-0.5v-1.5c0-0.823-0.677-1.5-1.5-1.5s-1.5 0.677-1.5 1.5v0.75c0 0.282-0.218 0.5-0.5 0.5s-0.5-0.218-0.5-0.5v-2c0-0.823-0.678-1.5-1.5-1.5-0.282 0-0.5-0.218-0.5-0.5v-1.209c0.755 0.139 1.606 0.215 2.504 0.215 1.223-0 2.361-0.14 3.283-0.391 0.459-0.124 0.869-0.266 1.213-0.449z"></path>
<path d="M16.004 2.189c0 0-3.077 4.225-2.652 6.562 0.208 1.146 0.971 2.451 2.149 2.748v2c-0 0.002-0 0.005-0 0.007 0 0.276 0.224 0.5 0.5 0.5s0.5-0.224 0.5-0.5c0-0.002-0-0.005-0-0.007v-1.984c1.225-0.229 2.146-1.27 2.154-2.361 0.015-1.913-3.503-5.467-2.65-6.965z"></path>
</svg>
