<!-- Generated by IcoMoon.io -->
<svg version="1.1" xmlns="http://www.w3.org/2000/svg" width="32" height="32" viewBox="0 0 32 32">
<title>candle</title>
<path fill="none" stroke="#000" stroke-width="1" stroke-miterlimit="4" stroke-linecap="round" stroke-linejoin="round" d="M14.201 11.998c0 0-1.945 0.37-2.74 0.912-0.261 0.178-0.608 0.728-0.608 0.728l-0.088 15.247"></path>
<path fill="none" stroke="#000" stroke-width="1" stroke-miterlimit="4" stroke-linecap="round" stroke-linejoin="round" d="M17.877 12.003c0 0 1.968 0.445 2.718 1.066 0.266 0.221 0.552 0.878 0.552 0.878l0.088 15.247"></path>
<path fill="none" stroke="#000" stroke-width="1" stroke-miterlimit="4" stroke-linecap="butt" stroke-linejoin="miter" d="M10.998 13.762c0 0 1.123 0.865 1.781 1.094 0.946 0.33 1.983 0.333 2.984 0.359 0.997 0.026 2.016 0.034 2.984-0.203 0.795-0.195 2.25-0.984 2.25-0.984"></path>
<path fill="none" stroke="#000" stroke-width="1" stroke-miterlimit="4" stroke-linecap="round" stroke-linejoin="round" d="M13.132 15.028c-0.22 1.867-0.080 2.625 1.538 3.031 0.57 0.143 0.18 2.779 0.484 3.313 0.306 0.536 1.626 0.421 1.844-0.156 0.112-0.296-0.185-1.513 0.366-2.009 0.442-0.397 0.891-0.418 1.328-0.015 0.78 0.717-0.12 2.307 0.618 3.024 0.395 0.383 1.625 0.281 1.625 0.281"></path>
<path fill="none" stroke="#000" stroke-width="1" stroke-miterlimit="4" stroke-linecap="round" stroke-linejoin="round" d="M15.935 10.169l0.044 2.961"></path>
<path fill="none" stroke="#000" stroke-width="1" stroke-miterlimit="4" stroke-linecap="round" stroke-linejoin="round" d="M16.115 10.982c-0.431 0.069-0.934 0.057-1.294-0.19-0.718-0.494-1.209-1.411-1.294-2.284-0.129-1.332 0.617-2.639 1.267-3.806 0.403-0.723 1.59-1.903 1.59-1.903s-0.065 1.637 0.204 2.391c0.391 1.093 1.764 1.729 1.97 2.872 0.135 0.746-0.055 1.633-0.55 2.207-0.582 0.516-1.229 0.608-1.893 0.713z"></path>
<path fill="none" stroke="#000" stroke-width="0.5" stroke-miterlimit="4" stroke-linecap="round" stroke-linejoin="round" d="M19.768 16.212l0.022 1.525"></path>
<path fill="none" stroke="#000" stroke-width="0.5" stroke-miterlimit="4" stroke-linecap="round" stroke-linejoin="round" d="M13.334 22.543l-1.297 0.734"></path>
<path fill="none" stroke="#000" stroke-width="0.5" stroke-miterlimit="4" stroke-linecap="round" stroke-linejoin="round" d="M13.49 23.387l-1.641 1.109"></path>
<path fill="none" stroke="#000" stroke-width="0.5" stroke-miterlimit="4" stroke-linecap="round" stroke-linejoin="round" d="M13.615 24.184l-1.859 1.266"></path>
<path fill="none" stroke="#000" stroke-width="0.5" stroke-miterlimit="4" stroke-linecap="round" stroke-linejoin="round" d="M13.756 25.028l-1.828 1.266"></path>
<path fill="none" stroke="#000" stroke-width="0.5" stroke-miterlimit="4" stroke-linecap="round" stroke-linejoin="round" d="M13.99 25.825l-1.5 1.203"></path>
<path fill="none" stroke="#000" stroke-width="0.5" stroke-miterlimit="4" stroke-linecap="round" stroke-linejoin="round" d="M14.037 26.778l-1.203 0.984"></path>
<path fill="none" stroke="#000" stroke-width="0.5" stroke-miterlimit="4" stroke-linecap="round" stroke-linejoin="round" d="M13.008 21.812l-0.739 0.4"></path>
<path fill="none" stroke="#000" stroke-width="0.5" stroke-miterlimit="4" stroke-linecap="round" stroke-linejoin="round" d="M15.477 7.172l-0.739 0.4"></path>
<path fill="none" stroke="#000" stroke-width="0.5" stroke-miterlimit="4" stroke-linecap="round" stroke-linejoin="round" d="M15.445 8.031l-0.739 0.4"></path>
<path fill="none" stroke="#000" stroke-width="0.5" stroke-miterlimit="4" stroke-linecap="round" stroke-linejoin="round" d="M15.789 8.828l-0.739 0.4"></path>
</svg>
