<!-- Generated by IcoMoon.io -->
<svg version="1.1" xmlns="http://www.w3.org/2000/svg" width="32" height="32" viewBox="0 0 32 32">
<title>candle-2</title>
<path d="M22.296 14.471v17.529h-11.139v-7.096c-0.753 0.315-0.727-0.349-0.397-1.31-0.028 0.037-0.044 0.058-0.044 0.058-2.022 1.273-0.55-1.915 0.442-3.817v-5.756c0 0 1.436 1.643 2.896 0s8.243 0.392 8.243 0.392zM14.393 11.533c0.085 0.105 0.212 0.167 0.348 0.167h0.884c-0.074 0-0.14-0.042-0.172-0.109-0.582-1.239-0.683-2.322-0.299-3.219 0.515-1.202 1.707-1.612 1.758-1.628 0.079-0.026 0.166 0.002 0.215 0.070 0.048 0.067 0.046 0.159-0.005 0.225-0.54 0.706-0.073 1.21-0.013 1.27 1.569 1.658 0.276 3.305 0.263 3.321-0.036 0.045-0.090 0.071-0.148 0.071h1.285c0.173 0 0.331-0.1 0.404-0.257 1.373-2.918 1.611-5.471 0.705-7.584-1.213-2.833-4.022-3.797-4.141-3.837-0.186-0.062-0.391 0.004-0.504 0.164s-0.11 0.374 0.008 0.53c1.271 1.665 0.17 2.852 0.031 2.992-3.696 3.906-0.65 7.785-0.619 7.824z"></path>
</svg>
