<!-- Generated by IcoMoon.io -->
<svg version="1.1" xmlns="http://www.w3.org/2000/svg" width="21" height="32" viewBox="0 0 21 32">
<title>hram-logo</title>
<path fill="#c6c6c6" d="M20.479 22.313v0.684l-0.391 0.246v0.646l-0.214 0.164h-0.32l-0.422 0.302-0.281 0.853 0.169 0.233 0.079 1.229s-0.249 0.578-0.775 0.578l-0.111 0.022-0.463 0.32-0.084-0.055-0.078 0.042s-0.053-0.055-0.053-0.049c-0.018 0.018-0.038 0.034-0.059 0.048l-0.061-0.021-0.039 0.036-0.051-0.024-0.607 0.414-0.184 0.249-0.682-0.403-1.019 0.936-0.736 0.67-0.226 0.233-0.615 0.605-0.085 0.172c-0.574 0.757-0.942 1.038-1.822 1.37-0.581 0.219-2.225 0.426-3.246-0.463 0 0-0.49 0.641-2.216 0.124l-0.481-0.194s-1.318 0.391-2.547 0.071-1.492-0.853-1.492-0.853v-0.891s-0.853-0.071-0.925-0.587v-1.195l0.374 0.107zM0.513 27.748l-0.202-3.079s0.155-0.442 0.129-0.762-0.318-5.277-0.318-5.277l0.375-0.612 1.929-1.805 2.727 0.643 5.257 2.763 2.298-1.691 3.666-1.713 2.513 1.072 0.862 0.961 0.729 0.831v0.492l-0.095 0.065-0.047 2.55 0.142 0.129-0.36 0.229-0.078-0.036-0.013 0.127 0.102 0.112-0.044 0.035-0.004 0.209 0.111 0.084-0.28 0.182-0.043-0.019-0.039 0.039-0.033-0.022-0.053 0.039-0.031-0.024-0.055 0.047-0.036-0.036-0.483 0.305-0.013 1.302-0.124 0.047 0.018 0.51s0.16 0.326-0.302 0.54-0.516 0.178-0.516 0.178v0.065l0.107 0.124v0.16l-0.119 0.018-0.024 0.723-0.44 0.304-0.061-0.056-0.061 0.049-0.064-0.058-0.069 0.053-0.050-0.049-0.058 0.047-0.052-0.039-0.123 0.089-0.376 0.236-0.041-0.010-0.107 0.078 0.003 0.349-0.329 0.212-0.224-0.244-0.482 0.383-0.839 0.556 0.098-0.436-0.667-0.783-0.973 1.017-0.287 0.268-0.084 0.084c-0.092 0.209-0.172 0.307-0.324 0.56l-0.004 0.005c-0.078 0.085-0.155 0.172-0.233 0.26-0.167 0.194-0.727 0.715-1.949 0.795-1.143 0.075-2.277-0.606-2.277-0.606s-0.16 0.356-1.245 0.302-1.312-0.516-1.312-0.516-3.041 0.546-3.848-0.557c0 0-0.233-0.403-0.214-0.866 0.002 0-0.913-0.184-0.962-0.93zM20.088 22.78l0.044-0.035-0.296 0.164h-0.003l0.255-0.129zM0.338 25.933h0.107s-0.013-0.525-0.053-0.591-0.053 0.591-0.053 0.591zM1.925 27.112s0.080-0.172 0.11 0.271l0.035 1.163-0.072-0.095-0.012-0.279zM1.925 27.112l0.050 1.274-0.086 0.033 0.182 0.138-0.007-0.17-0.048-0.024-0.016-0.369 0.053 0.040-0.002-0.057-0.046-0.036-0.013-0.294 0.050 0.029-0.002-0.049-0.056-0.047-0.025-0.502-0.017 0.007-0.019 0.026zM1.83 26.831c0.097 0.006 0.271 0.068 0.305 0.415l0.089-0.015c0.020-0.015 0 0.018 0 0 0.009-0.224-0.143-0.448-0.324-0.463l-0.074 0.039c-0.004 0.002-0.006 0.006-0.006 0.011 0 0.006 0.005 0.012 0.011 0.013zM0.877 26.285c0.026-0.067 0.088-0.114 0.161-0.12 0.009-0.002 0.018-0.002 0.028-0.002 0.077 0 0.141 0.052 0.16 0.122 0.018 0.058 0.046 1.362 0.046 1.362s-0.236 0.078-0.233 0.065-0.084-0.119-0.087-0.145-0.071-1.291-0.071-1.291zM1.25 26.445s0.009-0.14-0.045-0.189l-0.004 0.12-0.31 0.011-0.010-0.119c-0.012 0.051-0.019 0.109-0.019 0.169 0 0.004 0 0.009 0 0.013 0.002 0.095 0.081 1.4 0.081 1.4h0.385zM0.936 26.534h0.236l0.014 0.463h-0.229zM0.992 27.531l-0.020-0.463h0.236l0.014 0.463zM6.542 28.18c0.026-0.067 0.087-0.115 0.161-0.121 0.009-0.001 0.018-0.002 0.028-0.002 0.077 0 0.141 0.052 0.16 0.122 0.018 0.058 0.046 1.362 0.046 1.362s-0.236 0.078-0.233 0.065-0.084-0.119-0.087-0.145-0.071-1.291-0.071-1.291zM6.915 28.34s0.009-0.14-0.045-0.189l-0.004 0.12-0.31 0.011-0.010-0.119c-0.012 0.051-0.019 0.109-0.019 0.169 0 0.004 0 0.009 0 0.013 0.002 0.095 0.081 1.4 0.081 1.4h0.385zM6.601 28.429h0.236l0.014 0.463h-0.231zM6.658 29.425l-0.020-0.463h0.236l0.014 0.463zM3.906 27.789c0.026-0.067 0.087-0.115 0.161-0.121 0.009-0.002 0.019-0.002 0.028-0.002 0.077 0 0.141 0.052 0.16 0.122 0.018 0.058 0.046 1.362 0.046 1.362s-0.236 0.078-0.233 0.065-0.084-0.119-0.087-0.145-0.071-1.291-0.071-1.291zM4.281 27.943s0.009-0.137-0.045-0.186l-0.004 0.122-0.31 0.012-0.010-0.118c-0.012 0.049-0.019 0.104-0.019 0.162 0 0.005 0 0.010 0 0.015 0.002 0.095 0.081 1.395 0.081 1.395h0.385zM3.968 28.025h0.236l0.014 0.465h-0.229zM4.023 29.033l-0.020-0.465h0.236l0.014 0.465zM10.591 23.093c-0.030-0.028-0.071-0.046-0.116-0.046-0.095 0-0.171 0.077-0.171 0.171 0 0.002 0 0.004 0 0.006 0 0.053 0 0.131-0.004 0.24-0.009 0.255 0.123 5.967 0.123 5.967l0.333-0.121-0.036-1.854-0.078-1.517 0.028-0.867-0.046-0.842v-0.783l-0.031-0.355zM10.54 23.061c0.045 0.014 0.079 0.051 0.087 0.097 0.012 0.078 0.128 6.154 0.128 6.154s0.143 0.116 0.155 0.164l0.089 0.062v0.065l0.078 0.024v0.119s-0.749 0.078-0.891 0.015l-0.016-0.062 0.045-0.024-0.005-0.078 0.104-0.024-0.003-0.078 0.101-0.080 0.006-0.092 0.291-0.030 0.006-0.531-0.307 0.014-0.004-0.065s0.276 0.018 0.293-0.033 0-0.492 0-0.492l-0.302 0.014v-0.074s0.289-0.005 0.292-0.035-0.009-0.477-0.009-0.477l-0.295 0.005v-0.053l0.305-0.009-0.012-0.498-0.304 0.012-0.006-0.058 0.304-0.016-0.018-0.605-0.298 0.017v-0.072l0.302-0.022-0.018-0.519-0.297 0.018v-0.053l0.271-0.033v-0.572l-0.289 0.019v-0.057l0.303-0.022-0.014-0.516-0.294 0.011v-0.042l0.289-0.023-0.011-0.57h-0.294l-0.003-0.050 0.296-0.021-0.012-0.431-0.285 0.011-0.006-0.048 0.291-0.033s0.036-0.321-0.043-0.324zM16.977 25.102c-0.039 0.035-0.057 0.237-0.057 0.237l-0.027 2.275 0.027 0.049 0.233-0.147-0.059-0.111s-0.004-0.245-0.004-0.302-0.112-2.001-0.112-2.001zM16.952 25.142s0.053-0.116 0.142-0.080 0.049 0.641 0.053 0.867-0.018 1.552-0.018 1.552l-0.178-0.084s0.036-2.291 0-2.255zM19.326 22.531l-0.149 0.102v-0.189h0.057l0.092 0.083zM16.913 20.489s-0.059 0.053-0.059 0.244-0.018 1.477-0.018 1.477 0.002 0.107 0.020 0.111c0.014 0.004 0.025 0.010 0.036 0.018l0.22-0.123c-0.017-0.026-0.027-0.057-0.028-0.091 0-0.049-0.079-0.65-0.080-0.645s0-0.687 0-0.687l-0.091-0.304zM16.41 20.461s-0.045 0.034-0.058 0.212-0.012 1.857-0.012 1.857-0.003 0.084 0.043 0.078 0.236-0.12 0.236-0.12v-0.039c-0.016-0.022-0.027-0.048-0.031-0.076-0.016-0.063 0.013-0.544 0.013-0.544l-0.069-0.451v-0.698l-0.123-0.219zM15.888 21.027c-0.031 0.054-0.050 0.119-0.050 0.188 0 0.001 0 0.003 0 0.004 0 0.118-0.002 1.605-0.002 1.605s-0.006 0.055 0.013 0.067c0.008 0.006 0.017 0.010 0.027 0.012l0.239-0.135v-0.033l-0.049-0.045-0.102-0.24 0.007-1.288s-0.020-0.2-0.084-0.136zM19.203 20.191s0.022-0.107 0.107-0.124 0.078 0.138 0.071 0.267-0.058 2.198-0.058 2.198l-0.16-0.080zM16.906 20.5s0.047-0.080 0.107-0.086 0.089 0.053 0.089 0.19-0.018 1.545-0.018 1.545l-0.178-0.024s0.033-1.688 0-1.625zM16.405 20.476s0.050-0.092 0.11-0.086 0.078 0.047 0.080 0.233 0 1.794 0 1.794l-0.19-0.047s0.053-2.104 0-1.893zM15.886 21.027c0.016-0.054 0.060-0.094 0.115-0.104 0.090-0.009 0.078 0.271 0.084 0.448s0 1.329 0 1.329l0.003 0.036-0.201-0.086s0.053-1.705-0.001-1.622zM0.565 24.066s-0.36 0.174-0.343 0.369 0.009 0.365 0.391 0.578 0.614 0.142 0.614 0.142-0.028 0.32 0.59 0.685c0.602 0.356 1.243 0.418 2.186 0.383s1.352-0.213 1.352-0.213-0.356 0.775 0.356 1.13 1.825 0.4 2.394 0.24l-0.002-0.612-0.915-0.741-1.524-0.26-0.126-0.184-4.038-1.46zM3.505 27.948h0.071s-0.015-0.255 0.175-0.391c0.090-0.062 0.2-0.1 0.32-0.1 0.107 0 0.208 0.030 0.293 0.082 0.158 0.102 0.224 0.278 0.221 0.29s0.057 0.010 0.057 0.010v-0.085s0.036-0.086-0.088-0.214c-0.122-0.124-0.291-0.201-0.479-0.201-0.086 0-0.168 0.016-0.243 0.046-0.187 0.073-0.323 0.247-0.342 0.456 0.002 0.016 0.011 0.028 0.023 0.034zM16.338 25.747l0.3-0.209s0.021 0.018 0.078 0 0.126-0.031 0.126-0.031l0.081 0.062-0.543 0.36-0.436-0.133 0.053-0.124v-0.276l-0.659 0.265v-0.365s0.141-0.049 0.172-0.138 0.244-1.223 1.036-1.446l0.562-0.071 0.143 0.027s0.245 0 0.401 0.058 0.504 0.249 0.529 0.952l0.143 0.107-0.529 0.316-0.267-0.080 0.005-0.036 0.045-0.022 0.049 0.018 0.049-0.045 0.080 0.034 0.285-0.162h0.053l0.080-0.049s-0.049-0.305-0.084-0.429-0.169-0.473-0.481-0.495-0.237 0.039-0.322-0.067-0.018 0.039-0.073 0.116-0.449 0.405-0.689 1.023-0.187 0.842-0.187 0.842zM15.484 21.204l0.105 0.027s0.030-0.383 0.214-0.546 0.32-0.181 0.32-0.181c0.038-0.113 0.081-0.209 0.132-0.3 0.069-0.119 0.221-0.273 0.369-0.246s0.208 0.194 0.208 0.194 0.128-0.107 0.21-0.128 0.31 0.053 0.291 0.329l0.041-0.018s0.018-0.349-0.31-0.442c-0.099 0.001-0.189 0.038-0.259 0.098-0.049-0.082-0.136-0.137-0.236-0.143-0.164-0.006-0.437 0.194-0.517 0.548-0.001 0.001-0.547 0.122-0.569 0.806zM12.708 21.434l0.096 0.043s0.124-0.447 0.354-0.479c0.345-0.048 0.381 0.286 0.381 0.286l0.066-0.039h0.006l0.030-0.016c-0.067-0.22-0.268-0.377-0.506-0.377-0.005 0-0.009 0-0.014 0s-0.219 0.021-0.314 0.194zM11.038 23.096s-0.059-0.4-0.615-0.365-0.532 0.485-0.532 0.485l0.112 0.045s0.032-0.381 0.426-0.418 0.562 0.365 0.562 0.365l0.046-0.009zM4.080 19.77s-0.056-0.596-0.498-0.64c0 0-0.341 0.020-0.341 0.408h0.050s-0.039-0.283 0.21-0.32 0.457 0.359 0.472 0.553zM16.109 18.995s0.056-0.596 0.498-0.64c0 0 0.341 0.020 0.341 0.408h-0.050s0.039-0.283-0.21-0.32-0.456 0.359-0.472 0.553zM1.58 19.334l0.66 0.252v0.053l-0.168 0.065-0.682-0.231 0.19-0.139zM16.577 15.352v0zM20.091 19.302c0.116 0.157 0.128 0.374 0.146 0.424 0.012 0.032 0.031 0.059 0.056 0.080s-0.178 0.107-0.237 0.139-0.056 0.015-0.092 0.006c-0.016-0.003-0.028-0.016-0.028-0.033 0-0.003 0-0.006 0.001-0.009s0.264-0.124 0.267-0.155-0.027-0.31-0.178-0.501-0.261-0.113-0.383-0.143-0.136-0.194-0.136-0.145-0.048 0.148-0.095 0.22c-0.061 0.075-0.125 0.142-0.194 0.204l-0.002-0.331-0.091-0.036 0.052-0.557v-0.552c-0.194 0.194-0.736 0.267-0.736 0.267v-0.036l-0.119 0.006 0.039 0.338 0.162 0.172-0.593 0.314-0.249-0.071 0.014-0.071 0.63-0.296v-0.19c-0.039-0.174-0.070-0.336-0.116-0.486-0.043-0.137-0.090-0.253-0.145-0.364-0.014-0.028-0.038-0.070-0.061-0.111-0.019-0.035-0.041-0.069-0.062-0.102-0.009-0.014-0.018-0.027-0.027-0.039s-0.017-0.032-0.025-0.044c-0.025-0.035-0.053-0.066-0.082-0.104v0s0 0.006 0 0.006c-0.038-0.030-0.079-0.060-0.123-0.086-0.007-0.003-0.009 0.003-0.012 0.003v0c-0.057-0.039-0.116-0.078-0.177-0.078h-0.005s0-0.004 0-0.005 0 0 0 0c-0.028-0.009-0.056-0.021-0.084-0.028v0s0 0 0 0 0-0.002 0-0.002h-0.293c-0.016 0-0.032-0.010-0.047-0.010-0.054-0-0.104-0.014-0.149-0.037l-0.011-0.006c-0.036-0.021-0.066-0.049-0.089-0.082l-0.001-0.004c-0.018-0.029-0.038-0.064-0.055-0.099l-0.003-0.006c0-0.002-0.003 0-0.004-0.002-0.001-0.001-0.003-0.002-0.004-0.003s-0 0.010-0 0.010 0 0.009 0 0.009h-0.012c-0.009 0-0.018 0.020-0.035 0.074 0 0 0-0.003 0-0.002-0.005 0.017-0.011 0.032-0.018 0.053v0c-0.002 0.007-0.005 0.013-0.007 0.021v0c-0.007 0.024-0.024 0.049-0.034 0.078 0 0-0.009 0-0.009 0v0 0.092c-0.004 0.004-0.008 0.008-0.013 0.012-0.034 0.032-0.078 0.056-0.111 0.095v0s0.008-0.010 0.008-0.007v0 0s-0.005 0-0.005 0h-0.003s-0.002 0-0.003 0.002v-0.002c-0.003 0.005-0.006 0.003-0.008 0.003v0c-0.002 0-0.005 0.004-0.007 0.004s0 0.005 0 0.005 0-0.005 0-0.005 0-0.004 0-0.004v0s-0.002 0.007-0.003 0.008c-0.029 0.027-0.060 0.059-0.095 0.089 0 0 0 0.002 0 0.002v0s0 0 0 0l-0.098 0.085c-0.061 0.053-0.126 0.112-0.194 0.179-0.106 0.103-0.203 0.214-0.292 0.331-0.385 0.518-0.599 1.229-0.717 1.621-0.055 0.168-0.087 0.361-0.087 0.562 0 0.045 0.002 0.089 0.005 0.132l0.249-0.172 0.344 0.155-0.652 0.31-0.771-0.237s-0.155-0.059 0.024-0.119 0.237-0.736 0.237-0.736l-0.546 0.119c-0.546 0.119-1.091 0.546-1.174 0.759s0.071 0.51 0.131 0.617-0.314 0.119-0.314 0.119l-0.314-0.036v0.284c-0.382 0.327-0.859 0.556-1.383 0.641-0.869 0.133-1.851-0.008-2.468-0.363s-0.138-0.957-0.138-0.957l1.212-4.314s3.238-1.613 3.527-2.126 0.865-0.801 1.112-0.898c0.166-0.061 0.36-0.107 0.561-0.13 0.080-0.038 0.165-0.078 0.252-0.113 0.074-0.021 0.157-0.030 0.186 0.079s0.083 0.133 0.083 0.133c0.347 0.178 0.644 0.4 0.899 0.662 0.084 0.084 0.16 0.174 0.226 0.271l-0.002 0.113 0.133 0.906v0.004l0.041 0.218c0.033 0.029 0.072 0.053 0.114 0.070l0.003 0.018c0.039 0.005 0.014 0.010 0.022 0.016v0s0 0 0 0v0 0l0.014 0.010s0 0.007 0 0.007 0.010 0.002 0.014 0.005c0.019 0.011 0.039 0.007 0.062 0.046v0c0.16 0.116 0.388 0.246 0.65 0.422 0.002 0 0.005 0.004 0.007 0.004v0 0.013c0.039 0.008 0.024 0.016 0.036 0.024 0 0 0 0 0.002 0.002l0.021 0.013 0.004 0.002 0.039 0.026c0.006 0.004 0.012 0.010 0.019 0.014 0.028 0.019 0.058 0.020 0.086 0.059v0c0.008 0 0.015 0.009 0.023 0.014 0.048 0.032 0.096 0.063 0.145 0.095l0.009 0.005 0.035 0.023c0.002 0.001 0.005 0.002 0.007 0.002s0 0 0 0.002c0.204 0.135 0.426 0.271 0.62 0.403v0c0.039 0.026 0.081 0.052 0.122 0.078l0.009 0.003c0.021 0.013 0.039 0.026 0.060 0.039h0.006l0.024 0.016 0.049 0.031c0.033 0.021 0.065 0.046 0.097 0.067v0l0.005 0.003c0.033 0.015 0.061 0.035 0.085 0.058s0.002 0.005 0.003 0.005v0c0.026 0 0.042 0.016 0.081 0.031v0.020h-0.005c0.001-0.001 0.003-0.001 0.005-0.001s0.003 0 0.005 0.001-0-0-0-0v0 0l0.009 0.004c0.949 0.576 1.287 1.619 1.287 1.619s0.323 0.346 0.349 0.394c0.013 0.017 0.020 0.039 0.020 0.062s-0.008 0.045-0.020 0.063c-0.027 0.029-0.356 0.213-0.415 0.228-0.009 0.003-0.019 0.004-0.029 0.004-0.019 0-0.037-0.005-0.053-0.014zM10.047 20.22l-1.165 0.767s-1.41-1.124-2.041-1.285-1.041-0.249-1.041-0.249l0.205 0.738 0.222 0.356-0.738 0.343-0.738-0.277 0.178-0.11 0.472 0.11s-0.080-1.191-1.005-2.19c0 0-0.267-0.324-0.547-0.481s-0.463-0.415-0.498-0.549-0.129 0.123-0.129 0.123c-0.039 0.047-0.094 0.081-0.156 0.093-0.025 0.006-0.052 0.009-0.080 0.009-0.012 0-0.024-0.001-0.036-0.002 0.002-0.001 0.002-0.002 0.002-0.003s-0-0.002-0-0.003c-0.014 0-0.028-0.012-0.043-0.012v0s-0.003 0.006-0.005 0.005c-0.112-0.021-0.415 0.015-0.705 0.245v0.002c-0.020 0.016-0.039 0.033-0.060 0.052-0.044 0.040-0.085 0.082-0.123 0.126-0.039 0.045-0.075 0.093-0.108 0.143-0.063 0.095-0.117 0.198-0.16 0.307-0.096 0.247-0.156 0.519-0.171 0.803s-0.036 0.048-0-0.169 0.045-0.285 0.045-0.285l-0.199 0.065c-0.044-0.028-0.099-0.045-0.157-0.045-0.006 0-0.013 0-0.019 0.001-0.118-0-0.091 0.071-0.091 0.101s-0.95-0.010-1.115-0.384c-0.022-0.050-0.035-0.109-0.035-0.171s0.013-0.121 0.037-0.174c0.079-0.18 0.341-0.335 0.341-0.335h0.005l0.024-0.007 0.396-0.116 0.039-0.071 0.049-0.091 0.041-0.078 0.010-0.020 0.029-0.055 0.007-0.014 0.039-0.074 0.588-1.101 0.077-0.142 0.013-0.031 0.116-0.22 0.023-0.042 0.281-0.526 0.024-0.11 0.021-0.098 0.034-0.16 0.007-0.033 0.018-0.085 0.091-0.431v-0.011l0.007-0.035 0.52-0.431c0.194-0.162 0.378-0.313 0.409-0.338 0.071-0.058 0.332-0.279 0.332-0.333 0-0.035 0.121 0.005 0.205 0.039 0.053 0.021 0.116 0.040 0.181 0.054 0.144 0.030 0.37 0.079 0.473 0.106 0.155 0.041 0.712 0.279 0.913 0.587s0.148 0.271 0.228 0.3 0.439 0.205 0.439 0.205l2.193 0.595 1.676 0.853-0.321 1.191zM1.824 23.029l0.045 0.957-0.481 1.014s-0.671 0.081-0.965-0.345 0.142-0.587 0.142-0.587c0.084-0.169 0.187-0.314 0.308-0.441 0.195-0.2 0.592-0.547 0.951-0.596zM3.841 22.592c-0.112 0.138-0.282 0.225-0.472 0.225-0.001 0-0.001 0-0.002 0-0.32 0.006-0.581-0.109-0.533-0.23 0 0-0.237-0.11-0.219-0.455s0.296-0.593 0.522-0.706l0.066-0.157c-0.020-0.017-0.032-0.042-0.032-0.071 0-0.039 0.024-0.072 0.058-0.087l-0.014-0.211-0.098 0.021-0.018-0.074 0.089-0.047-0.012-0.433c-0.026-0.016-0.044-0.045-0.045-0.077l-0.163-0.056s0.030 0.095-0.024 0.062c-0.009-0.013-0.015-0.029-0.015-0.046 0-0.006 0.001-0.012 0.002-0.017-0.025-0.022-0.047-0.048-0.066-0.076-0.020-0.036 0.041-0.022 0.064-0.022 0 0-0.019-0.039 0-0.049 0.006-0.004 0.012-0.007 0.020-0.007 0.019 0 0.034 0.015 0.034 0.034 0 0.001-0 0.003-0 0.004-0.002 0.018-0.005 0.035-0.009 0.050l0.157 0.056c0.007-0.012 0.014-0.022 0.022-0.031l0.010-0.010-0.006-0.090-0.028-0.031-0.027-0.012s0.018 0.067-0.003 0.056-0.034-0.015-0.030-0.056l-0.022-0.024s-0.050-0.043-0.022-0.050c0.016-0.004 0.034-0.007 0.053-0.007-0.001-0.004-0.002-0.009-0.002-0.015 0-0.010 0.003-0.019 0.007-0.027 0.012-0.025 0.046 0.015 0.046 0.015v0.055l0.021 0.006v-0.046s-0.054-0.024-0.039-0.050c0.006-0.010 0.017-0.017 0.029-0.017 0.005 0 0.010 0.001 0.015 0.003-0.005-0.015-0.008-0.031-0.008-0.049 0-0.020 0.021-0.036 0.037-0.021 0.011 0.012 0.018 0.029 0.018 0.047 0 0 0 0 0 0.001-0.003 0.010-0.006 0.019-0.011 0.027s0.039-0.001 0.051 0.013 0.002 0.047-0.014 0.046l-0.026-0.003-0.006 0.056 0.013 0.031 0.059 0.009c-0.010-0.014-0.016-0.032-0.016-0.051 0-0.001 0-0.002 0-0.003 0.002-0.009 0.010-0.015 0.019-0.015 0.011 0 0.020 0.009 0.020 0.020 0 0.002-0 0.003-0.001 0.005-0.001 0.004-0.001 0.008-0.001 0.013 0 0.012 0.003 0.023 0.009 0.032s0.049-0 0.047 0.030-0.047 0.028-0.047 0.028c0.002 0.009 0.004 0.020 0.004 0.030 0 0.005-0 0.010-0.001 0.015-0.004 0.013-0.033 0.035-0.043-0.001s-0.023-0.053-0.028-0.052-0.009 0.009-0.009 0.009v0.092l0.034 0.049 0.159 0.070s-0.003-0.056 0.019-0.067 0.047 0.018 0.043 0.047l-0.004 0.030s0.054 0.021 0.067 0.049-0.019 0.028-0.043 0.039l-0.024 0.012s0.013 0.046-0.007 0.039c-0.022-0.009-0.039-0.030-0.041-0.055-0-0.020-0.010-0.026-0.024-0.031s-0.123-0.039-0.123-0.039l-0.033 0.028 0.019 0.399 0.086-0.052 0.030 0.070-0.095 0.081-0.012 0.009 0.015 0.23s0.108 0.050 0.022 0.159l0.064 0.165s0.596 0.102 0.632 0.698c-0.004 0.176-0.066 0.336-0.166 0.465zM5.538 25.584s-1.942 0.62-3.187 0.141-0.944-0.951-0.944-0.951 0.302-1.127 1.476-2.019h0.089l-0.009 0.302s0.036 0.227 0.302 0.182 0.472-0.22 0.498-0.327l-0.009-0.164 0.045-0.039 0.004-0.044c0.090 0.039 0.163 0.076 0.233 0.117 0.163 0.088 0.665 0.448 0.901 0.933s0.543 1.218 0.601 1.869zM8.096 27.196s-2.26 0.326-2.687-0.688c0.062-0.24 0.151-0.45 0.264-0.643 0.171-0.28 0.803-0.746 1.248-0.798l0.445-0.053s0.836 0.486 0.729 2.183zM16.9 21.704l0.102-0.046 0.031 0.039 0.067-0.116-0.071-0.078-0.026 0.067-0.112 0.048v-0.058l0.049-0.058 0.023 0.012 0.022-0.064-0.078-0.060-0.031 0.055 0.019-0.064-0.043-0.050-0.047 0.062 0.008 0.043-0.033 0.042-0.011-0.039c-0.015 0.012-0.024 0.030-0.024 0.050 0 0.005 0.001 0.010 0.002 0.015l-0.049 0.057 0.058 0.004s-0.011 0.047 0.027 0.058l0.009-0.047 0.018-0.011 0.007 0.078-0.136 0.071-0.024-0.027s-0.027 0.022-0.020 0.047l-0.060 0.073 0.067 0.013s-0.013 0.049 0.011 0.062l0.033-0.067 0.107-0.055s0.015 0.020 0.020 0.027-0.004 0.251-0.004 0.251l-0.080 0.015 0.002 0.045 0.069 0.027 0.002 0.283c-0.016 0.011-0.026 0.029-0.026 0.049 0 0.016 0.007 0.031 0.018 0.042l-0.058 0.099s-0.394 0.116-0.421 0.523c-0 0.006-0 0.013-0 0.020 0 0.116 0.049 0.221 0.127 0.295s-0.060 0.069 0.036 0.134 0.194 0.114 0.436 0.109 0.353-0.16 0.338-0.209l-0.020-0.013s0.167-0.142 0.16-0.343c0 0 0.004-0.412-0.46-0.516l-0.045-0.094c0.014-0.011 0.023-0.028 0.023-0.047 0-0.021-0.011-0.039-0.027-0.050l-0-0.255 0.074 0.015 0.018-0.053-0.080-0.047zM12.427 13.078c-0.013 0.2-0.072 0.267-0.072 0.267v0.262c0 0.431-0.102 0.676-1.516 0.979s-3.018 0.080-3.604-0.187c-0.575-0.262-0.458-0.617-0.453-0.631h-0.008v-0.261s0.005 0-0.060-0.172-0.012-0.391-0.012-0.391c-0.053-0.119 0.003-0.374 0.003-0.374l-0.058-1.908 0.029-0.078-0.013-0.391-0.066-0.116c-0.058-0.329 0.067-0.418 0.067-0.418l0.014-0.058-0.028-0.072c0.017 0.015 0.645 0.562 3.080 0.468 0 0 2.047-0.1 2.627-0.601l-0.057 0.094 0.018 0.053s0.078 0.081 0.045 0.414l-0.067 0.129 0.009 0.342 0.053 0.085 0.022 1.908s0.104 0.2 0.011 0.356c0.025 0.071 0.040 0.152 0.040 0.237 0 0.023-0.001 0.046-0.003 0.068zM6.731 10.257s0.481 0.511 2.212 0.514 3.089-0.316 3.297-0.649c0 0-0.385 0.433-2.295 0.584s-2.806-0.14-3.215-0.448zM6.774 9.67s0.569 0.605 3.38 0.415c0 0 1.86-0.194 2.087-0.556 0 0-0.426 0.384-2.271 0.515-0-0.001-2.241 0.208-3.196-0.374zM6.869 13.596s0.171 0.267 1.262 0.439 2.509 0.078 3.227-0.142 1.026-0.547 1.026-0.547-0.694 0.743-2.871 0.736-2.644-0.486-2.644-0.486zM6.785 13.047s0.155 0.436 1.667 0.566 2.389-0.065 2.965-0.184 0.823-0.383 0.823-0.383-0.268 0.379-2.126 0.543-3.186-0.253-3.33-0.543zM6.785 13.047s-0.119 0.448 1.044 0.643 2.473 0.202 3.411-0.053 1.163-0.501 1.109-0.784 0.063-0.042 0.063-0.042 0.181 0.357-0.282 0.6-1.744 0.67-3.416 0.498-1.785-0.415-1.892-0.514c-0.079-0.079-0.128-0.188-0.128-0.309 0-0.008 0-0.015 0.001-0.023 0.003-0.045 0.017-0.088 0.039-0.125s-0.022 0.025 0.052 0.108zM11.45 12.988l-0.033-1.822s0.031-0.172 0.138-0.226 0.142 0.626 0.142 0.626v1.134s-0.011 0.256-0.021 0.289-0.22 0-0.22 0zM10.069 11.299s0.149-0.218 0.314-0.089 0.092 0.492 0.092 0.492l0.016 0.612-0.012 0.5 0.024 0.504-0.423 0.080zM8.683 13.336l-0.089-2.054s0.127-0.134 0.278-0.039 0.133 0.257 0.138 0.497 0.046 1.596 0.046 1.596zM7.511 11.066l-0.092 0.75v0.065l0.052 0.93 0.081 0.411 0.151-0.071-0.068-1.822c-0.002-0.079-0.027-0.152-0.068-0.213-0.012-0.022-0.032-0.040-0.056-0.051zM7.526 11.099v0.214l0.107 0.020v0.051h-0.107l0.015 0.51 0.12 0.052 0.003 0.054-0.116-0.012 0.024 0.502 0.109 0.051 0.005 0.078-0.109-0.035 0.004 0.465c0.008 0.027 0.024 0.050 0.045 0.066 0.022 0.013 0.048 0.025 0.074 0.036l0.004 0.083s0.003 0.078 0.122 0.053c0 0 0.151 0.056 0.638 0.107 0.023 0.022 0.055 0.036 0.089 0.036l0.039-0.018 0.065-0.086-0.063-0.587-0.014-1.406c0.003-0.055 0.044-0.1 0.097-0.109-0.017 0.015-0.031 0.035-0.038 0.058l0.009 0.202 0.353 0.014 0.005 0.067s-0.349-0.009-0.349-0.012-0.007 0.008-0.007 0.008l0.017 0.534 0.349 0.014 0.007 0.069-0.355-0.012 0.022 0.532 0.347 0.010 0.004 0.083-0.349-0.009s0.005 0.496 0.020 0.51 0.336 0.013 0.336 0.013l0.014 0.155s1.015-0.029 1.035-0.074-0.039-0.101-0.039-0.101l0.356-0.006 0.041-0.018-0.021-0.531-0.338 0.041v-0.074l0.345-0.045v-0.521l-0.341 0.009 0.006-0.056 0.326-0.027-0.015-0.543-0.349 0.021 0.006-0.080 0.356-0.030s0.021-0.31-0.233-0.243c0 0 0.191-0.064 0.255 0.058s0.048 0.666 0.048 0.666v0.522l0.021 0.513 0.050 0.417s-0.019 0.036 0.144 0 0.718-0.16 0.718-0.16l0.021-0.010 0.011-0.047-0.012-0.152s0.085 0.004 0.091-0.045-0.013-0.452-0.013-0.452l-0.091 0.029v-0.091l0.078-0.024-0.002-0.478-0.086 0.034-0.002-0.119c0.040-0.010 0.075-0.021 0.108-0.035s-0.004-0.027-0.004-0.044l-0.004-0.469-0.109 0.020v-0.078l0.119-0.039s0.022-0.197-0.033-0.201c0.005-0.025 0.022-0.046 0.045-0.055 0.039-0.011 0.071 0.081 0.071 0.081v0.359l0.107 0.624v0.372l0.011 0.422 0.039 0.262s-0.002 0.039 0.116-0.020 0.412-0.265 0.456-0.413 0.015-0.219 0.015-0.219 0.050-0.011 0.071 0.214-0.258 0.391-0.589 0.545-1.277 0.418-2.791 0.374-2.065-0.402-2.186-0.489-0.191-0.155-0.191-0.245c-0-0.004-0-0.010-0-0.015 0-0.044 0.005-0.087 0.014-0.129s-0.003 0.155 0.073 0.143c0.039-0.005 0.074-0.013 0.107-0.025l0.008 0.179s0-0.010 0.033 0.015 0.452 0.218 0.452 0.218l0.14-0.092-0.091-0.79 0.007-0.526-0.025-0.476 0.010-0.23 0.119-0.016c0.012 0.009 0.021 0.020 0.028 0.033 0.005 0.014-0.007-0.020-0.028-0.002zM12.301 10.558s-0.056 0.011-0.059 0.372 0.021 1.749 0.021 1.749l0.086-0.047s-0.002-2.118-0.048-2.075zM11.556 10.943s0.030 0.013 0.033 0.081 0.033 1.977 0.033 1.977l0.166 0.083-0.029-1.943c0-0 0-0 0-0.001 0-0.042-0.008-0.081-0.024-0.118-0.024-0.055-0.077-0.121-0.178-0.080zM10.573 13.358l-0.053-1.999c0-0.003 0-0.006 0-0.010 0-0.061-0.034-0.114-0.084-0.141 0.018 0.040 0.030 0.087 0.032 0.137 0.004 0.083 0.036 1.943 0.036 1.943zM8.6 11.271s-0.078 0.003-0.068 0.395 0.059 1.748 0.059 1.748l0.065-0.074s-0.079-1.953-0.056-2.068zM6.785 10.906s-0.020-0.194-0.062-0.2-0.013 0.478-0.013 0.478l0.076 1.628 0.084-0.018-0.084-1.888zM7.526 13.123l-0.058-1.944s-0.007-0.108 0.058-0.111c0 0-0.155-0.1-0.207 0.060s0.047 2.071 0.047 2.071zM12.164 10.895s-0.018-0.507 0.107-0.498l0.030 0.086s-0.072 0.064-0.069 0.412zM11.274 11.226s0.018-0.362 0.255-0.442 0.31 0.199 0.31 0.31l-0.030 0.009s0.033-0.291-0.252-0.249c0 0-0.19 0.071-0.19 0.356zM9.89 11.437s0.015-0.357 0.338-0.414 0.424 0.219 0.426 0.302l-0.053 0.022s-0.036-0.291-0.365-0.25c-0.144 0.050-0.246 0.183-0.249 0.34zM8.407 11.433c-0.005-0.020-0.008-0.042-0.008-0.066 0-0.040 0.008-0.078 0.023-0.113 0.038-0.108 0.158-0.226 0.366-0.21 0.204 0.019 0.364 0.183 0.379 0.386l-0.086 0.015s-0.057-0.302-0.31-0.313-0.329 0.19-0.322 0.298zM7.21 11.197c-0.001-0.008-0.001-0.017-0.001-0.026 0-0.073 0.020-0.14 0.055-0.198 0.066-0.107 0.137-0.118 0.241-0.089s0.283 0.233 0.267 0.438l-0.085 0.011s-0.022-0.31-0.245-0.369-0.211 0.24-0.211 0.24zM6.786 11.011s0.016-0.322-0.071-0.373c0 0-0.058-0.036-0.047 0.119 0 0-0.033-0.116 0.022-0.168s0.036-0.073 0.073-0.034 0.116 0.185 0.127 0.456zM6.663 9.658s-0.039 0.409 0.531 0.552 1.483 0.362 3.084 0.194 2.101-0.494 1.994-0.841c0 0 0.004-0.091 0.066 0.019s0.143 0.431-0.703 0.671-2.313 0.383-3.47 0.258-1.639-0.4-1.578-0.692v0s0.048-0.158 0.075-0.162zM12.385 9.073s0.114 0.176-0.029 0.323c-0.581 0.502-2.627 0.601-2.627 0.601-2.435 0.093-3.062-0.452-3.080-0.468v0c-0.155-0.137-0.053-0.32-0.053-0.32-0.101-0.172 0.083-0.308 0.083-0.308s-0.51-0.545-0.155-1.601 1.116-1.618 1.697-2.033c0.346-0.251 0.614-0.591 0.774-0.986l0.12-0.713c0.062 0.048 0.14 0.076 0.225 0.076 0.035 0 0.069-0.005 0.101-0.014 0.050-0.014 0.096-0.039 0.135-0.071l0.152 0.672s0.116 0.545 0.725 0.916 1.447 0.978 1.863 2.013c0.37 0.921-0.093 1.579-0.093 1.579s0.248 0.151 0.161 0.332zM9.768 17.242c-4.699 0.319-4.483-1.41-4.483-1.41s0.472-0.934 0.725-1.312 0.659-0.645 0.659-0.645l0.128-0.107c-0.005 0.015-0.13 0.37 0.445 0.631 0.587 0.267 2.198 0.489 3.612 0.187s1.521-0.547 1.53-0.979l0.155 0.138s0.417 0.283 0.715 0.627c0.316 0.365 0.915 1.21 0.915 1.21s0.331 1.633-4.402 1.658zM9.711 3.273c0 0 0 0 0 0 0 0.115-0.052 0.218-0.135 0.285-0.039 0.033-0.085 0.057-0.135 0.071-0.032 0.009-0.067 0.014-0.102 0.014-0.204 0-0.37-0.166-0.37-0.37 0-0.169 0.113-0.312 0.268-0.356 0.033-0.010 0.068-0.015 0.104-0.015 0 0 0 0 0 0 0.005-0 0.010-0 0.015-0s0.011 0 0.016 0c0.19 0.016 0.338 0.175 0.338 0.368 0 0.001 0 0.001 0 0.002zM9.298 0s-0.059 0.059-0.017 0.118l0.005 0.035-0.060 0.012-0.034-0.028-0.060 0.072 0.050 0.077 0.036-0.010c0.010 0.004 0.017 0.014 0.017 0.025 0 0 0 0 0 0 0 0.021 0 0.136 0 0.136-0.009 0.027-0.018 0.050-0.029 0.071l-0.079-0.002s-0.088-0.116-0.169 0c0 0-0.031-0.008 0 0.023s0.068 0.106 0.168 0.029l0.083-0.005s0.017-0.013 0.017 0.024 0.004 0.267 0.004 0.267l-0.063-0.142 0.041 0.152-0.116-0.113 0.1 0.141-0.153-0.078 0.127 0.11-0.009 0.011-0.343-0.045c0.009-0.011 0.014-0.025 0.014-0.040 0-0.007-0.001-0.014-0.003-0.020-0.017-0.040-0.038-0.074-0.064-0.105s-0.070 0.075-0.047 0.135c-0.019 0.006-0.035 0.015-0.049 0.027-0.009-0.003-0.019-0.005-0.030-0.005-0.034 0-0.065 0.017-0.083 0.043s0.023 0.1 0.109 0.1c0.014 0.028 0.039 0.049 0.069 0.058-0.002 0.011-0.004 0.022-0.004 0.035 0 0.036 0.016 0.069 0.040 0.091 0.024-0.024 0.039-0.057 0.039-0.094 0-0.012-0.002-0.024-0.005-0.035s0.020-0.021 0.020-0.027l0.323 0.039h0.013l0.003 0.039-0.071 0.067 0.080-0.039 0.015 0.016s-0.058 0.116-0.056 0.124l0.081-0.098 0.013 0.003-0.045 0.125 0.039-0.067v0.876s-0.046 0.042-0.026 0.145l-0.043 0.019s-0.105-0.021-0.093 0.074 0.088 0.098 0.121 0.033l0.041-0.024v0.537l0.090 0.015 0.066-0.036v-0.62s0.103 0 0.119-0.051l0.093-0.047c0.001 0 0.003 0 0.005 0 0.026 0 0.047-0.019 0.050-0.045 0.007-0.049-0.003-0.113-0.067-0.092 0 0-0.028 0.015-0.031 0.025l-0.071 0.039s-0.041-0.009-0.053 0.006l-0.007-0.853 0.025 0.086-0.028-0.127 0.085 0.107-0.056-0.132 0.124 0.058-0.109-0.104 0.010-0.010 0.304 0.022c0.014 0.022 0.033 0.039 0.055 0.052-0.002 0.010-0.003 0.021-0.003 0.033 0 0.046 0.022 0.087 0.057 0.113s0.061-0.038 0.046-0.151c0 0 0.067-0.003 0.12-0.092-0.026-0.054-0.071-0.095-0.126-0.116s0.018-0.070-0.062-0.134c0 0-0.072 0.062-0.046 0.126l-0.024 0.028-0.317-0.039v-0.025l0.074-0.067-0.090 0.033-0.018-0.016 0.068-0.101-0.088 0.072 0.031-0.127-0.049 0.064v-0.2s0-0.026 0.024-0.008c0.015 0.014 0.034 0.023 0.056 0.026l0.014 0v0.039s-0.046 0-0.043 0.019 0.050 0.057 0.059 0.091 0-0.033 0.049-0.059-0.060-0.062-0.060-0.062v-0.049s0.065 0.009 0.083-0.009c0 0 0.007 0.042 0.039 0.033s0.025-0.024 0.051-0.049 0.007-0.042-0.016-0.073-0.050-0.046-0.060-0.023-0.027-0.012-0.039-0.024-0.036-0.004-0.036-0.004l0.004-0.031s0.056 0.013 0.051-0.033-0.052-0.064-0.062-0.096 0 0.021-0.021 0.039-0.057 0.078-0.020 0.087l0.022 0.005-0.008 0.033h-0.067l-0.030-0.046 0.005-0.107s0.011-0.021 0.045 0l0.052-0.055-0.064-0.086-0.032 0.009-0.068-0.017 0.007-0.036s0.037-0.053-0.028-0.122zM3.321 17.348l0.55-0.168s0.074-0.026 0.21 0.236 0.989 0.509 1.531 1.705c0 0 0.178 0.294 0.189 0.331s1.24-0.937 2.486-0.163-0.324-0.333-0.324-0.798-0.463-1.244-0.463-1.244-0.724-0.62-2.217-0.709-1.962 0.81-1.962 0.81zM3.145 17.335v0l0.015-0.107v-0.002l0.019-0.071-0.048-0.176h-0.011s0.002 0 0.002 0l0.009-0.102v-0.063l-0.010-0.018-0.005-0.007 0.008-0.002 0.007-0.007-0.012-0.016-0.005-0.003 0.010-0.037 0.007-0.067-0.039-0.212v-0.009l-0.007-0.030-0.071-0.814v-0.096l-0.005-0.015-0.033-0.352-0.004-0.016-0.020-0.155c0.031-0.058 0.053-0.127 0.060-0.199 0-0.019 0.003-0.036 0.003-0.051v0 0-0.133s-0.007 0-0.007 0c-0.002-0.010-0.022-0.072-0.032-0.122-0.001-0.013-0.001-0.028-0.001-0.043 0-0.047 0.005-0.092 0.013-0.136s-0.001 0.004-0.001 0.002 0-0.004 0-0.004c0-0.001 0-0.001 0-0.002s-0-0.001-0-0.002v0l-0.672 0.111v0.005l-0.515 0.086-1.672 0.083s-0.017 0-0.017 0.002v0s0.014 0.004 0.014 0.007h-0.017c0 0.032 0.014 0.112 0.049 0.137 0 0 0.008 0.002 0.010 0.004h0.003c0.008 0.003 0.014 0.007 0.020 0.012l0.003-0 0.003 0.005c0.003 0.006 0.005 0.014 0.005 0.022 0 0.011-0.004 0.022-0.010 0.031l-0.004 0.175-0.003 0.008s0.002 0 0.002 0.002c-0 0.003-0 0.006-0 0.009 0 0.071 0.030 0.135 0.078 0.18l0.006 0.202v0.007l0.021 0.439v0.014l0.048 1.008v0.010l-0.052 0.074-0.046 0.083c0 0.004 0.014 0.039 0.028 0.080 0.002 0.003 0.003 0.006 0.005 0.010 0 0.003 0 0.006 0.003 0.008 0.015 0.042 0.035 0.086 0.044 0.107 0.005 0.012 0.023 0.029 0.023 0.048v0c0 0.003 0 0.007 0 0.011 0.002 0.041 0.008 0.079 0.017 0.116l0.010 0.042v0.002l0.034 0.090-0.061 0.051 0.018 0.248s-0.018 0.011 0.021 0.030v0c0.002 0.020 0.006 0.039 0.012 0.057 0.010 0.027 0.016 0.060 0.016 0.094 0 0.014-0.001 0.029-0.003 0.043l-0.017 0.083s0.12 0.352 0.877 0.405c0.040 0.002 0.087 0.004 0.135 0.004 0.12 0 0.238-0.009 0.353-0.026 0.034-0.118 0.088-0.221 0.151-0.318 0.032-0.049 0.069-0.097 0.107-0.142 0.038-0.044 0.078-0.086 0.122-0.125 0.021-0.019 0.040-0.036 0.062-0.052v0c0.29-0.229 0.593-0.268 0.705-0.247 0 0 0.003-0.005 0.005-0.005v0c0.015 0 0.029 0.011 0.043 0.012 0 0 0 0.001 0 0.001s-0 0.001-0 0.001c0.012 0.001 0.025 0.002 0.038 0.002 0.026 0 0.052-0.003 0.077-0.008 0.061-0.012 0.116-0.045 0.155-0.092zM0.274 14.777s0.262 0.296 1.421 0.219c0 0 0.951-0.039 1.183-0.408 0 0-0.212 0.351-1.395 0.388 0-0.002-0.793 0.088-1.208-0.198zM0.292 15.169s0.183 0.267 1.249 0.246c0.257-0.004 0.505-0.038 0.742-0.099 0.241-0.062 0.542-0.175 0.637-0.355 0 0-0.223 0.385-1.565 0.41-0.002 0-0.56 0.053-1.062-0.202zM1.729 17.904c0.174-0.010 0.334-0.028 0.491-0.055-0.046 0.020-0.064 0.036-0.086 0.054-0.112 0.017-0.246 0.029-0.383 0.034-0.55 0.022-0.866-0.058-1.049-0.147-0.197-0.095-0.24-0.2-0.24-0.2s0.069 0.101 0.276 0.189c0.192 0.082 0.504 0.153 0.991 0.124zM3.108 17.461c-0.043 0.062-0.096 0.113-0.156 0.154l-0.002 0.001c-0.014 0-0.028-0.006-0.043-0.006 0.076-0.049 0.142-0.098 0.204-0.151zM0.367 17.231s0.368 0.416 1.323 0.356 1.32-0.352 1.358-0.459c0 0-0.222 0.326-1.355 0.432 0 0-0.9 0.070-1.327-0.33zM0.351 15.809l0.070 1.181-0.075-0.021-0.070-1.157 0.057-0.006 0.017 0.002zM3.030 15.588l0.075 1.167 0.030 0.124-0.080-0.022s-0.083-1.407-0.086-1.461zM2.635 15.662l0.039 1.374 0.217 0.080 0.009-0.059-0.102-1.37s-0.010-0.114-0.11-0.081c-0.021 0.015-0.039 0.034-0.053 0.056zM0.78 15.839s-0.078-0.086-0.151-0.029c-0.026 0.022-0.042 0.054-0.042 0.091 0 0.004 0 0.008 0.001 0.012l0.095 1.334 0.16-0.074-0.061-1.318zM0.8 15.85s0.068 0.052 0.080 0.199 0.093 1.155 0.093 1.155l-0.092 0.026s-0.119-1.324-0.088-1.383zM2.635 15.662s-0.081 0.061-0.068 0.281 0.069 1.059 0.069 1.059l0.095-0.017-0.095-1.323zM1.563 15.972s0.021-0.089 0.172-0.11 0.23 0.141 0.215 0.22 0.1 1.267 0.1 1.267l-0.392-0.020-0.097-1.357zM2.010 18.032c-0.037 0.043-0.073 0.091-0.107 0.141-0.098 0.014-0.209 0.019-0.32 0.019-0.056 0-0.111-0.001-0.167-0.004-0.447-0.019-0.834-0.142-1.010-0.31-0.016-0.015-0.030-0.031-0.043-0.048l-0.001-0.001c-0.036-0.041-0.058-0.096-0.058-0.156 0-0.045 0.012-0.087 0.034-0.123l-0.001 0.001s0.002 0.011 0.046 0.045 0.047 0.050 0.047 0.050-0.005 0.033 0.062 0.116c0.021 0.027 0.043 0.050 0.067 0.072 0.101 0.088 0.313 0.194 0.885 0.221 0.040 0.002 0.087 0.003 0.135 0.003 0.152 0 0.301-0.010 0.448-0.029zM3.22 17.516c-0.039 0.047-0.094 0.081-0.156 0.093 0.009-0.016 0.019-0.034 0.026-0.053 0.010-0.030 0.016-0.062 0.018-0.095l0.039-0.126c0.040 0.050 0.066 0.112 0.074 0.179zM3.114 16.977s0.173 0.209-0.060 0.38-0.526 0.43-1.76 0.407c0 0-1.010-0.050-0.969-0.533 0 0 0.158 0.374 0.886 0.417s1.138-0.041 1.425-0.166 0.496-0.3 0.446-0.41l0.029-0.093zM2.644 15.658h-0.007c0.001 0.002 0.002 0.004 0.003 0.006l0.004-0.004h0.008zM3.116 16.695l0.008 0.028 0.008 0.031-0.012 0.005-0.006 0.003-0.004 0.003v0.003l0.003 0.015v0.009l0.013 0.068h-0.072v-0.007l-0.088 0.116 0.003 0.058-0.068 0.027-0.147-0.071s-0.071-0.984-0.086-1.147c-0.002-0.062-0.012-0.121-0.029-0.178l-0.002 0.009-0.021 0.027 0.015 0.127-0.062 0.039v0.078l0.068-0.045 0.031 0.412v0.059l-0.003 0.024h-0.006l-0.043 0.046h0.011l-0.017 0.002-0.005 0.052v-0.003l0.054-0.034 0.009-0.007 0.026 0.504-0.061 0.042 0.011 0.176s-0.003 0.018-0.052 0.042c-0.012 0.007-0.026 0.012-0.041 0.012s-0.029-0.004-0.041-0.012l-0.359 0.105-0.019 0.033-0.084-0.006v-0.012c-0.009-0.113-0.077-1.012-0.099-1.255-0.003-0.030-0.005-0.050-0.006-0.057-0.007-0.044-0.029-0.082-0.061-0.109l0.013 0.152-0.199 0.027-0.105 0.011-0.016-0.153s-0.008 0-0.009 0.002 0.003 0.004 0.003 0.007 0 0.004-0.004 0.007h-0.003c-0.004 0.002-0.021 0.006-0.021 0.009v0c0.001 0.003 0.001 0.006 0.001 0.010 0 0.006-0.001 0.011-0.003 0.017-0.008 0.016 0 0.16 0.011 0.349 0 0.002 0 0.004 0 0.006 0.022 0.414 0.072 1.040 0.072 1.040-0.018 0.007-0.038 0.012-0.059 0.012-0.012 0-0.024-0.001-0.035-0.004-0.035-0.005-0.068-0.013-0.099-0.024l-0.329-0.024-0.035 0.022-0.039-0.005-0.014-0.010-0.048-0.028-0.006-0.13v-0.033h0.006l-0.073-0.015-0.044-0.494 0.081 0.006h0.013l0.017-0.045-0.016-0.017h-0.017l-0.083-0.028-0.034-0.469 0.074 0.022 0.005-0.005-0.009-0.023-0.003-0.033v-0.023l-0.078-0.033v-0.155l-0.006-0.005-0.018-0.011v-0.010l-0.026-0.013 0.095 1.36-0.074 0.039-0.085 0.039s0.012 0.048-0.203-0.095-0.194-0.248-0.194-0.248h-0.007c-0.031 0.014-0.053 0.041-0.059 0.075l-0 0.001c0.005 0.030 0.017 0.058 0.034 0.080 0.002 0.003 0.006 0.006 0.008 0.010l0.007 0.008c0.045 0.060 0.138 0.136 0.31 0.23 0.114 0.062 0.247 0.129 0.384 0.129v0c0.002 0 0.005-0.005 0.007-0.004 0.494 0.105 1.051 0.010 1.051 0.010 0.819-0.149 1.021-0.346 1.085-0.471v0s0 0 0 0v0c0.010-0.022 0.021-0.051 0.030-0.081 0.039-0.095-0.025-0.203-0.025-0.203zM1.951 16.713l0.039 0.502-0.314 0.028-0.035-0.504zM1.679 16.118l0.221-0.010 0.034 0.534-0.3 0.021-0.032-0.402-0.011-0.138zM0.35 15.794s-0.056-0.433-0.083-0.443c-0.008-0.003-0.017-0.005-0.027-0.005s-0.019 0.002-0.028 0.005l0.063 0.446zM1.041 16.070s-0.078-0.405-0.36-0.421c0 0-0.186-0.020-0.182 0.31 0 0 0.035 0.017 0.039-0.013s-0.026-0.159 0.078-0.2 0.264 0.022 0.312 0.328zM2.98 15.596l0.069-0.003s-0.034-0.457-0.072-0.479 0.005 0.473 0.005 0.473zM2.427 15.905l0.065 0.023 0.043-0.028s0-0.323 0.167-0.373 0.157 0.188 0.157 0.188l0.019 0.010 0.021-0.015s-0.019-0.248-0.153-0.271c-0.003-0-0.006-0-0.009-0-0.088 0-0.164 0.050-0.201 0.123-0.053 0.1-0.091 0.215-0.109 0.337zM1.387 16.082s0.003-0.349 0.344-0.369 0.373 0.315 0.373 0.315l-0.033 0.010 0.002 0.023-0.061 0.003s-0.009-0.262-0.274-0.25-0.255 0.286-0.255 0.286l-0.060 0.007-0.004-0.023zM0.171 14.704s-0.066 0.072-0.012 0.204 0.277 0.33 1.017 0.349 1.477-0.112 1.758-0.409c0 0 0.167-0.197 0.025-0.333l-0.030 0.050c0.004 0.013 0.007 0.027 0.007 0.042 0 0.030-0.010 0.057-0.026 0.079-0.042 0.069-0.172 0.433-1.443 0.472s-1.252-0.424-1.252-0.424zM1.47 10.528l-0.019-0.035s-0.030 0.005-0.028-0.036 0.007-0.045 0.007-0.045 0.070 0.033 0.057 0.055l-0.013 0.021 0.010 0.028s0.015 0.009 0.024-0.016 0.019-0.028 0.054-0.002l0.034 0.026c-0.009 0.020-0.019 0.038-0.032 0.054-0.010 0.008-0.026-0.008-0.026-0.008l-0.002 0.031c0.008 0.001 0.016 0.005 0.021 0.011 0.010 0.010-0.018 0.066-0.018 0.066l-0.041-0.024c-0.004-0.008-0.007-0.018-0.007-0.028 0-0.006 0.001-0.012 0.003-0.018-0-0.028-0.009-0.055-0.023-0.078zM1.188 10.689l-0.014-0.039s0.023-0.020-0.009-0.045-0.039-0.025-0.039-0.025-0.021 0.074 0.004 0.078l0.024 0.004 0.015 0.026s-0.003 0.017-0.028 0.007-0.034-0.004-0.039 0.039l-0.004 0.043c0.018 0.006 0.038 0.010 0.060 0.012 0.014-0.002 0.013-0.025 0.013-0.025l0.025 0.019c-0.004 0.006-0.006 0.013-0.006 0.020 0 0.001 0 0.002 0 0.003 0 0.015 0.062 0.029 0.062 0.029l0.009-0.047s-0.004-0.017-0.031-0.033c-0.020-0.018-0.036-0.041-0.044-0.068zM1.252 9.21c-0.011 0.011-0.018 0.026-0.018 0.043 0 0.013 0.004 0.025 0.010 0.034l0.004 0.022-0.039 0.009-0.022-0.017-0.037 0.048 0.035 0.049 0.023-0.008c0.007 0.002 0.011 0.008 0.012 0.015 0 0.013 0.005 0.097 0.005 0.097-0.004 0.022-0.010 0.040-0.016 0.058l-0.051-0s-0.060-0.083-0.109-0.005c0 0-0.021-0.009 0 0.010s0.046 0.064 0.109 0.011l0.053-0.007s0.010-0.009 0.011 0.014 0.011 0.171 0.011 0.171l-0.045-0.091 0.031 0.097-0.077-0.069 0.069 0.088-0.098-0.046 0.085 0.067-0.005 0.007-0.221-0.018c0.005-0.007 0.008-0.015 0.008-0.024 0-0.005-0.001-0.010-0.003-0.015-0.012-0.025-0.026-0.046-0.044-0.065s-0.042 0.050-0.027 0.088c-0.012 0.005-0.022 0.011-0.031 0.019-0.005-0.002-0.011-0.002-0.017-0.002-0.023 0-0.043 0.012-0.054 0.030s0.018 0.064 0.073 0.061c0.010 0.018 0.026 0.030 0.046 0.035-0.001 0.006-0.002 0.012-0.002 0.019 0 0.024 0.011 0.046 0.029 0.060 0.014-0.015 0.022-0.035 0.022-0.057 0-0.009-0.001-0.018-0.004-0.026s0.012-0.014 0.012-0.018l0.208 0.015h0.007l0.003 0.024-0.042 0.047 0.050-0.028 0.010 0.010s-0.034 0.078-0.033 0.082l0.050-0.065h0.009l-0.036 0.085 0.016-0.044 0.026 0.562c-0.007 0.015-0.012 0.033-0.012 0.052 0 0.015 0.003 0.029 0.008 0.042l-0.023 0.012s-0.066-0.010-0.055 0.050 0.052 0.060 0.071 0.018l0.018-0.016 0.016 0.345 0.065 0.007 0.049-0.025-0.017-0.375v-0.023s0.067-0.003 0.075-0.036l0.059-0.033c0 0 0.001 0 0.002 0 0.017 0 0.031-0.013 0.032-0.030 0.004-0.032-0.005-0.072-0.046-0.057 0 0-0.018 0.010-0.019 0.017l-0.044 0.026s-0.027-0.005-0.034 0.005l-0.030-0.547 0.019 0.054-0.022-0.081 0.057 0.066-0.039-0.083 0.082 0.033-0.072-0.064 0.006-0.007 0.194 0.005c0.010 0.014 0.023 0.024 0.038 0.032-0 0.005-0.001 0.011-0.001 0.017 0 0.031 0.016 0.059 0.040 0.075 0.019-0.017 0.030-0.042 0.030-0.069 0-0.010-0.002-0.021-0.005-0.030 0.034-0.007 0.061-0.030 0.074-0.061-0.018-0.034-0.048-0.060-0.084-0.072-0.001-0.003-0.001-0.006-0.001-0.009 0-0.032-0.017-0.060-0.043-0.075s-0.045 0.042-0.026 0.082l-0.014 0.019-0.205-0.015v-0.016l0.046-0.045-0.057 0.024-0.012-0.010 0.041-0.067-0.060 0.050 0.016-0.083-0.029 0.042-0.007-0.128s0-0.005 0.016 0.005 0.027 0.027 0.039 0.026h0.009v0.013s-0.030-0.003-0.027 0.008 0.034 0.032 0.039 0.053-0.020-0.021 0.011-0.039-0.059-0.039-0.059-0.039v-0.031s0.060 0.003 0.071-0.009c0 0 0.015 0.026 0.036 0.020s0.020-0.017 0.036-0.033 0.005-0.028-0.010-0.047-0.033-0.028-0.039-0.013-0.017-0.007-0.025-0.015-0.023 0-0.023 0v-0.020s0.036 0.007 0.032-0.023-0.035-0.039-0.043-0.060 0 0.014-0.012 0.025-0.034 0.051-0.010 0.056l0.014 0.003-0.004 0.022-0.043 0.003-0.021-0.028v-0.069s0.007-0.014 0.029-0.002l0.032-0.036-0.043-0.053-0.021 0.007-0.044-0.009 0.003-0.023s0.026-0.037-0.018-0.079zM2.965 14.332c-0.066 0.143-0.175 0.257-0.312 0.325-0.401 0.204-0.97 0.244-0.97 0.244-0.769 0.069-1.179-0.054-1.375-0.15-0.092-0.046-0.158-0.13-0.18-0.23l-0-0.002c-0.083-0.343 0.16-0.397 0.17-0.399v0c-0.162-0.181-0.262-0.421-0.262-0.685 0-0.101 0.015-0.199 0.042-0.291 0.122-0.448 0.506-0.701 0.784-0.944s0.331-0.477 0.331-0.478v0l0.039-0.389c0.029 0.023 0.066 0.037 0.106 0.037 0.002 0 0.005-0 0.007-0 0.017-0.001 0.034-0.004 0.049-0.010 0.025-0.009 0.047-0.023 0.065-0.042l0-0 0.093 0.369s0.077 0.247 0.472 0.444c0.328 0.164 0.672 0.41 0.857 0.832 0.22 0.501-0.056 0.93-0.059 0.934v0c0.078 0.046 0.138 0.116 0.168 0.201 0.024 0.061 0.016 0.139-0.026 0.236zM1.515 11.197c0 0.002 0 0.005 0 0.008 0 0.050-0.022 0.095-0.056 0.126-0.017 0.016-0.038 0.028-0.061 0.035-0.017 0.006-0.035 0.009-0.054 0.009-0.094 0-0.17-0.076-0.17-0.17 0-0.075 0.048-0.139 0.116-0.161 0.015-0.005 0.031-0.008 0.047-0.009h0.015c0.088 0.003 0.159 0.073 0.164 0.161zM0.384 17.595c0.020 0.016 0.041 0.032 0.064 0.047zM18.983 14.162c-0.014 0.076-0.041 0.143-0.081 0.202l0.005 0.535v1.418l-0.003 0.010-0.007 0.002-0.031 0.105h0.014l0.006 0.012 0.046 0.171-0.013 0.068s0 0 0 0v0.004l-0.002 0.002h-0.005l-0.007 0.007-0.010 0.084 0.006 0.009 0.004 0.022v0.011l0.009 0.012 0.031 0.096v0.021l0.010 0.024 0.005 0.012v0.002l0.024 0.302c-0.065 0.294-0.384 0.474-0.782 0.566-0.042-0.137-0.087-0.253-0.141-0.364-0.014-0.028-0.036-0.070-0.059-0.111-0.019-0.035-0.039-0.069-0.062-0.102-0.009-0.014-0.017-0.027-0.027-0.039s-0.016-0.032-0.025-0.044c-0.025-0.035-0.053-0.066-0.082-0.104v0s0 0.006 0 0.006c-0.038-0.030-0.079-0.060-0.123-0.086-0.007-0.003-0.009 0.003-0.012 0.003v0c-0.057-0.039-0.116-0.078-0.177-0.078h-0.005s0-0.004 0-0.005 0 0 0 0c-0.028-0.009-0.056-0.021-0.084-0.028v0s0 0 0 0 0-0.002 0-0.002h-0.293c-0.016 0-0.032-0.010-0.047-0.010-0.054-0-0.104-0.014-0.149-0.037l-0.011-0.006c-0.036-0.021-0.066-0.049-0.089-0.082l-0.001-0.004c-0.018-0.029-0.038-0.064-0.055-0.099l-0.003-0.006c0-0.002-0.003 0-0.004-0.002-0.001-0.001-0.003-0.002-0.004-0.003s-0 0.010-0 0.010 0 0.009 0 0.009h-0.012c-0.009 0-0.018 0.020-0.035 0.074 0 0 0-0.003 0-0.002-0.005 0.017-0.011 0.032-0.018 0.053v0c-0.002 0.007-0.005 0.013-0.007 0.021v0c-0.007 0.024-0.024 0.049-0.034 0.078 0 0-0.009 0-0.009 0v0 0.092c-0.004 0.004-0.008 0.008-0.013 0.012-0.034 0.032-0.078 0.056-0.111 0.095v0s0.008-0.010 0.008-0.007v0 0s-0.005 0-0.005 0h-0.003s-0.002 0-0.003 0.002v-0.002c-0.003 0.005-0.006 0.003-0.008 0.003v0c-0.002 0-0.005 0.004-0.007 0.004s0 0.005 0 0.005 0-0.005 0-0.005 0-0.004 0-0.004v0s-0.002 0.007-0.003 0.008c-0.029 0.027-0.060 0.059-0.095 0.089 0 0 0 0.002 0 0.002v0s0 0 0 0l-0.098 0.085c-0.061 0.053-0.126 0.112-0.194 0.179-0.024-0.033-0.044-0.070-0.058-0.11 0.009-0.027 0.019-0.056 0.025-0.085 0.005-0.024 0.007-0.047 0.007-0.072 0-0.035-0.005-0.068-0.014-0.1-0.008-0.036-0.016-0.062-0.016-0.062l0.009-0.233v-0.023l0.062-0.044-0.019-0.070h-0.003v-0.008l-0.025-0.066c-0.008-0.034-0.012-0.075-0.014-0.115l-0-0.003c0-0.002-0.003-0.004-0.004-0.006v0 0 0c-0.002-0.019-0.007-0.035-0.015-0.051-0.008-0.024-0.025-0.081-0.038-0.129v0c-0.011-0.041-0.020-0.078-0.022-0.084s0 0 0 0l0.054-0.081 0.060-0.072 0.039-1.042 0.017-0.465 0.012-0.214c-0.042-0.048-0.068-0.111-0.068-0.18 0-0.008 0-0.016 0.001-0.024l0.024-0.185c0.008-0.009 0.013-0.021 0.013-0.035 0-0.018-0.009-0.033-0.022-0.043-0.016-0.018-0.025-0.041-0.025-0.067 0-0.003 0-0.005 0-0.008s-0-0.005-0-0.008c0-0.026 0.002-0.051 0.007-0.075l1.695 0.062 1.23-0.096c-0.016 0.054-0.027 0.117-0.029 0.182 0.006 0.056 0.018 0.129 0.018 0.129-0 0.066-0.008 0.13-0.022 0.192zM16.19 13.943s0.241 0.324 1.43 0.347c0 0 0.973 0.041 1.24-0.314 0 0-0.247 0.339-1.456 0.271 0.001 0.001-0.815 0.023-1.214-0.304zM16.175 14.344s0.164 0.288 1.252 0.359c0.068 0.005 0.147 0.008 0.226 0.008 0.182 0 0.361-0.015 0.535-0.044 0.255-0.043 0.572-0.132 0.682-0.307 0 0-0.261 0.373-1.632 0.282 0.001 0.002-0.574 0.007-1.064-0.298zM16.494 17.090c-0.007 0.007-0.014 0.014-0.021 0.020-0.279-0.127-0.332-0.271-0.335-0.28 0.005 0.009 0.087 0.144 0.356 0.26zM18.847 16.926c-0.007 0.010-0.207 0.289-0.908 0.358-0.009-0.014-0.017-0.027-0.027-0.039 0.629-0.060 0.838-0.259 0.935-0.319zM16.076 16.458c0.151 0.165 0.374 0.271 0.594 0.335v0c-0.002 0.007-0.005 0.014-0.007 0.021-0.395-0.129-0.564-0.327-0.587-0.356zM17.28 16.898c0.019 0 0.036 0.004 0.051 0.004h-0.227c-0.016 0-0.032-0.010-0.047-0.010-0.054-0-0.104-0.014-0.149-0.037l-0.011-0.006c0.109 0.022 0.241 0.040 0.374 0.048zM18.816 16.583c-0.017 0.039-0.078 0.095-0.194 0.152-0.2 0.1-0.561 0.2-1.137 0.198v0c-0.028-0.009-0.056-0.021-0.084-0.027v0s0 0 0 0 0 0 0 0h0.002c0.631 0 0.994-0.099 1.194-0.184h0.002c0.151-0.072 0.209-0.13 0.216-0.139zM16.179 15.002l-0.031 1.21-0.074-0.028 0.029-1.186 0.059-0.001 0.017 0.004zM18.929 15.010l-0.024 1.195 0.020 0.129-0.079-0.029s0.039-1.442 0.039-1.497zM18.521 15.049l-0.078 1.404 0.214 0.101 0.014-0.059 0.015-1.406s0-0.116-0.105-0.092c-0.024 0.014-0.044 0.032-0.060 0.052zM16.614 15.070s-0.073-0.094-0.151-0.043c-0.031 0.022-0.052 0.058-0.052 0.099 0 0 0 0.001 0 0.001l-0.019 1.369 0.169-0.062 0.052-1.35zM16.634 15.084s0.065 0.059 0.065 0.21-0.005 1.186-0.005 1.186l-0.096 0.018s-0.007-1.36 0.031-1.418zM18.521 15.049s-0.088 0.055-0.094 0.28-0.021 1.085-0.021 1.085l0.098-0.009 0.017-1.357zM17.401 15.274s0.029-0.088 0.185-0.098 0.223 0.163 0.2 0.243-0.008 1.3-0.008 1.3l-0.396-0.052 0.019-1.395zM16.374 17.198l-0.1 0.086c-0.091-0.048-0.168-0.111-0.232-0.185-0.082-0.103-0.098-0.214-0.025-0.321 0 0 0 0.007 0.016 0.023 0.006 0.007 0.015 0.015 0.026 0.026l0.009 0.008c0.039 0.039 0.035 0.047 0.035 0.047s-0.007 0.034 0.053 0.124c0.053 0.083 0.127 0.149 0.214 0.191zM18.957 16.99c0 0.093-0.042 0.203-0.205 0.296-0.198 0.108-0.429 0.187-0.674 0.224-0.032-0.042-0.054-0.084-0.077-0.125 0.412-0.056 0.739-0.188 0.821-0.365 0.012-0.028 0.021-0.060 0.025-0.093l0.015-0.041 0.033-0.086c0.027 0.040 0.046 0.087 0.055 0.138 0.003 0.017 0.006 0.033 0.006 0.050zM16.645 16.896c0 0.032-0.026 0.062-0.026 0.092v0s-0.012 0.002-0.013 0.003c-0.204-0.063-0.438-0.167-0.532-0.328 0 0 0 0 0 0-0.025-0.050-0.040-0.109-0.040-0.171 0-0.011 0-0.022 0.001-0.033l-0 0.001c0-0.004 0.001-0.008 0.002-0.011s0.099 0.296 0.607 0.445zM18.921 16.688v0c0 0.002-0.006 0.004-0.007 0.007s-0.008 0.005-0.008 0.007v0c-0.039 0.039-0.052 0.078-0.11 0.114-0.010 0.007-0.018 0.013-0.029 0.019v-0.007c-0.178 0.111-0.405 0.269-0.962 0.269v0s0 0.006 0 0.005c-0.038-0.032-0.080-0.063-0.124-0.092 0.002-0.003 0.010-0.003 0.018-0.003 0.238 0 0.468-0.038 0.682-0.108 0.102-0.034 0.203-0.079 0.298-0.135 0.127-0.077 0.204-0.165 0.179-0.237l0.031-0.078 0.005-0.015s0.083 0.126 0.026 0.255zM18.921 16.146l-0.003 0.027-0.003 0.026-0.004 0.003-0.005 0.003-0.003 0.010 0.009 0.066v0.014l0.002 0.022h-0.003l-0.063-0.011h-0.002l-0.015-0.002-0.116 0.111 0.002 0.062-0.044 0.017-0.015 0.006-0.139-0.088s0.016-1.010 0.015-1.177c0-0.146-0.011-0.178-0.014-0.184v0 0 0 0l-0.028 0.035 0.007 0.132-0.065 0.033-0.007 0.078 0.063-0.039-0.011 0.353v0.034l0.002 0.121-0.004 0.004-0.060 0.042v0.053l0.072-0.038-0.017 0.516-0.021 0.015-0.005 0.003-0.037 0.019h-0.008v-0.015h0.004v0.015l-0.004 0.175v0.007c0 0.004-0.011 0.020-0.057 0.039-0.010 0.005-0.022 0.008-0.035 0.008-0.019 0-0.036-0.006-0.050-0.017l-0.375 0.078-0.018 0.032-0.086-0.014v-1.301c0-0.032 0.002-0.053 0-0.060-0.003-0.046-0.022-0.086-0.052-0.116l0 0.155-0.306 0.006 0.006-0.155c-0.001-0-0.003-0-0.004-0s-0.003 0-0.004 0-0.005-0-0.006 0.002-0.007 0.010-0.015 0.022v0 0c-0.004 0.007-0.010 0.015-0.016 0.025-0.014 0.022-0.030 0.297-0.030 0.599v0.009c0 0.388-0.013 0.821-0.013 0.821-0.014 0.005-0.031 0.007-0.048 0.007s-0.034-0.003-0.049-0.008c-0.036-0.008-0.069-0.019-0.1-0.034l-0.333-0.052-0.039 0.026h-0.039s0-0.010 0-0.009 0-0.005 0-0.005 0.003 0 0.004 0 0.002 0 0.004 0v0c0.020 0.042 0.039 0.077 0.060 0.11l-0.003-0.005c0.218 0.045 0.468 0.071 0.724 0.071 0.078 0 0.155-0.002 0.231-0.007 0.353-0.034 0.593-0.088 0.765-0.148 0.003 0 0-0.002 0.004-0.003 0.224-0.080 0.303-0.17 0.342-0.239v0s0.015 0 0.015 0c0.015-0.023 0.031-0.051 0.045-0.080 0.044-0.095-0.005-0.209-0.005-0.209zM17.743 16.166l-0.010 0.409h-0.326l0.005-0.518 0.15-0.005h0.169l0.011 0.1zM17.433 15.95v0l-0.006-0.512 0.31 0.012-0.013 0.536-0.248-0.011-0.019 0.003-0.041 0.005 0.009-0.030zM16.735 16.651l-0.010-0.007-0.039-0.033 0.013-0.133v-0.033h-0.006l-0.075-0.025-0.004-0.507 0.081 0.013h-0.003l0.004-0.039v-0.002l0.002-0.023h-0.002l-0.074-0.036 0.005-0.4-0.008-0.016 0.002-0.078 0.073 0.014h0.005l-0.002-0.037v0.002l-0.078-0.054 0.011-0.167-0.006-0.009-0.016-0.014h-0.002l-0.023-0.019-0.003 0.314v0.017l-0.017 1.055-0.066 0.025h-0.007l-0.009 0.003-0.056 0.020-0.031 0.011s0.010 0.050-0.198-0.114c-0.194-0.155-0.179-0.257-0.176-0.269v0c-0.030 0.016-0.052 0.046-0.055 0.081s-0 0-0 0c-0 0.002-0 0.004-0 0.006 0 0.029 0.008 0.056 0.021 0.079l-0-0.001c0.036 0.068 0.122 0.16 0.305 0.281 0.115 0.074 0.248 0.133 0.39 0.17s0.010 0.012 0.010 0.012c0.017-0.054 0.026-0.074 0.035-0.074h0.010v-0.011zM16.703 15.349v0zM16.18 14.996s-0.020-0.45-0.046-0.465c-0.009-0.004-0.020-0.007-0.031-0.007-0.009 0-0.017 0.002-0.025 0.004l0.026 0.463zM16.861 15.307s-0.045-0.409-0.331-0.449c0 0-0.188-0.031-0.213 0.307 0 0 0.034 0.023 0.041-0.007s-0.012-0.174 0.096-0.207 0.266 0.066 0.29 0.352zM18.879 14.993l0.070 0.003s0.005-0.459-0.033-0.485-0.035 0.477-0.035 0.477zM18.288 15.28l0.065 0.029 0.046-0.025s0.029-0.329 0.203-0.366 0.144 0.206 0.144 0.206l0.018 0.012 0.023-0.013s0-0.255-0.133-0.289c-0.008-0.001-0.018-0.002-0.028-0.002-0.083 0-0.156 0.044-0.197 0.109-0.062 0.098-0.111 0.21-0.14 0.331zM17.21 15.37s0.033-0.356 0.383-0.347 0.353 0.354 0.353 0.354l-0.034-0.005v0.011l-0.063-0.002s0.012-0.255-0.258-0.265-0.285 0.276-0.285 0.276l-0.062 0.005v-0.022zM16.091 13.86s-0.074 0.068-0.030 0.207 0.254 0.36 1.008 0.444 1.516 0.014 1.828-0.264c0 0 0.188-0.187 0.054-0.337l-0.035 0.048c0.002 0.010 0.004 0.021 0.004 0.032 0 0.034-0.013 0.066-0.033 0.090-0.049 0.066-0.213 0.426-1.511 0.356s-1.24-0.541-1.24-0.541zM17.777 9.715l-0.017-0.039s-0.031 0.002-0.026-0.039 0.010-0.046 0.010-0.046 0.068 0.039 0.053 0.060l-0.015 0.021 0.008 0.029s0.014 0.010 0.025-0.015 0.022-0.027 0.055 0.002l0.033 0.029c-0.011 0.020-0.023 0.037-0.036 0.052-0.011 0.008-0.026-0.010-0.026-0.010l-0.005 0.032c0.008 0.002 0.015 0.007 0.020 0.013 0.010 0.011-0.024 0.066-0.024 0.066l-0.039-0.029c-0.003-0.007-0.005-0.015-0.005-0.023s0.002-0.016 0.005-0.023c0-0.003 0-0.008 0-0.012 0-0.025-0.006-0.049-0.017-0.070zM17.476 9.854l-0.011-0.039s0.025-0.018-0.005-0.047-0.039-0.029-0.039-0.029-0.028 0.074-0.003 0.081l0.024 0.007 0.013 0.028s-0.005 0.017-0.029 0.005-0.034-0.007-0.041 0.037l-0.007 0.043c0.017 0.007 0.038 0.013 0.059 0.017 0.015 0 0.016-0.024 0.016-0.024l0.024 0.021c-0.005 0.007-0.007 0.015-0.007 0.023 0 0.015 0.060 0.035 0.060 0.035l0.013-0.047c-0.005-0.016-0.015-0.028-0.029-0.036-0.019-0.020-0.033-0.045-0.039-0.073zM17.67 8.351c-0.013 0.012-0.022 0.029-0.022 0.048 0 0.011 0.003 0.021 0.008 0.030l0.002 0.023-0.039 0.006-0.021-0.019-0.041 0.046 0.031 0.053 0.024-0.006c0.006 0.003 0.011 0.009 0.011 0.016 0 0 0 0.001-0 0.001 0 0.014-0.003 0.086-0.003 0.086-0.006 0.016-0.013 0.029-0.021 0.042l-0.052-0.003c-0.011-0.019-0.032-0.032-0.056-0.032s-0.044 0.013-0.055 0.032-0.020-0.004-0 0.017 0.042 0.072 0.11 0.024h0.055s0.011-0.008 0.010 0.016-0.004 0.176-0.004 0.176l-0.039-0.097 0.023 0.101-0.072-0.078 0.062 0.095-0.098-0.055 0.081 0.078-0.006 0.007-0.224-0.039c0.006-0.007 0.010-0.017 0.010-0.028 0-0.004-0.001-0.008-0.002-0.011-0.010-0.027-0.023-0.050-0.039-0.070s-0.048 0.048-0.034 0.088c-0.013 0.004-0.024 0.009-0.033 0.016-0.007-0.003-0.014-0.004-0.023-0.004-0.021 0-0.041 0.010-0.053 0.026s0.013 0.066 0.069 0.069c0.009 0.018 0.024 0.032 0.044 0.039-0.002 0.008-0.004 0.017-0.004 0.026 0 0.023 0.009 0.043 0.024 0.058 0.017-0.016 0.028-0.039 0.028-0.064 0-0.007-0.001-0.013-0.002-0.019s0.013-0.013 0.014-0.017l0.211 0.033h0.009v0.024l-0.048 0.042 0.053-0.024 0.009 0.011s-0.041 0.076-0.039 0.080l0.056-0.062 0.009 0.002-0.043 0.083 0.022-0.043-0.022 0.576c-0.012 0.018-0.019 0.040-0.019 0.064 0 0.011 0.002 0.022 0.004 0.032l-0.026 0.010s-0.067-0.016-0.061 0.046 0.050 0.066 0.073 0.024l0.022-0.015-0.014 0.353 0.061 0.012 0.047-0.022 0.015-0.384v-0.023s0.072 0.003 0.083-0.031l0.064-0.028c0.002 0 0.003 0 0.005 0 0.017 0 0.031-0.012 0.034-0.028 0.006-0.032 0-0.074-0.041-0.062 0 0-0.019 0.009-0.021 0.016l-0.047 0.022s-0.027-0.007-0.035 0.003l0.017-0.56 0.014 0.057-0.015-0.085 0.053 0.072-0.034-0.088 0.080 0.041-0.069-0.071 0.007-0.007 0.199 0.022c0.009 0.015 0.021 0.027 0.035 0.035-0.002 0.008-0.003 0.016-0.003 0.025 0 0.029 0.014 0.055 0.035 0.072 0.023-0.018 0.037-0.045 0.037-0.076 0-0.008-0.001-0.015-0.003-0.023 0.036-0.004 0.065-0.026 0.081-0.056-0.016-0.037-0.044-0.065-0.079-0.080 0-0.005 0.001-0.011 0.001-0.017 0-0.030-0.015-0.056-0.038-0.072s-0.049 0.039-0.034 0.082l-0.016 0.018-0.207-0.033v-0.017l0.050-0.042-0.062 0.020-0.011-0.011 0.050-0.066-0.059 0.045 0.024-0.083-0.034 0.039 0.004-0.131s0-0.005 0.015 0.007 0.025 0.030 0.036 0.031h0.009v0.013s-0.030-0.006-0.029 0.006 0.032 0.035 0.037 0.058-0.024-0.024 0.009-0.039-0.062-0.045-0.062-0.045v-0.032s0.067 0.009 0.078-0.003c0 0 0.015 0.028 0.039 0.023s0.023-0.015 0.039-0.031 0.009-0.028-0.005-0.048-0.030-0.031-0.039-0.017-0.017-0.009-0.024-0.017-0.024-0.004-0.024-0.004l0.003-0.021s0.036 0.010 0.035-0.021-0.033-0.044-0.039-0.064 0 0.014-0.015 0.024-0.039 0.049-0.015 0.057l0.014 0.004-0.006 0.022h-0.044l-0.019-0.031 0.006-0.070s0.008-0.014 0.029 0l0.036-0.034-0.039-0.058-0.021 0.005-0.044-0.013 0.005-0.023s0.029-0.031-0.012-0.078zM18.973 13.724c-0.078 0.139-0.199 0.246-0.344 0.305-0.427 0.173-1.012 0.165-1.012 0.165-0.79 0.004-1.197-0.157-1.389-0.271-0.088-0.054-0.15-0.144-0.164-0.25l-0-0.002c-0.054-0.357 0.198-0.391 0.208-0.393v0c-0.132-0.174-0.212-0.394-0.212-0.632 0-0.135 0.025-0.264 0.072-0.383 0.163-0.446 0.579-0.671 0.881-0.895s0.381-0.46 0.381-0.461v0l0.073-0.394c0.029 0.028 0.069 0.045 0.112 0.047 0.002 0 0.005 0 0.007 0 0.015 0 0.030-0.002 0.044-0.006 0.026-0.008 0.050-0.021 0.070-0.039l-0 0 0.063 0.384s0.057 0.26 0.445 0.495c0.32 0.194 0.649 0.476 0.802 0.923 0.181 0.53-0.137 0.943-0.14 0.947v0c0.075 0.053 0.131 0.13 0.154 0.219 0.013 0.064-0 0.143-0.051 0.239zM17.766 10.4c-0.002 0.054-0.028 0.101-0.068 0.132-0.019 0.015-0.041 0.025-0.065 0.031-0.011 0.002-0.023 0.004-0.035 0.004-0.096 0-0.174-0.078-0.174-0.174 0-0.080 0.053-0.147 0.127-0.168 0.014-0.004 0.028-0.005 0.043-0.005 0.002 0 0.004 0 0.007 0h0.014c0.087 0.011 0.153 0.084 0.153 0.173 0 0.003-0 0.006-0 0.009zM16.058 16.827c0.020 0.019 0.041 0.037 0.063 0.055zM8.594 16.775s-0.022 0.131 0.026 0.168c0.015 0.011 0.025 0.028 0.025 0.047 0 0.013-0.004 0.025-0.012 0.035l-0.018 0.203c-0 0.004-0 0.008-0 0.013 0 0.079 0.031 0.151 0.082 0.204l-0.005 0.232 0.002 1.634-0.062 0.080-0.057 0.091s0.050 0.178 0.070 0.233c0.015 0.055 0.027 0.12 0.033 0.187l0.058 0.159-0.063 0.050v0.277s0.060 0.155 0.036 0.249c-0.007 0.036-0.016 0.068-0.027 0.098s0.151 0.453 0.988 0.551 2.103-0.087 2.22-0.741l-0.039-0.326-0.074-0.205 0.039-0.198-0.055-0.196 0.018-0.13-0.096-2.117c0.039-0.063 0.066-0.138 0.077-0.217 0.004-0.034 0.006-0.069 0.006-0.105s-0.002-0.071-0.006-0.106-0.015-0.073-0.024-0.133c0-0.071 0.009-0.14 0.026-0.206l-1.33 0.161-1.839 0.006zM8.728 17.033s0.275 0.341 1.563 0.316c0 0 1.056 0.004 1.331-0.391 0 0-0.253 0.378-1.566 0.356 0 0-0.884 0.058-1.329-0.28zM8.728 17.469s0.19 0.305 1.371 0.337c0.033 0.001 0.071 0.002 0.11 0.002 0.245 0 0.484-0.025 0.715-0.073 0.272-0.057 0.611-0.167 0.724-0.361 0 0-0.267 0.415-1.756 0.374 0 0-0.621 0.030-1.165-0.279zM11.731 20.153s-0.29 0.469-1.536 0.46-1.403-0.45-1.403-0.45 0.263 0.426 1.388 0.412 1.424-0.335 1.55-0.421zM8.706 19.757s0.388 0.48 1.448 0.463 1.481-0.322 1.529-0.438c0 0-0.263 0.349-1.523 0.409 0-0-1.001 0.031-1.454-0.434zM8.761 18.18l0.017 1.312-0.081-0.027-0.018-1.286 0.063-0.003 0.019 0.003zM11.74 18.074l0.023 1.297 0.027 0.139-0.088-0.029s-0.019-1.564-0.021-1.623zM11.299 18.133l-0.026 1.524 0.236 0.1 0.013-0.064-0.042-1.524s-0.005-0.127-0.116-0.096c-0.025 0.016-0.046 0.036-0.063 0.059zM9.234 18.236s-0.083-0.099-0.165-0.039c-0.032 0.024-0.052 0.062-0.052 0.104 0 0.002 0 0.004 0 0.007l0.036 1.483 0.181-0.074v-1.465zM9.255 18.25s0.073 0.061 0.078 0.224 0.044 1.284 0.044 1.284l-0.103 0.024s-0.064-1.473-0.026-1.537zM11.299 18.133s-0.093 0.064-0.090 0.307 0.022 1.177 0.022 1.177l0.105-0.014-0.039-1.471zM10.095 18.423s0.028-0.097 0.197-0.114 0.248 0.167 0.227 0.255 0.046 1.409 0.046 1.409l-0.432-0.039-0.039-1.512zM11.779 20.015s0.237 0.3-0.136 0.532-1.020 0.397-1.815 0.326-1.386-0.417-1.17-0.763c0 0-0.004 0.007 0.048 0.052s0.050 0.058 0.050 0.058-0.007 0.039 0.062 0.131c0.074 0.101 0.215 0.297 1.039 0.374s1.714-0.142 1.85-0.469c0.012-0.030 0.020-0.066 0.024-0.102zM11.762 19.617s0.181 0.24-0.086 0.418-0.605 0.449-1.97 0.36c0 0-1.117-0.107-1.046-0.641 0 0 0.155 0.422 0.961 0.507s1.263 0.013 1.589-0.111 0.565-0.307 0.516-0.431l0.039-0.102zM11.779 19.305l-0.018 0.078 0.018 0.11-0.084-0.012-0.114 0.123v0.065l-0.068 0.028-0.155-0.088s-0.026-1.095-0.034-1.276-0.024-0.2-0.024-0.2l-0.030 0.039 0.013 0.142-0.069 0.039-0.004 0.086 0.071-0.047 0.015 0.552-0.065 0.055v0.058l0.078-0.044v0.56l-0.074 0.045v0.194s-0.005 0.020-0.061 0.044c-0.012 0.006-0.026 0.010-0.040 0.010-0.019 0-0.037-0.006-0.051-0.017l-0.403 0.098-0.022 0.036-0.093-0.011s-0.042-1.395-0.049-1.473c-0.005-0.049-0.028-0.093-0.062-0.124l0.006 0.169-0.34 0.019-0.009-0.171-0.031 0.058c-0.031 0.058 0.013 1.55 0.013 1.55-0.018 0.006-0.038 0.010-0.059 0.010-0.016 0-0.032-0.002-0.046-0.006-0.039-0.007-0.075-0.018-0.109-0.032l-0.363-0.043-0.039 0.022-0.042-0.007-0.061-0.042 0.009-0.181-0.086-0.022-0.023-0.55 0.085 0.011 0.004-0.069-0.093-0.039-0.011-0.534 0.085 0.014-0.005-0.071-0.085-0.039 0.007-0.173-0.058-0.042 0.036 1.51-0.085 0.036-0.096 0.039s0.012 0.053-0.22-0.116-0.202-0.285-0.202-0.285-0.254 0.131 0.312 0.474 1.589 0.226 1.589 0.226c1.192-0.16 1.228-0.469 1.269-0.567s-0.024-0.219-0.024-0.219zM10.12 18.607h0.341l0.011 0.585-0.333 0.012zM10.153 19.838l-0.013-0.56 0.349-0.013 0.015 0.558zM8.761 18.181s-0.039-0.491-0.069-0.504c-0.009-0.004-0.019-0.006-0.030-0.006s-0.021 0.002-0.031 0.006l0.047 0.504zM9.512 18.491s-0.066-0.446-0.377-0.477c0 0-0.205-0.028-0.218 0.339 0 0 0.039 0.022 0.045-0.011s-0.020-0.184 0.096-0.224 0.291 0.063 0.329 0.373zM11.697 18.065h0.064s-0.013-0.5-0.055-0.527-0.012 0.52-0.012 0.52zM11.056 18.394l0.071 0.029 0.049-0.029s0.018-0.358 0.205-0.405 0.165 0.217 0.165 0.217l0.020 0.012 0.024-0.015s-0.009-0.276-0.155-0.307c-0.007-0.001-0.014-0.001-0.022-0.001-0.093 0-0.174 0.051-0.217 0.127-0.064 0.108-0.112 0.232-0.138 0.364zM9.893 18.536s0.021-0.388 0.4-0.391 0.396 0.368 0.396 0.368h-0.039v0.016h-0.068s0.003-0.281-0.291-0.281-0.297 0.31-0.297 0.31l-0.067 0.007-0.003-0.025zM8.618 16.947s-0.078 0.078-0.024 0.226 0.291 0.379 1.109 0.439 1.643-0.048 1.969-0.362c0 0 0.194-0.21 0.045-0.367l-0.036 0.053c0.004 0.012 0.006 0.026 0.006 0.040 0 0.035-0.012 0.068-0.033 0.093-0.050 0.074-0.213 0.471-1.623 0.449s-1.365-0.534-1.365-0.534zM10.271 12.386l-0.020-0.039s-0.034 0.004-0.029-0.041 0.010-0.050 0.010-0.050 0.078 0.039 0.060 0.063l-0.015 0.023 0.010 0.031s0.016 0.010 0.027-0.017 0.023-0.030 0.060 0l0.039 0.030c-0.011 0.022-0.024 0.041-0.039 0.058-0.011 0.009-0.029-0.010-0.029-0.010l-0.004 0.035c0.009 0.002 0.017 0.007 0.023 0.014 0.011 0.012-0.024 0.072-0.024 0.072l-0.045-0.029c-0.004-0.008-0.006-0.018-0.006-0.028 0-0.008 0.001-0.016 0.004-0.023-0-0.002 0-0.004 0-0.007 0-0.030-0.008-0.058-0.022-0.082zM9.953 12.55l-0.014-0.043s0.027-0.021-0.007-0.050-0.041-0.030-0.041-0.030-0.027 0.081 0 0.088l0.027 0.006 0.015 0.029s-0.004 0.018-0.031 0.006-0.039-0.006-0.043 0.041l-0.006 0.047c0.019 0.007 0.042 0.013 0.065 0.016 0.016 0 0.016-0.027 0.016-0.027l0.027 0.022c-0.005 0.007-0.007 0.015-0.007 0.025 0 0 0 0.001 0 0.001 0 0.016 0.067 0.036 0.067 0.036l0.012-0.052c-0.006-0.017-0.017-0.031-0.033-0.039-0.022-0.021-0.038-0.047-0.045-0.077zM10.099 10.914c-0.013 0.013-0.021 0.030-0.021 0.050 0 0.013 0.003 0.024 0.009 0.035l0.003 0.025-0.043 0.009-0.024-0.020-0.043 0.052 0.036 0.056 0.026-0.007c0.007 0.003 0.012 0.010 0.012 0.018 0 0 0 0 0 0 0 0.015 0 0.1 0 0.1-0.006 0.020-0.013 0.038-0.021 0.054l-0.056-0.002s-0.062-0.087-0.121-0.004c0 0-0.022-0.007 0 0.015s0.048 0.075 0.12 0.020l0.059-0.004s0.012-0.009 0.012 0.017 0.003 0.19 0.003 0.19l-0.045-0.103 0.029 0.109-0.082-0.081 0.071 0.101-0.11-0.055 0.090 0.078-0.006 0.008-0.244-0.032c0.006-0.008 0.010-0.018 0.010-0.028 0-0.005-0.001-0.010-0.002-0.014-0.012-0.028-0.027-0.053-0.046-0.075s-0.050 0.054-0.034 0.096c-0.013 0.005-0.025 0.011-0.035 0.019-0.006-0.002-0.014-0.004-0.022-0.004-0.024 0-0.046 0.012-0.059 0.030s0.017 0.072 0.077 0.072c0.010 0.020 0.028 0.035 0.049 0.041-0.002 0.008-0.003 0.016-0.003 0.025 0 0.026 0.011 0.049 0.029 0.065 0.017-0.017 0.027-0.041 0.027-0.067 0-0.008-0.001-0.017-0.003-0.024s0.014-0.015 0.014-0.020l0.23 0.028h0.010l0.002 0.026-0.051 0.048 0.057-0.029 0.010 0.012s-0.041 0.083-0.039 0.089l0.058-0.070 0.010 0.002-0.039 0.092 0.024-0.048v0.624c-0.012 0.019-0.020 0.041-0.020 0.066 0 0.013 0.002 0.026 0.006 0.038l-0.028 0.012s-0.073-0.015-0.065 0.053 0.059 0.070 0.082 0.023l0.025-0.017v0.383l0.067 0.010 0.050-0.025v-0.442s0.076 0 0.086-0.036l0.067-0.033c0.001 0 0.002 0 0.003 0 0.018 0 0.034-0.014 0.036-0.032 0.005-0.035-0.002-0.080-0.048-0.066 0 0-0.020 0.010-0.022 0.018l-0.050 0.026s-0.029-0.006-0.039 0.004l-0.005-0.608 0.018 0.061-0.020-0.091 0.060 0.078-0.039-0.094 0.089 0.041-0.078-0.074 0.007-0.007 0.217 0.016c0.010 0.016 0.023 0.029 0.038 0.038-0.001 0.007-0.002 0.015-0.002 0.023 0 0.033 0.016 0.063 0.041 0.081s0.044-0.027 0.033-0.108c0.038-0.007 0.069-0.031 0.085-0.065-0.018-0.039-0.050-0.068-0.089-0.084-0-0.005-0-0.010-0-0.015 0-0.034-0.018-0.063-0.044-0.080s-0.052 0.044-0.033 0.090l-0.017 0.020-0.226-0.028v-0.018l0.053-0.048-0.064 0.023-0.013-0.012 0.048-0.072-0.062 0.052 0.022-0.091-0.035 0.045v-0.143s0 0 0.017 0.014 0.029 0.039 0.039 0.039h0.010v0.007s-0.033-0.009-0.031 0.004 0.036 0.035 0.042 0.060-0.024-0.026 0.010-0.045-0.067-0.047-0.067-0.047v-0.035s0.070 0.006 0.083-0.006c0 0 0.017 0.030 0.039 0.024s0.024-0.017 0.042-0.035 0.008-0.030-0.008-0.052-0.034-0.033-0.041-0.017-0.019-0.009-0.027-0.017-0.026-0.003-0.026-0.003l0.003-0.022s0.039 0.010 0.036-0.024-0.039-0.046-0.044-0.068 0 0.015-0.015 0.027-0.039 0.055-0.014 0.062l0.016 0.004-0.005 0.024h-0.048l-0.021-0.033 0.004-0.078s0.008-0.015 0.032 0l0.039-0.039-0.043-0.061-0.023 0.006-0.048-0.012 0.005-0.025s0.028-0.036-0.020-0.085zM11.735 16.679c-0.079 0.154-0.207 0.275-0.362 0.344-0.455 0.206-1.088 0.22-1.088 0.22-0.855 0.037-1.303-0.121-1.516-0.237-0.098-0.055-0.169-0.151-0.188-0.264l-0-0.002c-0.074-0.384 0.198-0.432 0.209-0.434v0c-0.159-0.194-0.256-0.446-0.256-0.719 0-0.131 0.022-0.257 0.063-0.374 0.158-0.49 0.597-0.751 0.917-1.006s0.391-0.512 0.391-0.513v0l0.063-0.43c0.033 0.029 0.076 0.046 0.124 0.046 0.019-0 0.038-0.003 0.055-0.008 0.028-0.009 0.053-0.024 0.074-0.043l-0 0 0.084 0.413s0.074 0.277 0.5 0.516c0.355 0.198 0.723 0.489 0.907 0.967 0.218 0.567-0.11 1.027-0.113 1.032v0c0.084 0.054 0.146 0.134 0.176 0.23 0.020 0.070 0.009 0.157-0.040 0.262zM10.288 13.129c0 0 0 0 0 0 0 0.059-0.027 0.111-0.069 0.145-0.020 0.017-0.043 0.029-0.069 0.036-0.017 0.005-0.034 0.007-0.052 0.007-0.104 0-0.189-0.085-0.189-0.189 0-0.086 0.058-0.159 0.137-0.182 0.017-0.005 0.034-0.008 0.053-0.008h0.016c0.097 0.008 0.173 0.089 0.173 0.188 0 0 0 0 0 0.001zM8.706 20.162c0.022 0.019 0.045 0.038 0.070 0.056zM14.2 27.958l0.159 1.042 0.552 0.248 1.12-0.961 0.324 0.214 0.359-0.205-0.046-0.052-0.316 0.185-0.32-0.279-0.72 0.572-0.445 0.338 0.027-0.881-0.587-0.347-0.106 0.125zM12.188 21.169l0.198 7.497c0.012 0.445 0.008 0.866 0.070 1.306v0s0.194-0.188 0.512-0.757c0.1-0.179-0.164-7.739-0.164-7.739l-0.096-0.073 0.083-0.294 0.005-0.24c-0.059 0.030-0.127 0.049-0.2 0.054-0.088-0.003-0.409-0.074-0.409-0.074zM8.105 27.38l-0.010 2.935s-0.197 0.328-0.855 0.303v-3.15s0.448 0.072 0.865-0.089zM5.268 26.4l0.215 3.711-0.698 0.065-0.138-3.937s0.618-0.088 0.707-0.23-0.104 0.073-0.086 0.391zM8.024 20.992l0.023 5.248s-0.146-0.703-0.547-1.119c-0.297-0.365-0.454 0.331-0.401-0.581 0.086-1.479 0.039-4.722 0.039-4.722s1.002 0.536 1.073 0.674c0-0.001-0.186 0.314-0.186 0.501zM5.482 20.889l0.098 4.76 0.082 0.116 0.066 0.012c0.153-0.162 0.324-0.305 0.509-0.428l-0.067-3.968 0.077-0.022-0.022-0.814zM17.488 27.534l0.041-2.515s0.016-0.45-0.291-0.439c0 0 0.177-0.078 0.257 0.082 0.047 0.093 0.077 0.202 0.084 0.318l0.053-0.011s-0.018-0.422-0.249-0.471c0 0 0.284-0.039 0.284 0.426h0.107s-0.004-0.512-0.36-0.512-0.729 0.654-0.672 1.076c0 0 0.039-0.65 0.378-0.816 0.155-0.071 0.262 0.228 0.24 0.513s-0.058 2.344-0.058 2.344l0.045 0.005 0.071-2.477s0.022-0.426-0.267-0.426c0 0 0.187-0.067 0.267 0.12s0.049 0.62 0.049 0.62l-0.062 2.132zM17.579 27.544l0.053-2.389-0.076-0.031-0.031 2.38 0.053 0.040zM17.73 27.53l0.035-1.826 0.34-0.25-0.323 0.164v-0.356l0.319-0.245-0.319 0.182v-0.098l-0.116-0.022v2.424l0.064 0.026zM16.347 26.049v2.38l-0.31-0.279v-2.227l0.318 0.118zM16.189 26.003l0.166 0.089 0.359-0.243-0.359 0.19-0.166-0.036zM16.189 26.431l0.166 0.089 0.359-0.243-0.359 0.19-0.166-0.035zM14.897 21.241l0.013 6.939-0.605-0.347-0.071-6.855 0.663 0.263zM12.968 21.187s0.159-0.205 0.378-0.080c0.175 0.099 0.171 0.421 0.161 0.548-0.003 0.045-0.005 0.089-0.004 0.134l0.043 3.828h-0.078l-0.012-3.847c0-0.031 0-0.061 0-0.091 0.008-0.157 0.001-0.767-0.489-0.492zM16.469 23.447c0.32 0.159 0.533 0.082 0.76-0.031 0.203-0.101 0.168-0.353 0.121-0.484s-0.121 0.022-0.275 0.070c-0.117 0.035-0.251 0.055-0.389 0.055-0.026 0-0.052-0.001-0.077-0.002-0.085-0.011-0.398 0.22-0.139 0.392zM2.853 21.63s-0.078 0.415 0.059 0.546 0.184 0.16 0.516 0.071 0.439-0.083 0.225 0.089-0.674 0.279-0.853 0.119-0.148-0.386-0.119-0.528 0.178-0.348 0.171-0.297zM1.251 24.9s-0.676-0.030-0.741-0.291 0.047-0.605 0.279-0.884 0.677-0.641 0.689-0.552-0.179 0.32-0.333 0.474-0.339 0.178-0.339 0.415 0.083 0.386 0.255 0.474 0.333 0.403 0.191 0.362zM3.209 23.251s-0.142 0.338 0.22 0.362 0.552-0.041 0.872 0.219 0.634 0.332 0.688 0.237-0.32-0.86-0.718-1.148-0.457-0.222-0.457-0.222-0.065-0.018-0.047 0.089 0.012 0.237-0.047 0.302-0.427 0.22-0.51 0.16zM2.821 22.922s-0.489 0.747-0.543 1.157-0.045 0.898 0.31 1.148 0.747 0.31 1.255 0.302 1.103-0.071 1.21-0.338-0.249-0.969-0.16-1.032 0.463 0.81 0.569 1.237-0.208 0.426-0.789 0.463-2.182 0.036-2.86-0.418-0.463-0.872-0.107-1.395 0.962-1.024 1.114-1.122zM1.569 20.215l0.555 0.19 0.005 0.074-0.559-0.271 0.103 2.857-0.299 0.133-0.223-4.246s-0.061-0.134 0.119-0.1l0.179 0.033 0.145-0.047-0.051 0.394 0.030 0.104-0.19 0.14 0.059 0.155 0.036 0.025 0.048 0.052 0.022 0.543zM4.893 21.437l0.649 0.293 0.707-0.369-0.698 0.267-0.658-0.191zM4.857 20.76l0.65 0.294 0.707-0.369-0.698 0.267-0.658-0.191zM3.843 19.521s-0.181-0.261-0.32-0.228-0.194 0.169-0.202 0.264 0.068 0.391 0.261 0.46c-0.112-0.090-0.183-0.227-0.183-0.38 0-0.020 0.001-0.039 0.003-0.058 0.034-0.276 0.257-0.303 0.44-0.057zM4.003 19.82s0.024 0.495-0.344 0.374c0 0 0.155 0.11 0.279-0.015s0.131-0.386 0.131-0.386zM16.347 18.746s0.181-0.261 0.32-0.228 0.194 0.169 0.202 0.264-0.068 0.391-0.261 0.46c0.113-0.090 0.184-0.227 0.184-0.381 0-0.019-0.001-0.038-0.003-0.057-0.037-0.276-0.259-0.303-0.442-0.057zM16.186 19.045s-0.024 0.495 0.344 0.374c0 0-0.155 0.11-0.279-0.015s-0.131-0.386-0.131-0.386zM2.731 18.327c-0.596 0.16-0.636 1.166-0.636 1.166l0.134 0.053 0.049 0.022v0.146l-0.189 0.080-0.607-0.174 0.018 0.007 0.591 0.227 0.212 3.436 0.082-0.067-0.205-3.398 0.062-0.022 0.191 3.403 0.062-0.080s-0.186-3.385-0.191-3.527c-0.002-0.030-0.004-0.065-0.004-0.1 0-0.273 0.078-0.528 0.214-0.743 0.316-0.531 0.868-0.39 1.108-0.296-0.244-0.091-0.627-0.126-0.955 0.199-0.388 0.383-0.32 0.992-0.32 0.992l0.203 3.417 0.049-0.071-0.187-3.377s-0.054-0.552 0.316-0.961c0.504-0.489 1.163 0.003 1.22 0.046-0.052-0.034-0.612-0.39-1.063-0.095-0.474 0.31-0.431 0.983-0.431 0.983l0.209 3.345 0.054-0.039s-0.218-2.651-0.218-3.294 0.356-0.916 0.356-0.916c0.93-0.549 1.775 0.7 1.822 0.771-0.613-1.107-1.349-1.294-1.943-1.134zM2.224 19.499l-0.062-0.024c0.122-1.299 1.044-1.157 1.044-1.157-0.999 0.049-0.981 1.181-0.981 1.181zM20.137 19.782s-0.049-0.36-0.265-0.498c-0.198-0.126-0.314-0.062-0.353-0.107s-0.018 0.060-0.16 0.149-0.138 0.172-0.138 0.172 0.138-0.143 0.214-0.165c0.043-0.011 0.077-0.040 0.093-0.079 0.010-0.002 0.022-0.002 0.034-0.002 0.084 0 0.165 0.018 0.237 0.051 0.194 0.099 0.265 0.35 0.273 0.445 0.003 0.019 0.019 0.033 0.038 0.033 0 0 0 0 0 0zM19.203 19.795s0.138-0.24 0.36-0.253 0.338 0.258 0.352 0.431 0 0.463 0 0.463l-0.084 2.34 0.009 0.418-0.009 0.067-0.033-0.007-0.052 0.033-0.030-0.024-0.055 0.045-0.033-0.030-0.067 0.059-0.090-0.101-0.095-0.006 0.065-3.143s-0.030-0.124-0.119-0.136-0.128 0.007-0.12-0.154zM17.674 18.892l-0.018 4.768 0.059 0.048 0.030-4.787-0.071-0.029zM17.936 18.963v0.729h-0.090l-0.012 4.107-0.089-0.069 0.035-4.047-0.012-0.65h0.077l0.090-0.071zM17.015 20.26c-0.119 0.047-0.202 0.162-0.202 0.295 0 0.003 0 0.006 0 0.009v1.779l-0.088 0.018s-0.030-1.664 0-1.769 0.107-0.352 0.291-0.332zM16.27 22.735v-2.029s0.017-0.51 0.243-0.433c0 0-0.282-0.113-0.321 0.391v2.105zM15.766 23.064l0.030-1.81s-0.018-0.398 0.178-0.446c0 0-0.226 0.004-0.261 0.413s0 1.843 0 1.843zM14.208 20.302l0.026 0.676 0.663 0.263-0.009-0.752-0.681-0.205zM15.572 21.243v1.92l-0.078 0.041v-1.961h0.078zM15.586 18.917s0.56-1.503 1.53-1.388c0 0 0.641 0.071 0.747 1.148l-0.062 0.098s-0.071-1.641-1.281-1.076c0 0 1.054-0.581 1.25 1.099l-0.093 0.049s0.036-1.45-1.090-1.117c0 0 1.054-0.378 1.046 1.392s-0.027 4.537-0.027 4.537l-0.067-0.027 0.039-4.511s0.113-1.738-1.145-1.269c0 0 1.115-0.451 1.079 1.263s-0.024 4.502-0.024 4.502l-0.071-0.024 0.024-4.798s-0.036-1.109-0.937-0.919c0 0.002-0.533 0.239-0.919 1.041zM14.964 19.984s0.083-0.724 0.296-1.198 0.119-0.368-0.148-0.332-0.148-0.174-0.078-0.365-0.415 0.294-0.426 0.863 0.327 1.235 0.356 1.032zM15.399 17.273s-0.56 0.498-0.916 1.628c0 0-0.027 0.222-0.249 0.267s-1.14 0.215-1.258 0.285-0.84 0.472-1.046-0.151-0.174-0.836-0.162-1.023-0.096-1.067 0.18-1.255 0.418-0.513 0.853-0.492 1.343 0.243 1.806 0.386 1.114 0.116 0.794 0.356zM8.674 18.287v1.173s-0.827-0.302-1.169-0.753-0.119-0.397-0.071-1.014-0.892-0.946-1.496-0.946-1.924 0.368-2.054 0.344 0.689-0.636 0.962-0.751 0.726-0.023 0.961 0.194 1.472 0.2 2.053 0.864 0.715 0.357 0.715 0.357 0.099 0.295 0.099 0.533zM5.32 16.233s-0.222-0.418 0.045-0.828c0.245-0.366 0.484-0.682 0.742-0.983 0.050-0.048-0.092 0.53-0.288 0.752s-0.24 0.421-0.233 0.543-0.125 0.623-0.267 0.515zM3.078 15.298l0.081 1.459s0.071 0.124 0.045 0.233c-0.006 0.034-0.009 0.073-0.009 0.114 0 0.051 0.006 0.101 0.016 0.149s0.305 0.013 0.527-0.094 1.325-0.587 1.434-0.65 0.194-0.036 0.133-0.409 0.027-0.489 0.107-0.614c0.050-0.082 0.092-0.176 0.122-0.276s0.082-0.225-0.709-0.112-0.814 0.116-0.896-0.131-0.848 0.332-0.848 0.332zM3.015 14.347s0.217-0.352 0.567-0.565 0.372-0.382 0.372-0.417 0.113 0.214 0.249 0.202 0.379-0.059 0.7 0.107 0.575 0.49 0.629 0.62c-0.219-0.092-0.473-0.146-0.74-0.146-0.193 0-0.379 0.028-0.555 0.080-0.397 0.11-0.738 0.357-0.968 0.688-0.174 0.258-0.228 0.513-0.311 0.501s-0.030-0.136-0.033-0.251c0.006-0.112 0.019-0.217 0.041-0.319s0.079-0.155 0.039-0.273-0.046-0.134 0.009-0.226zM12.976 14.046s0.069-0.312 0.527-0.584 0.659-0.119 0.802-0.185 0.254-0.159 0.258-0.217 0.053 0.121 0.107 0.205 0.659 0.369 0.876 0.601 0.569 0.694 0.608 0.85v0.191s-0.008 0.884-0.067 0.771-0.876-0.991-1.19-1.163-0.493-0.278-0.722-0.321c-0.273-0.052-0.552-0.152-0.734-0.152-0.207 0.001-0.485 0.060-0.465 0.004zM11.763 16.532s1.119-0.261 1.267-0.492 0.018-0.646 0.184-0.878 0.534-0.065 0.534-0.065 0.047 0.012-0.071-0.184-0.629-0.86-1.127-1.163l-0.178-0.131-0.024 0.243s0.078 0.184-0.426 0.433-0.634 0.237-0.634 0.237 0.404 0.391 0.441 0.676 0.074 0.706-0.133 0.984c-0 0 0.223 0.101 0.167 0.338zM6.813 13.75s-0.461 0.374-0.639 0.943-0.053 0.836 0.32 0.836 0.552 0.765 1.263 1.121c0 0 0.78 0.356 0.814 0.062s0.033-0.138 0.033-0.138c-0.005-0.014-0.007-0.030-0.007-0.047 0-0.034 0.011-0.066 0.030-0.091 0.042-0.049 0.090-0.092 0.144-0.127s-0.204-0.318-0.199-0.553-0.030-0.436 0.155-0.729l0.18-0.295s-1.438-0.039-1.923-0.476c0 0.001-0.213-0.119-0.17-0.506zM18.832 12.529s-0.518 0.279-1.041 0.027-0.847-0.553-1.186-0.504-0.437 0.15-0.334-0.027 0.367-0.447 0.803-0.755c0 0 0.129-0.098 0.124 0.116s-0.011 0.226 0.113 0.22 0.16-0.13 0.277-0.285 0.3-0.097 0.477 0.011 0.775 0.429 0.898 0.999-0.129 0.199-0.129 0.199zM18.034 11.315s-0.34-0.129-0.34 0.043-0.124 0.236-0.032 0.478 0.448 0.204 0.485 0.376-0.226 0.494 0.097 0.494 0.755-0.204 0.717-0.376-0.199-0.613-0.927-1.015zM2.825 13.273s-0.526 0.285-1.058 0.028-0.86-0.564-1.205-0.515-0.444 0.155-0.34-0.028 0.372-0.456 0.817-0.771c0 0 0.131-0.101 0.126 0.119s-0.011 0.23 0.116 0.225 0.164-0.131 0.279-0.29 0.305-0.099 0.485 0.012 0.786 0.438 0.912 1.019-0.131 0.203-0.131 0.203zM2.014 12.035s-0.345-0.131-0.345 0.044-0.126 0.241-0.033 0.488 0.455 0.208 0.493 0.384-0.23 0.504 0.098 0.504 0.767-0.208 0.729-0.384-0.202-0.625-0.942-1.035zM11.583 15.482s-0.569 0.31-1.145 0.030-0.93-0.611-1.305-0.557-0.481 0.166-0.368-0.030 0.403-0.494 0.884-0.834c0 0 0.142-0.109 0.136 0.128s-0.012 0.249 0.124 0.243 0.178-0.142 0.302-0.314 0.329-0.107 0.525 0.012 0.853 0.474 0.988 1.103-0.142 0.219-0.142 0.219zM10.705 14.141s-0.374-0.142-0.374 0.047-0.136 0.261-0.036 0.528 0.492 0.226 0.534 0.415-0.249 0.546 0.107 0.546 0.83-0.226 0.789-0.415-0.219-0.676-1.020-1.121zM16.186 12.285c-0.005 0.025-0.008 0.055-0.008 0.084 0 0.191 0.124 0.353 0.296 0.41 0.374 0.141 0.401 0.249 0.794 0.206s0.823 0.091 1.163-0.070 0.489-0.463 0.511-0.479 0.091 0.457-0.039 0.614-0.236 0.093-0.502 0.167-0.705-0.005-0.764 0.113-0.188 0.102-0.436 0-0.382-0.151-0.646-0.188-0.484-0.046-0.479-0.292-0.003-0.359 0.109-0.564zM0.195 13.048c-0.005 0.025-0.009 0.055-0.009 0.085 0 0.189 0.123 0.35 0.294 0.405 0.372 0.14 0.398 0.247 0.788 0.204s0.817 0.091 1.153-0.069 0.486-0.459 0.507-0.475 0.091 0.454-0.039 0.609-0.235 0.091-0.496 0.165-0.698-0.005-0.758 0.112-0.187 0.102-0.433 0-0.379-0.15-0.641-0.187-0.481-0.046-0.475-0.29-0.004-0.356 0.108-0.559zM8.689 15.096c-0.006 0.028-0.009 0.060-0.009 0.093 0 0.21 0.137 0.389 0.326 0.452 0.413 0.156 0.442 0.272 0.875 0.227s0.907 0.101 1.281-0.078 0.54-0.51 0.564-0.528 0.101 0.504-0.041 0.676-0.261 0.101-0.552 0.184-0.775-0.006-0.842 0.124-0.208 0.113-0.481 0-0.421-0.166-0.712-0.208-0.534-0.051-0.528-0.322-0.005-0.395 0.119-0.62zM6.553 7.274s-0.059 0.659 0.807 0.788 0.842 0.059 1.459 0.142 0.452-0.119 1.198 0.059 1.482-0.012 1.755-0.226 0.476-0.716 0.517-0.832 0.124 0.168 0.124 0.465-0.012 1.174-0.474 1.293-0.32-0.085-0.901-0.095-0.924 0.059-1.020-0.059-0.095-0.237-0.426-0.024-0.581 0.166-0.866-0.012-0.426-0.391-0.83-0.249-0.439 0.474-0.664 0.426 0.095 0.285-0.131 0.214-0.807-0.64-0.676-1.4 0.129-0.491 0.129-0.491zM8.641 4.871s-0.166 0.237-0.676 0.557-1.091 1.163-1.139 1.234-0.131 0.31 0.249 0.178 0.119 0.32 0.522 0.202 0.522 0.083 0.937 0.249 0.415-0.486 0.853-0.226 1.447 0.498 2.064 0.664 0.984-0.271 0.783-0.736-0.759-1.281-1.91-1.91c-0.085-0.063-0.159-0.134-0.224-0.212-0.102-0.126-0.346 0.069-0.304 0.354s-0.682 0.379-0.801 0.012-0.272-0.462-0.355-0.367zM10.053 4.943s0.338 0.445 0.133 0.365-0.187 0.124-0.133 0.4 0.285 0.124 0.738 0.65 0.655 0.898 1.076 0.916 0.421-0.274 0.204-0.591-0.757-0.981-1.285-1.315-0.41-0.221-0.528-0.336-0.306-0.234-0.206-0.089zM14.328 20.324l0.569 0.24 0.48-0.262-0.489 0.187-0.56-0.165zM14.328 21.001l0.569 0.24 0.48-0.263-0.489 0.187-0.56-0.165zM3.010 14.789c-0.020 0.061-0.044 0.113-0.074 0.162l0.024 0.347s0-0.298 0-0.337 0.041-0.104 0.049-0.172z"></path>
</svg>
