<!-- Generated by IcoMoon.io -->
<svg version="1.1" xmlns="http://www.w3.org/2000/svg" width="32" height="32" viewBox="0 0 32 32">
<title>location</title>
<path d="M16 27.85l-0.45-0.55c-0.3-0.4-7.95-9.35-7.95-14.7 0-4.65 3.8-8.4 8.4-8.4s8.4 3.8 8.4 8.4c0 5.35-7.65 14.35-7.95 14.7l-0.45 0.55zM16 5.35c-4 0-7.2 3.25-7.2 7.2 0 4.2 5.55 11.35 7.2 13.4 1.65-2.050 7.2-9.15 7.2-13.4 0-3.95-3.2-7.2-7.2-7.2v0z"></path>
<path d="M16 15.8c-1.75 0-3.2-1.45-3.2-3.2s1.45-3.2 3.2-3.2 3.2 1.45 3.2 3.2-1.45 3.2-3.2 3.2v0zM16 10.6c-1.1 0-2 0.9-2 2s0.9 2 2 2c1.1 0 2-0.9 2-2s-0.9-2-2-2v0z"></path>
</svg>
