<!-- Generated by IcoMoon.io -->
<svg version="1.1" xmlns="http://www.w3.org/2000/svg" width="32" height="32" viewBox="0 0 32 32">
<title>papyrus</title>
<path d="M27.261 0h-17.108c-2.275 0-4.125 1.851-4.125 4.125v2.809c0 0.158 0.072 0.307 0.196 0.405l0.831 0.657-0.831 0.657c-0.124 0.098-0.196 0.247-0.196 0.405v2.208c0 0.158 0.072 0.307 0.196 0.405l0.831 0.657-0.831 0.657c-0.124 0.098-0.196 0.247-0.196 0.405v11.083h-4.898c-0.285 0-0.516 0.231-0.516 0.516v2.887c0 2.275 1.851 4.125 4.125 4.125h17.108c2.275 0 4.125-1.851 4.125-4.125v-6.618c0-0.164-0.078-0.318-0.21-0.416l-0.799-0.588 0.813-0.642c0.124-0.098 0.196-0.247 0.196-0.405v-11.677h4.898c0.285 0 0.516-0.231 0.516-0.516v-2.887c-0-2.275-1.851-4.125-4.125-4.125zM30.354 6.497h-4.382v-0.567c0-0.71 0.578-1.289 1.289-1.289 0.285 0 0.516-0.231 0.516-0.516s-0.231-0.516-0.516-0.516c-1.28 0-2.321 1.041-2.321 2.321v13.025l-1.148 0.907c-0.126 0.1-0.199 0.253-0.196 0.414s0.080 0.311 0.21 0.407l1.134 0.835v6.357c0 1.706-1.388 3.093-3.093 3.093h-17.108c-1.706 0-3.093-1.388-3.093-3.093v-2.371h17.782v0.567c0 1.28 1.041 2.321 2.321 2.321 0.285 0 0.516-0.231 0.516-0.516s-0.231-0.516-0.516-0.516c-0.71 0-1.289-0.578-1.289-1.289v-1.083c0-0.285-0.231-0.516-0.516-0.516h-12.884v-10.833l1.148-0.907c0.124-0.098 0.196-0.247 0.196-0.405s-0.072-0.307-0.196-0.405l-1.148-0.907v-1.708l1.148-0.907c0.124-0.098 0.196-0.247 0.196-0.405s-0.072-0.307-0.196-0.405l-1.148-0.907v-2.558c0-1.706 1.388-3.093 3.093-3.093h17.108c1.706 0 3.093 1.388 3.093 3.093v2.371z"></path>
</svg>
