<!-- Generated by IcoMoon.io -->
<svg version="1.1" xmlns="http://www.w3.org/2000/svg" width="32" height="32" viewBox="0 0 32 32">
<title>time-passing</title>
<path d="M0.536 16.536c0.294 0 0.533-0.238 0.533-0.533 0-8.236 6.7-14.936 14.936-14.936 3.375 0 6.603 1.128 9.229 3.201h-2.828c-0.294 0-0.533 0.238-0.533 0.533s0.239 0.533 0.533 0.533h4.222c0.035 0.003 0.068 0.004 0.103 0h0.475v-4.801c0-0.295-0.239-0.533-0.533-0.533s-0.533 0.238-0.533 0.533v3.099c-2.857-2.348-6.411-3.633-10.134-3.633-8.824 0-16.003 7.179-16.003 16.003 0 0.295 0.239 0.533 0.533 0.533z"></path>
<path d="M16.005 4.267c-6.471 0-11.735 5.264-11.735 11.735s5.264 11.735 11.735 11.735 11.735-5.264 11.735-11.735-5.264-11.735-11.735-11.735zM16.005 26.671c-5.883 0-10.668-4.786-10.668-10.668s4.786-10.668 10.668-10.668 10.668 4.786 10.668 10.668-4.786 10.668-10.668 10.668z"></path>
<path d="M16.005 8.001c0.294 0 0.533-0.238 0.533-0.533v-1.067c0-0.295-0.239-0.533-0.533-0.533s-0.533 0.238-0.533 0.533v1.067c0 0.295 0.239 0.533 0.533 0.533z"></path>
<path d="M16.005 24.004c-0.294 0-0.533 0.238-0.533 0.533v1.067c0 0.295 0.239 0.533 0.533 0.533s0.533-0.238 0.533-0.533v-1.067c0-0.295-0.239-0.533-0.533-0.533z"></path>
<path d="M24.54 16.536h1.067c0.294 0 0.533-0.238 0.533-0.533s-0.239-0.533-0.533-0.533h-1.067c-0.294 0-0.533 0.238-0.533 0.533s0.239 0.533 0.533 0.533z"></path>
<path d="M7.471 15.469h-1.067c-0.294 0-0.533 0.238-0.533 0.533s0.239 0.533 0.533 0.533h1.067c0.294 0 0.533-0.238 0.533-0.533s-0.239-0.533-0.533-0.533z"></path>
<path d="M16.539 13.411v-2.743c0-0.295-0.239-0.533-0.533-0.533s-0.533 0.238-0.533 0.533v2.743c-0.918 0.238-1.6 1.066-1.6 2.058 0 0.395 0.115 0.76 0.302 1.077l-4.414 4.414c-0.209 0.209-0.209 0.546 0 0.754 0.104 0.104 0.241 0.156 0.377 0.156s0.273-0.052 0.377-0.156l4.414-4.414c0.317 0.188 0.682 0.302 1.077 0.302 1.177 0 2.134-0.957 2.134-2.134 0-0.992-0.683-1.819-1.6-2.058zM16.005 16.536c-0.588 0-1.067-0.478-1.067-1.067s0.478-1.067 1.067-1.067 1.067 0.478 1.067 1.067-0.478 1.067-1.067 1.067z"></path>
<path d="M6.345 28.090c-0.176 0.234-0.128 0.57 0.112 0.746 0.091 0.069 0.203 0.101 0.315 0.101 0.165 0 0.325-0.069 0.432-0.213 0.171-0.234 0.123-0.57-0.112-0.746s-0.57-0.128-0.747 0.112z"></path>
<path d="M3.859 24.681c-0.171-0.234-0.507-0.293-0.747-0.122-0.24 0.176-0.293 0.507-0.123 0.746 0.107 0.145 0.267 0.224 0.437 0.224 0.107 0 0.213-0.032 0.309-0.101 0.24-0.171 0.293-0.507 0.123-0.747z"></path>
<path d="M4.067 25.844c-0.219 0.197-0.24 0.533-0.043 0.752 0.101 0.123 0.251 0.182 0.4 0.182 0.123 0 0.251-0.043 0.352-0.133 0.219-0.197 0.24-0.533 0.043-0.752-0.192-0.224-0.528-0.24-0.752-0.048z"></path>
<path d="M5.902 26.991c-0.213-0.197-0.555-0.181-0.752 0.033-0.203 0.218-0.187 0.555 0.032 0.757 0.101 0.091 0.229 0.139 0.357 0.139 0.144 0 0.288-0.059 0.395-0.171 0.197-0.219 0.187-0.555-0.032-0.752 0-0.006 0-0.006 0-0.006z"></path>
<path d="M3.027 23.385c-0.005 0-0.005 0-0.005 0-0.144-0.256-0.469-0.347-0.725-0.197-0.256 0.145-0.347 0.469-0.197 0.725 0.096 0.17 0.277 0.267 0.464 0.267 0.085 0 0.181-0.021 0.261-0.069 0.256-0.144 0.347-0.47 0.203-0.725z"></path>
<path d="M31.443 17.134c0.011 0 0.016 0 0.021 0 0.288 0 0.523-0.23 0.533-0.512 0.011-0.299-0.219-0.545-0.512-0.555-0.293-0.011-0.544 0.219-0.555 0.512s0.218 0.544 0.512 0.555z"></path>
<path d="M0.675 18.131c0.293-0.033 0.507-0.294 0.475-0.587s-0.293-0.507-0.587-0.475c-0.293 0.027-0.507 0.293-0.475 0.581 0.027 0.277 0.261 0.48 0.528 0.48 0.021 0.001 0.037 0.001 0.059 0.001z"></path>
<path d="M0.974 19.699c0.288-0.059 0.475-0.341 0.411-0.629-0.059-0.288-0.341-0.475-0.629-0.411-0.288 0.059-0.475 0.342-0.411 0.63 0.048 0.251 0.272 0.421 0.517 0.421 0.037 0 0.075 0 0.112-0.011z"></path>
<path d="M2.328 22.004c-0.117-0.267-0.432-0.389-0.704-0.272-0.267 0.117-0.389 0.432-0.272 0.704 0.091 0.197 0.283 0.321 0.491 0.321 0.069 0 0.144-0.016 0.213-0.049 0.266-0.117 0.389-0.432 0.272-0.704z"></path>
<path d="M1.778 20.563c-0.085-0.283-0.389-0.437-0.667-0.347-0.283 0.091-0.437 0.389-0.347 0.673 0.075 0.224 0.283 0.368 0.507 0.368 0.053 0 0.112-0.005 0.165-0.021 0.278-0.091 0.433-0.395 0.341-0.672z"></path>
<path d="M15.717 30.933c-0.293-0.006-0.539 0.229-0.544 0.522-0.005 0.299 0.229 0.539 0.523 0.545 0.005 0 0.011 0 0.011 0 0.293 0 0.528-0.23 0.533-0.523s-0.229-0.539-0.523-0.544z"></path>
<path d="M27.81 25.146c-0.181 0.229-0.139 0.566 0.091 0.747 0.101 0.075 0.213 0.112 0.331 0.112 0.155 0 0.315-0.069 0.421-0.209 0.181-0.229 0.139-0.565-0.096-0.746s-0.565-0.139-0.747 0.096z"></path>
<path d="M24.449 28.314c-0.24 0.165-0.304 0.501-0.133 0.741 0.101 0.149 0.267 0.229 0.437 0.229 0.107 0 0.208-0.027 0.304-0.091 0.24-0.165 0.304-0.501 0.133-0.741-0.165-0.245-0.496-0.304-0.741-0.139z"></path>
<path d="M25.676 27.375c-0.224 0.192-0.251 0.528-0.059 0.752 0.107 0.123 0.256 0.187 0.405 0.187 0.123 0 0.245-0.043 0.347-0.128 0.224-0.192 0.251-0.528 0.059-0.752s-0.528-0.251-0.752-0.059z"></path>
<path d="M29.426 23.705c-0.251-0.155-0.581-0.075-0.736 0.171-0.155 0.251-0.080 0.581 0.171 0.736 0.091 0.054 0.187 0.080 0.283 0.080 0.176 0 0.352-0.085 0.453-0.251 0.155-0.25 0.081-0.581-0.171-0.736z"></path>
<path d="M26.802 26.314c-0.208 0.213-0.197 0.549 0.016 0.752 0.101 0.101 0.235 0.149 0.368 0.149 0.139 0 0.283-0.053 0.384-0.165 0.203-0.213 0.197-0.549-0.016-0.752s-0.55-0.197-0.752 0.017z"></path>
<path d="M31.394 17.661c-0.288-0.042-0.56 0.166-0.603 0.454-0.043 0.293 0.16 0.56 0.453 0.603 0.027 0.005 0.053 0.005 0.075 0.005 0.261 0 0.491-0.192 0.528-0.458 0.043-0.289-0.16-0.561-0.453-0.604z"></path>
<path d="M31.144 19.24c-0.288-0.069-0.576 0.107-0.651 0.389-0.069 0.288 0.107 0.576 0.389 0.651 0.043 0.011 0.085 0.016 0.128 0.016 0.24 0 0.459-0.165 0.517-0.405 0.075-0.288-0.102-0.576-0.384-0.651z"></path>
<path d="M8.377 28.837c-0.256-0.149-0.581-0.069-0.731 0.187-0.155 0.251-0.069 0.581 0.181 0.731 0.085 0.053 0.181 0.075 0.272 0.075 0.181 0 0.357-0.091 0.459-0.261 0.155-0.251 0.070-0.577-0.181-0.731z"></path>
<path d="M30.727 20.787c-0.277-0.101-0.587 0.043-0.683 0.32-0.101 0.278 0.037 0.582 0.315 0.683 0.059 0.021 0.123 0.033 0.181 0.033 0.219 0 0.427-0.133 0.501-0.352 0.102-0.278-0.037-0.582-0.315-0.683z"></path>
<path d="M30.152 22.281c-0.261-0.128-0.587-0.021-0.715 0.245s-0.016 0.587 0.245 0.715c0.075 0.037 0.155 0.054 0.235 0.054 0.197 0 0.389-0.112 0.48-0.299 0.128-0.267 0.021-0.587-0.245-0.715z"></path>
<path d="M14.176 30.826c-0.293-0.037-0.555 0.17-0.592 0.464s0.171 0.56 0.464 0.592v0.006c0.021 0 0.043 0 0.064 0 0.267 0 0.496-0.197 0.528-0.47 0.037-0.293-0.171-0.555-0.464-0.592z"></path>
<path d="M11.173 30.138c-0.277-0.097-0.581 0.048-0.677 0.331-0.096 0.277 0.053 0.581 0.331 0.677 0.059 0.016 0.117 0.027 0.176 0.027 0.219 0 0.427-0.139 0.501-0.357 0.096-0.283-0.053-0.587-0.331-0.677z"></path>
<path d="M12.655 30.56c-0.288-0.064-0.571 0.112-0.64 0.4-0.064 0.288 0.117 0.576 0.4 0.64 0.043 0.011 0.080 0.011 0.123 0.011 0.24 0 0.464-0.165 0.517-0.411 0.069-0.288-0.112-0.576-0.4-0.64z"></path>
<path d="M9.743 29.562c-0.272-0.128-0.587-0.011-0.709 0.256s-0.011 0.587 0.256 0.709c0.075 0.033 0.149 0.048 0.224 0.048 0.203 0 0.395-0.112 0.485-0.309 0.123-0.267 0.011-0.582-0.256-0.704z"></path>
<path d="M18.79 30.677c-0.288 0.053-0.48 0.336-0.427 0.624 0.048 0.256 0.277 0.433 0.528 0.433 0.032 0 0.064 0 0.096-0.006 0.288-0.058 0.48-0.336 0.427-0.624-0.053-0.293-0.336-0.48-0.624-0.427z"></path>
<path d="M20.289 30.314c-0.283 0.079-0.443 0.379-0.357 0.661 0.069 0.23 0.283 0.379 0.512 0.379 0.048 0 0.101-0.006 0.155-0.021 0.283-0.085 0.443-0.385 0.357-0.667-0.086-0.277-0.384-0.437-0.667-0.352z"></path>
<path d="M21.745 29.792c-0.272 0.112-0.4 0.427-0.288 0.699 0.085 0.203 0.283 0.325 0.491 0.325 0.069 0 0.139-0.011 0.208-0.037 0.272-0.118 0.4-0.427 0.288-0.699-0.118-0.272-0.427-0.4-0.699-0.288z"></path>
<path d="M17.258 30.885c-0.293 0.027-0.512 0.283-0.485 0.576 0.021 0.278 0.256 0.491 0.533 0.491 0.011 0 0.027 0 0.043 0v-0.005c0.293-0.021 0.512-0.277 0.485-0.571-0.021-0.293-0.282-0.512-0.576-0.491z"></path>
<path d="M23.137 29.125c-0.261 0.139-0.357 0.464-0.213 0.721 0.096 0.181 0.277 0.282 0.469 0.282 0.085 0 0.171-0.021 0.251-0.069 0.261-0.139 0.357-0.464 0.213-0.72-0.138-0.261-0.464-0.357-0.72-0.213z"></path>
</svg>
