<!-- Generated by IcoMoon.io -->
<svg version="1.1" xmlns="http://www.w3.org/2000/svg" width="32" height="32" viewBox="0 0 32 32">
<title>timer</title>
<path d="M3.051 17.414c0 7.144 5.805 12.949 12.949 12.949s12.949-5.805 12.949-12.949c0-3.547-1.439-6.797-3.771-9.129l1.017-1.017 0.471 0.471c0.198 0.198 0.447 0.298 0.719 0.298s0.521-0.099 0.719-0.298c0.397-0.397 0.397-1.042 0-1.439l-2.357-2.357c-0.397-0.397-1.042-0.397-1.439 0s-0.397 1.042 0 1.439l0.471 0.471-1.116 1.116c-1.885-1.389-4.143-2.257-6.623-2.456v-0.868h2.257c0.571 0 1.017-0.446 1.017-1.017s-0.447-1.017-1.017-1.017h-6.698c-0.571 0-1.017 0.447-1.017 1.017s0.447 1.017 1.017 1.017h2.406v0.868c-6.698 0.521-11.957 6.102-11.957 12.899zM16 6.499c6.028 0 10.94 4.912 10.94 10.94s-4.912 10.94-10.94 10.94c-6.028 0-10.94-4.912-10.94-10.94 0-6.053 4.912-10.94 10.94-10.94z"></path>
<path d="M16 18.257h4.341c0.571 0 1.017-0.447 1.017-1.017s-0.447-1.017-1.017-1.017h-3.324v-5.234c0-0.571-0.447-1.017-1.017-1.017s-1.017 0.447-1.017 1.017v6.276c0 0.546 0.447 0.992 1.017 0.992z"></path>
</svg>
