<?xml version="1.0" standalone="no"?>
<!DOCTYPE svg PUBLIC "-//W3C//DTD SVG 20010904//EN"
 "http://www.w3.org/TR/2001/REC-SVG-20010904/DTD/svg10.dtd">
<svg version="1.0" xmlns="http://www.w3.org/2000/svg"
 width="83.000000pt" height="83.000000pt" viewBox="0 0 83.000000 83.000000"
 preserveAspectRatio="xMidYMid meet">
<metadata>
Created by potrace 1.11, written by Peter Selinger 2001-2013
</metadata>
<g transform="translate(0.000000,83.000000) scale(0.100000,-0.100000)"
fill="#000000" stroke="none">
<path d="M334 800 c-152 -32 -275 -162 -304 -322 -20 -109 20 -250 93 -325 17
-18 35 -33 39 -33 17 0 6 46 -22 89 -51 80 -63 120 -64 206 0 66 5 90 26 137
70 151 238 234 398 196 42 -10 56 -18 58 -34 3 -17 -3 -20 -52 -20 -99 -2
-166 -64 -166 -156 0 -41 5 -54 33 -85 23 -25 39 -34 50 -30 23 9 21 33 -3 57
-47 47 -29 129 35 156 46 19 63 18 110 -6 22 -11 41 -20 43 -20 1 0 2 35 0 77
l-3 77 -48 18 c-57 21 -166 30 -223 18z"/>
<path d="M670 679 c0 -18 13 -49 30 -75 94 -135 78 -309 -39 -425 -82 -82
-135 -104 -246 -104 -145 0 -135 -23 -135 295 l0 270 35 0 c23 0 37 6 44 19
10 17 5 19 -44 26 -103 12 -95 37 -95 -311 l0 -305 48 -22 c58 -26 183 -35
250 -17 180 49 292 199 292 389 -1 86 -25 157 -80 234 -42 59 -60 67 -60 26z"/>
<path d="M450 605 c-9 -10 -9 -19 -2 -27 5 -7 15 -30 20 -51 22 -79 -25 -148
-115 -168 -39 -9 -53 -17 -53 -30 0 -24 17 -28 75 -14 71 16 92 30 126 83 36
56 38 116 8 179 -22 45 -38 53 -59 28z"/>
<path d="M535 404 c-20 -20 -19 -31 4 -39 40 -12 71 -56 71 -99 0 -53 -21 -82
-69 -97 -71 -21 -144 8 -176 72 -17 31 -55 41 -55 14 0 -26 27 -71 59 -98 44
-37 94 -50 158 -42 46 6 61 13 93 45 77 77 62 181 -35 238 -31 19 -36 19 -50
6z"/>
</g>
</svg>
