<?xml version="1.0" standalone="no"?>
<!DOCTYPE svg PUBLIC "-//W3C//DTD SVG 20010904//EN"
 "http://www.w3.org/TR/2001/REC-SVG-20010904/DTD/svg10.dtd">
<svg version="1.0" xmlns="http://www.w3.org/2000/svg"
 width="826.000000pt" height="826.000000pt" viewBox="0 0 826.000000 826.000000"
 preserveAspectRatio="xMidYMid meet">
<metadata>
Created by potrace 1.11, written by Peter Selinger 2001-2013
</metadata>
<g transform="translate(0.000000,826.000000) scale(0.100000,-0.100000)"
fill="#000000" stroke="none">
<path d="M3830 8205 c0 -8 6 -15 14 -15 8 0 16 7 20 15 4 10 -1 15 -14 15 -11
0 -20 -7 -20 -15z"/>
<path d="M3819 7320 c0 -3 -2 -14 -4 -25 -2 -11 -9 -49 -15 -85 -13 -74 -60
-164 -117 -226 -39 -41 -167 -144 -179 -144 -4 0 -15 -10 -25 -22 -11 -11 -19
-18 -19 -15 0 3 -34 -29 -76 -71 -173 -175 -267 -375 -259 -554 4 -91 7 -103
40 -167 21 -42 24 -56 14 -67 -16 -20 -16 -149 1 -139 6 3 10 -5 10 -19 0 -14
-4 -28 -10 -31 -13 -8 -13 -102 -1 -110 5 -3 10 -83 11 -178 5 -519 7 -634 13
-644 4 -7 10 -36 13 -65 5 -52 4 -54 -33 -83 -49 -38 -144 -134 -163 -165 -8
-13 -26 -37 -40 -54 -14 -17 -38 -48 -53 -69 -25 -33 -31 -36 -49 -26 -21 11
-148 7 -243 -8 -22 -3 -58 -7 -80 -7 -34 -1 -42 3 -60 32 -18 29 -24 32 -54
28 -19 -3 -66 -25 -105 -49 -67 -41 -71 -46 -69 -78 1 -19 4 -83 7 -144 3 -64
1 -104 -4 -95 -5 9 -11 74 -14 145 -4 72 -9 141 -12 155 -3 14 -7 35 -10 47
-2 12 0 24 5 27 5 3 7 32 5 63 -4 72 -9 98 -20 96 -5 -1 -29 -4 -54 -8 -25 -3
-63 -10 -85 -15 -22 -5 -62 -11 -90 -15 -27 -4 -61 -8 -75 -10 -14 -2 -95 -6
-180 -10 -136 -7 -172 -9 -227 -14 -15 -1 -10 -69 7 -101 12 -21 81 -59 110
-60 8 0 29 -10 45 -21 l30 -21 -35 6 c-25 4 -31 3 -20 -4 8 -5 26 -10 39 -10
14 0 50 -23 92 -61 58 -51 67 -64 59 -79 -12 -23 -13 -50 -1 -50 5 0 12 12 15
26 13 51 18 27 31 -151 l7 -90 -77 -73 c-42 -39 -80 -72 -84 -72 -5 0 -12 -7
-15 -16 -4 -9 -11 -12 -18 -7 -7 4 -21 9 -31 10 -22 4 -67 31 -88 55 -24 27
-31 22 -15 -11 17 -31 51 -57 90 -67 14 -3 26 -9 26 -12 0 -3 -17 -22 -38 -41
-34 -32 -102 -124 -102 -137 0 -3 -9 -18 -19 -33 -15 -21 -18 -39 -16 -86 2
-33 7 -107 10 -165 3 -58 7 -132 10 -165 2 -33 7 -105 10 -160 3 -55 7 -134
10 -175 3 -41 8 -118 11 -170 3 -52 7 -126 9 -165 2 -38 7 -117 11 -175 12
-192 13 -181 -18 -212 -30 -31 -38 -82 -17 -119 16 -31 29 -263 15 -277 -3 -2
-1 -14 4 -27 9 -25 17 -97 25 -230 16 -261 19 -290 39 -336 25 -60 121 -134
197 -152 23 -6 27 -13 32 -57 22 -183 104 -268 311 -319 165 -42 415 -45 666
-11 55 8 67 7 82 -8 42 -42 83 -65 153 -86 75 -23 120 -29 236 -29 117 0 201
20 239 56 l22 20 65 -33 c104 -51 279 -107 363 -116 147 -14 310 6 436 55 140
55 235 137 339 296 32 50 93 124 134 166 42 41 111 112 154 157 74 78 90 92
85 75 -1 -5 2 -30 6 -58 5 -27 10 -59 11 -70 5 -47 18 -121 22 -128 2 -4 20
-14 39 -22 19 -8 49 -22 68 -30 30 -13 35 -12 52 3 11 9 46 39 79 67 33 27 62
52 65 55 3 3 33 29 66 57 l61 53 39 -29 39 -28 45 24 45 24 0 56 0 56 55 30
c30 16 65 37 77 47 16 12 35 16 60 14 88 -10 98 -8 149 29 32 23 71 41 104 47
56 11 65 16 118 64 49 45 60 73 56 136 -2 30 -6 105 -9 165 -3 61 -7 136 -9
168 -3 49 -1 59 16 68 11 6 17 17 14 25 -5 13 29 87 70 149 l19 30 -31 -22
c-51 -36 -56 -34 -56 27 1 138 -1 133 45 161 23 15 51 31 62 36 27 14 95 26
95 17 0 -4 -25 -52 -55 -106 -58 -103 -62 -114 -43 -102 6 4 29 7 52 7 28 0
48 7 64 22 22 20 24 32 26 103 1 44 3 83 6 85 3 3 25 18 50 33 l45 29 -1 86
c-1 64 -6 93 -20 114 -13 20 -17 44 -16 89 1 33 4 177 7 319 4 191 8 262 18
271 8 8 12 36 11 75 -1 55 -5 65 -40 103 -21 24 -40 45 -43 48 -3 3 -33 37
-66 75 -33 39 -66 77 -75 85 -8 8 -46 51 -85 95 -38 44 -80 89 -93 101 -21 21
-22 54 -1 54 5 0 9 8 9 18 0 11 -7 7 -21 -16 -24 -37 -20 -36 -53 -18 l-26 13
22 17 c22 16 21 16 -10 1 -26 -13 -36 -13 -55 -3 -21 11 -21 12 -2 18 47 15
85 33 85 40 0 4 9 10 20 13 11 3 20 10 20 15 0 10 -84 -15 -146 -43 -31 -14
-78 -10 -68 6 3 5 -5 8 -18 8 -13 -1 -43 8 -68 19 -41 20 -42 21 -15 19 l30
-2 2 183 c2 197 -2 212 -51 212 -42 0 -47 -19 -49 -194 -1 -90 -5 -168 -9
-171 -6 -7 -66 17 -142 55 l-30 15 1 139 c1 76 -3 148 -7 160 -8 20 -9 20 -11
1 -1 -11 -3 -76 -5 -145 -1 -69 -3 -131 -3 -138 -1 -10 -7 -9 -30 2 -15 8 -32
12 -37 7 -5 -4 -43 -22 -84 -41 -41 -18 -130 -60 -198 -91 -95 -45 -127 -56
-145 -50 -12 5 -25 9 -29 10 -5 0 -9 1 -10 2 -4 1 -19 4 -143 34 -60 15 -116
29 -124 31 -8 3 7 20 40 43 83 60 125 122 134 196 3 22 -4 40 -25 67 -17 20
-30 39 -30 43 0 3 -18 29 -40 58 -22 29 -44 57 -48 62 -88 118 -179 213 -241
253 -28 18 -55 39 -76 59 -10 9 -10 23 -2 60 6 26 10 84 9 128 -10 476 -15
612 -21 625 -9 18 -6 89 7 145 6 27 5 52 -3 75 -10 29 -9 40 5 65 9 16 16 36
15 43 -2 6 -3 25 -4 40 0 16 -11 38 -22 51 -20 22 -21 24 -5 59 26 60 43 141
41 196 -10 231 -199 497 -477 671 -27 17 -48 33 -48 38 0 4 -6 7 -14 7 -20 0
-108 92 -134 141 -21 39 -62 184 -62 219 0 14 -10 16 -65 16 -36 -1 -65 -3
-66 -6z m-954 -3261 c11 -17 -1 -21 -15 -4 -8 9 -8 15 -2 15 6 0 14 -5 17 -11z
m-860 -29 c18 -20 18 -21 -2 -41 l-21 -21 -4 41 c-4 46 1 50 27 21z m2520
-197 c-4 -10 -9 -34 -12 -53 -3 -19 -11 -42 -18 -50 -8 -10 -11 -59 -10 -152
2 -134 1 -138 -21 -153 -13 -8 -25 -15 -27 -15 -1 0 -3 36 -2 81 0 86 0 86
-28 108 -16 12 -18 12 -15 0 2 -8 -3 -13 -10 -11 -8 1 -11 -2 -7 -8 4 -6 -5
-20 -19 -31 -14 -11 -26 -28 -26 -37 1 -16 2 -16 14 1 7 9 15 17 17 17 2 0 4
-40 4 -90 l0 -89 -83 -62 c-45 -34 -85 -59 -88 -56 -3 3 -7 64 -8 135 -3 143
-9 162 -57 162 -50 0 -55 -15 -52 -159 1 -72 0 -131 -2 -131 -2 0 -46 22 -97
49 -101 54 -93 42 -98 151 -3 66 -10 101 -20 95 -5 -3 -8 -42 -6 -86 2 -44 0
-82 -4 -84 -4 -3 -33 9 -64 26 l-56 31 0 74 c0 41 -4 74 -9 74 -5 0 -8 41 -7
90 1 58 -3 99 -11 113 -11 19 -13 13 -10 -46 2 -38 0 -70 -6 -74 -6 -3 -7 -1
-3 6 6 8 1 10 -17 6 -37 -10 -85 17 -152 85 l-58 59 124 -6 c98 -4 129 -9 150
-24 69 -49 176 -67 369 -64 85 2 169 6 185 10 17 4 35 8 40 9 68 14 147 57
169 92 19 28 42 33 31 7z m2194 -1395 c-17 -29 -35 -58 -40 -64 -5 -6 -6 -14
-2 -17 3 -4 1 -7 -5 -7 -6 0 -13 -8 -16 -17 -3 -10 -4 1 -2 24 2 24 0 46 -5
49 -11 6 -12 45 -1 42 12 -3 55 14 70 28 29 30 30 11 1 -38z m-529 -937 c0 -6
-4 -13 -10 -16 -5 -3 -10 1 -10 9 0 9 5 16 10 16 6 0 10 -4 10 -9z"/>
<path d="M4439 3743 c-13 -16 -12 -17 4 -4 16 13 21 21 13 21 -2 0 -10 -8 -17
-17z"/>
<path d="M3735 3739 c12 -19 150 -67 161 -56 3 2 -16 10 -42 16 -26 7 -65 20
-86 31 -21 10 -36 14 -33 9z"/>
<path d="M4387 3724 c-62 -34 -270 -53 -434 -40 -24 2 -43 0 -43 -4 0 -13 210
-18 305 -7 81 9 177 35 195 52 18 19 13 18 -23 -1z"/>
<path d="M4410 3624 c0 -8 5 -12 10 -9 6 4 17 -9 26 -27 l15 -33 -6 30 c-10
47 -45 77 -45 39z"/>
<path d="M3788 3588 c-7 -13 -13 -34 -15 -48 -2 -22 -1 -22 9 5 11 29 25 45
41 45 15 0 57 -53 65 -81 5 -20 11 -26 20 -20 33 20 -35 121 -82 121 -16 0
-30 -8 -38 -22z"/>
<path d="M4082 3565 c-22 -10 -38 -26 -48 -51 -8 -20 -13 -39 -10 -42 8 -7 36
18 36 33 0 18 34 45 58 45 28 0 72 -21 72 -34 0 -19 17 -39 28 -32 15 9 -6 66
-23 66 -7 0 -15 4 -17 8 -6 17 -63 20 -96 7z"/>
<path d="M6050 5771 c0 -5 7 -12 16 -15 14 -5 15 -4 4 9 -14 17 -20 19 -20 6z"/>
<path d="M5965 5731 c3 -5 1 -12 -5 -16 -6 -4 -8 -11 -5 -16 11 -17 23 -9 23
16 0 14 -5 25 -10 25 -5 0 -7 -4 -3 -9z"/>
<path d="M1758 5512 c-4 -12 -2 -25 4 -28 15 -10 19 1 10 26 l-9 24 -5 -22z"/>
<path d="M6033 5347 c-3 -5 2 -16 12 -24 11 -7 13 -13 6 -13 -7 0 -9 -5 -6
-10 4 -6 1 -9 -6 -8 -6 2 -14 -3 -17 -11 -3 -9 0 -11 9 -6 8 5 7 1 -3 -10 -13
-14 -14 -23 -6 -46 9 -25 13 -27 31 -18 20 9 21 9 4 -4 -11 -9 -14 -18 -8 -21
5 -4 12 -2 16 4 3 5 11 10 18 10 6 0 2 -6 -8 -14 -11 -8 -24 -12 -30 -9 -5 4
-7 3 -3 -2 9 -9 -9 -35 -23 -35 -5 0 -1 12 8 27 12 19 14 24 4 19 -10 -7 -12
-5 -7 5 4 8 1 6 -7 -3 -21 -27 -32 -22 -13 6 10 16 12 27 6 31 -6 4 -8 11 -5
16 4 5 0 9 -7 9 -8 0 -9 3 -3 8 6 4 11 15 12 25 1 34 3 38 12 33 5 -4 8 1 7 9
-3 22 -16 31 -16 11 0 -9 -4 -14 -10 -11 -6 3 -7 -1 -4 -10 4 -9 3 -15 -2 -13
-13 4 -54 -34 -48 -44 3 -4 1 -8 -5 -8 -15 0 -42 31 -36 41 4 5 1 9 -6 9 -8 0
-7 5 2 17 12 14 12 15 0 9 -10 -7 -12 -3 -6 14 5 16 4 21 -6 18 -8 -3 -14 -11
-14 -18 0 -7 -6 -15 -14 -18 -8 -3 -11 0 -7 7 12 18 -1 13 -29 -13 -27 -25
-17 -49 10 -26 9 7 15 8 15 2 0 -14 -25 -33 -33 -25 -4 3 -7 1 -7 -5 0 -7 -5
-12 -10 -12 -6 0 -10 7 -8 16 2 10 -4 19 -12 21 -13 4 -13 3 0 -6 14 -10 7
-16 -13 -12 -5 1 -6 -3 -2 -9 5 -9 -7 -14 -27 -11 -4 0 -4 -7 -1 -16 4 -10 2
-14 -4 -10 -10 6 -56 -48 -59 -71 -2 -10 1 -10 12 -1 7 6 12 15 9 19 -3 5 -1
11 5 15 5 3 10 2 10 -3 0 -6 7 -13 16 -16 8 -3 12 -2 9 3 -3 5 -1 12 5 16 5 3
10 -1 10 -9 0 -9 4 -16 10 -16 12 0 9 22 -5 33 -6 5 -1 6 10 4 11 -2 19 -8 18
-15 -2 -6 7 -16 18 -23 15 -8 19 -8 15 0 -9 15 7 14 22 -1 6 -6 19 -13 27 -15
8 -2 23 -5 33 -7 9 -3 19 -5 22 -5 3 -1 -2 -6 -10 -12 -13 -9 -12 -10 3 -5 9
3 17 0 17 -6 0 -6 3 -8 6 -5 4 4 1 13 -6 22 -7 8 -8 15 -3 15 15 0 32 -22 27
-35 -3 -7 2 -15 11 -19 9 -3 13 -2 10 4 -3 5 4 8 15 7 22 -1 27 -13 9 -19 -7
-2 -5 -9 5 -17 14 -12 16 -11 9 5 -6 17 -5 18 13 4 10 -8 25 -22 31 -32 7 -9
21 -15 30 -13 10 1 27 -3 38 -9 31 -19 57 -27 50 -16 -8 13 1 13 28 -1 12 -7
19 -8 15 -4 -4 4 0 14 10 21 24 19 40 17 16 -2 -19 -15 -19 -16 1 -9 65 22 81
29 86 38 4 6 9 5 13 -1 3 -5 -1 -15 -9 -22 -14 -11 -14 -15 1 -31 10 -11 21
-19 27 -19 5 0 -1 9 -14 21 -24 20 -24 20 -2 14 20 -6 22 -3 18 31 -1 20 -9
40 -15 44 -9 5 -9 9 -1 11 8 3 8 13 -1 37 -7 18 -18 30 -24 28 -7 -3 -10 2 -7
12 5 20 -53 86 -67 77 -6 -4 -9 -2 -8 4 4 15 -63 71 -85 71 -10 0 -16 4 -13 8
5 9 -36 28 -77 35 -15 2 -30 0 -34 -6z m32 -15 c-3 -3 -11 0 -18 7 -9 10 -8
11 6 5 10 -3 15 -9 12 -12z m32 -18 c-3 -3 -12 -4 -19 -1 -8 3 -5 6 6 6 11 1
17 -2 13 -5z m-235 -21 c18 -16 18 -16 12 0 -3 10 -1 17 5 17 6 0 10 -3 9 -7
-2 -5 3 -22 10 -39 9 -21 20 -31 33 -30 10 1 19 4 19 9 0 12 34 44 43 40 4 -2
3 -11 -2 -20 -10 -18 -3 -53 10 -53 5 0 2 -11 -6 -24 -17 -26 -6 -44 18 -30 8
6 8 3 -1 -9 -13 -15 -16 -15 -37 1 -17 12 -19 18 -9 20 17 4 18 14 2 31 -11
11 -10 13 5 8 15 -6 16 -4 7 13 -6 11 -13 20 -16 20 -3 0 -2 -5 2 -12 4 -6 3
-8 -4 -4 -6 3 -13 2 -16 -3 -4 -5 -2 -12 3 -16 6 -3 8 -12 4 -21 -3 -8 -8 -12
-12 -9 -6 7 -7 12 -10 43 -1 15 -3 15 -11 2 -7 -11 -10 -11 -10 -2 0 7 -4 11
-9 8 -5 -3 -8 2 -7 12 0 9 -5 16 -11 15 -7 -2 -13 2 -13 8 0 5 -5 7 -11 3 -8
-4 -7 -9 2 -16 11 -8 11 -9 -1 -5 -11 3 -16 -2 -18 -16 0 -12 2 -17 6 -12 4 6
15 16 24 23 15 12 17 11 15 -7 -1 -13 -6 -19 -14 -17 -7 3 -10 -1 -7 -9 8 -20
-23 -12 -42 11 -8 10 -12 13 -8 5 5 -10 3 -12 -5 -6 -10 6 -11 3 -2 -14 13
-23 7 -41 -12 -40 -8 0 -8 2 1 6 10 4 9 9 -5 20 -10 8 -11 11 -3 7 12 -6 13
-4 3 6 -11 12 -18 10 -42 -8 -18 -13 -32 -18 -36 -12 -3 6 -1 10 5 10 6 0 8 5
5 10 -4 6 -3 10 2 9 4 -1 17 -1 28 0 15 1 17 3 7 10 -18 11 2 19 38 16 16 -1
31 7 43 22 21 26 14 51 -9 32 -12 -10 -13 -9 -8 5 8 20 13 20 36 -1z m319 -16
c-8 -8 -14 -7 -23 2 -11 10 -9 11 6 5 15 -6 17 -4 11 6 -6 9 -4 11 4 5 9 -5
10 -10 2 -18z m-81 9 c0 -2 -11 -6 -25 -8 -13 -3 -22 -1 -19 3 5 9 44 13 44 5z
m37 -2 c-3 -3 -12 -4 -19 -1 -8 3 -5 6 6 6 11 1 17 -2 13 -5z m-22 -24 c3 -6
-1 -7 -9 -4 -18 7 -21 14 -7 14 6 0 13 -4 16 -10z m29 -5 c-4 -8 -8 -15 -10
-15 -2 0 -4 7 -4 15 0 8 4 15 10 15 5 0 7 -7 4 -15z m-101 -10 c-3 -9 -8 -14
-10 -11 -3 3 -2 9 2 15 9 16 15 13 8 -4z m17 -15 c-6 -11 -13 -20 -16 -20 -2
0 0 9 6 20 6 11 13 20 16 20 2 0 0 -9 -6 -20z m21 -3 c-10 -9 -11 -8 -5 6 3
10 9 15 12 12 3 -3 0 -11 -7 -18z m89 19 c0 -3 -4 -8 -10 -11 -5 -3 -10 -1
-10 4 0 6 5 11 10 11 6 0 10 -2 10 -4z m40 -6 c0 -5 -7 -7 -15 -4 -8 4 -15 8
-15 10 0 2 7 4 15 4 8 0 15 -4 15 -10z m-100 -15 c0 -8 -4 -15 -10 -15 -5 0
-7 7 -4 15 4 8 8 15 10 15 2 0 4 -7 4 -15z m91 -12 c13 -15 12 -15 -8 -4 -24
12 -29 21 -14 21 5 0 15 -7 22 -17z m39 2 c7 -9 8 -15 2 -15 -5 0 -12 7 -16
15 -3 8 -4 15 -2 15 2 0 9 -7 16 -15z m-72 -20 c-3 -3 -9 2 -12 12 -6 14 -5
15 5 6 7 -7 10 -15 7 -18z m116 9 c3 -8 2 -12 -4 -9 -6 3 -10 10 -10 16 0 14
7 11 14 -7z m-364 -4 c10 -6 11 -10 3 -10 -7 0 -13 -4 -13 -10 0 -5 5 -9 12
-7 6 1 17 -9 25 -23 7 -14 13 -19 13 -11 0 11 3 11 16 0 25 -21 45 -19 79 7
18 13 36 24 41 24 5 0 2 -5 -6 -10 -8 -5 -15 -15 -15 -22 0 -7 -8 -12 -18 -12
-9 1 -14 -3 -10 -9 3 -6 1 -7 -6 -3 -6 4 -4 -8 6 -28 9 -21 20 -31 23 -25 5 7
9 5 13 -5 4 -9 2 -16 -4 -16 -6 0 -7 -6 -4 -12 4 -7 -1 -4 -9 6 -9 11 -16 24
-16 29 0 4 -4 6 -9 2 -6 -3 -15 4 -21 15 -6 11 -16 17 -22 14 -7 -4 -8 -3 -4
4 10 16 -7 15 -23 0 -8 -7 -11 -8 -8 -3 9 17 -37 67 -56 59 -9 -3 -14 -11 -11
-16 4 -6 -3 -5 -15 1 -11 7 -21 9 -21 5 0 -14 -28 18 -33 39 -6 21 -6 21 8 3
11 -15 15 -16 16 -5 0 11 2 11 6 1 4 -10 9 -8 20 7 16 24 22 25 43 11z m210 0
c0 -5 -8 -10 -17 -10 -15 0 -16 2 -3 10 19 12 20 12 20 0z m40 -44 c0 -6 -7
-1 -15 10 -8 10 -15 23 -15 28 0 6 7 1 15 -10 8 -10 15 -23 15 -28z m60 24 c0
-5 -4 -10 -10 -10 -5 0 -10 5 -10 10 0 6 5 10 10 10 6 0 10 -4 10 -10z m40 6
c0 -2 -7 -7 -16 -10 -8 -3 -12 -2 -9 4 6 10 25 14 25 6z m36 -24 c-3 -6 -15
-8 -25 -5 -16 4 -19 1 -15 -19 4 -20 3 -21 -5 -3 -11 26 -4 38 20 32 11 -3 19
0 19 6 0 6 3 8 6 4 3 -3 3 -10 0 -15z m-154 -15 c6 -11 5 -17 -2 -17 -5 0 -10
7 -10 16 0 8 -4 13 -9 9 -5 -3 -12 -1 -15 4 -4 5 1 8 10 7 9 -1 20 -10 26 -19z
m55 -6 c0 -11 -5 -18 -9 -15 -4 3 -5 11 -1 19 7 21 12 19 10 -4z m-277 5 c0
-3 -4 -8 -10 -11 -5 -3 -10 -1 -10 4 0 6 5 11 10 11 6 0 10 -2 10 -4z m180 -5
c0 -5 9 -12 19 -16 13 -4 18 -12 14 -22 -5 -13 -3 -13 15 -2 11 7 18 17 15 23
-4 5 -1 6 7 1 10 -6 7 -12 -9 -24 -12 -9 -19 -20 -14 -24 17 -18 10 -35 -12
-31 -13 2 -27 -1 -31 -7 -4 -7 -3 -9 2 -6 6 3 16 2 23 -2 9 -6 10 -11 2 -15
-6 -4 -11 -3 -11 3 0 5 -9 8 -21 6 -13 -3 -19 0 -16 8 6 16 -12 49 -22 42 -18
-10 -21 28 -4 40 21 16 44 9 36 -11 -4 -11 -9 -12 -18 -4 -10 8 -15 8 -21 -1
-4 -8 -3 -9 4 -5 6 4 18 -5 26 -21 8 -15 15 -22 16 -15 0 15 27 16 32 0 3 -7
7 -8 10 -3 3 6 -4 19 -15 30 -11 11 -17 15 -14 9 4 -7 0 -14 -8 -18 -20 -7
-19 8 1 28 8 9 11 16 7 16 -5 0 -18 7 -29 15 -17 13 -17 14 -1 15 9 0 17 -4
17 -9z m135 -12 c11 -16 1 -19 -13 -3 -7 8 -8 14 -3 14 5 0 13 -5 16 -11z m85
-9 c0 -5 -4 -10 -10 -10 -5 0 -10 5 -10 10 0 6 5 10 10 10 6 0 10 -4 10 -10z
m-26 -15 c3 -8 1 -15 -4 -15 -6 0 -10 7 -10 15 0 8 2 15 4 15 2 0 6 -7 10 -15z
m-101 -10 c-3 -9 -8 -14 -10 -11 -3 3 -2 9 2 15 9 16 15 13 8 -4z m72 5 c-3
-5 -12 -10 -18 -10 -7 0 -6 4 3 10 19 12 23 12 15 0z m-20 -29 c-6 -5 -25 10
-25 20 0 5 6 4 14 -3 8 -7 12 -15 11 -17z m29 -6 c-10 -8 -23 -15 -28 -15 -6
0 -1 7 10 15 10 8 23 15 28 15 6 0 1 -7 -10 -15z m62 -11 c18 -15 18 -15 -3
-5 -12 6 -30 8 -40 5 -15 -5 -15 -4 -3 5 20 14 23 14 46 -5z m-139 -10 c-3 -3
-12 -4 -19 -1 -8 3 -5 6 6 6 11 1 17 -2 13 -5z m38 -4 c3 -6 -1 -7 -9 -4 -18
7 -21 14 -7 14 6 0 13 -4 16 -10z m45 -10 c0 -5 -2 -10 -4 -10 -3 0 -8 5 -11
10 -3 6 -1 10 4 10 6 0 11 -4 11 -10z m-100 -10 c0 -5 -2 -10 -4 -10 -3 0 -8
5 -11 10 -3 6 -1 10 4 10 6 0 11 -4 11 -10z m40 6 c0 -2 -7 -7 -16 -10 -8 -3
-12 -2 -9 4 6 10 25 14 25 6z"/>
<path d="M5880 5181 c-13 -26 -13 -34 2 -29 6 2 12 14 13 26 2 27 -1 28 -15 3z"/>
<path d="M6000 5116 c0 -2 8 -10 18 -17 15 -13 16 -12 3 4 -13 16 -21 21 -21
13z"/>
<path d="M1740 5159 c0 -5 -4 -8 -9 -4 -6 3 -8 -3 -6 -13 2 -10 -5 -24 -16
-30 -22 -14 -25 -3 -6 18 6 8 2 6 -11 -5 -12 -10 -20 -25 -18 -32 3 -7 1 -15
-4 -18 -6 -4 -10 -1 -10 4 0 14 -27 14 -35 1 -4 -6 1 -7 12 -3 16 6 16 5 4
-10 -7 -9 -17 -14 -22 -11 -5 3 -6 -3 -2 -13 6 -16 5 -17 -12 -3 -11 9 -16 10
-11 3 4 -8 2 -13 -5 -13 -7 0 -4 -7 7 -15 22 -17 12 -20 -18 -4 -13 7 -18 7
-14 1 3 -6 1 -14 -5 -17 -5 -4 -8 -13 -5 -21 3 -7 1 -16 -4 -19 -4 -3 -10 0
-12 7 -3 8 -6 6 -10 -4 -4 -9 -2 -15 5 -14 24 3 36 17 31 34 -3 9 1 7 8 -6
l14 -23 29 23 c21 16 27 18 23 6 -5 -13 0 -15 28 -12 19 2 33 0 30 -4 -3 -5 4
-8 14 -9 11 -1 22 2 25 8 4 5 11 9 18 9 8 0 8 -3 0 -11 -13 -13 -6 -42 8 -33
5 3 9 -1 9 -8 0 -9 3 -9 10 2 7 11 10 11 10 2 0 -7 4 -11 9 -8 5 3 11 -4 15
-16 4 -17 8 -20 17 -11 14 14 -6 54 -24 47 -8 -3 -14 2 -14 11 0 8 3 15 6 15
12 -1 56 -29 46 -30 -5 0 -1 -7 9 -15 14 -11 16 -15 5 -15 -10 -1 -9 -3 4 -11
9 -6 15 -15 11 -20 -3 -5 0 -8 8 -7 7 2 12 -3 10 -10 -1 -8 2 -11 7 -8 5 4 13
1 16 -5 4 -6 18 -8 31 -5 19 5 22 3 17 -11 -7 -17 -6 -17 10 -1 10 10 17 20
17 24 -1 4 4 11 12 16 9 7 7 8 -7 4 -16 -5 -21 -1 -22 16 -1 12 6 28 15 35 9
8 11 11 3 7 -9 -5 -12 -3 -7 4 4 6 2 22 -4 34 -10 21 -10 21 3 6 8 -10 17 -15
20 -12 6 7 8 -6 7 -71 0 -59 -2 -65 -19 -65 -10 0 -7 -5 9 -14 15 -7 30 -9 37
-4 7 5 13 4 15 -3 3 -8 11 -10 24 -4 10 4 28 9 39 11 11 2 28 5 39 7 10 2 25
12 32 22 8 10 14 15 14 11 0 -5 7 -3 15 4 8 7 15 23 15 36 0 19 -6 24 -27 25
-24 2 -25 2 -6 6 l23 4 -20 39 c-11 21 -28 44 -37 49 -10 6 -14 11 -9 11 12 0
-65 70 -79 71 -5 1 -13 1 -17 0 -5 0 -7 5 -5 12 1 6 -6 11 -16 11 -10 -1 -16
1 -13 4 9 8 -46 42 -56 35 -5 -2 -1 -11 8 -17 13 -10 14 -15 4 -21 -8 -5 -11
-4 -7 2 4 6 0 14 -8 17 -8 3 -14 11 -13 18 4 19 -38 21 -66 3 -16 -11 -23 -22
-19 -32 4 -11 2 -14 -5 -9 -8 5 -10 1 -5 -10 4 -10 2 -15 -3 -12 -5 4 -17 0
-27 -7 -18 -13 -18 -14 2 -34 l22 -22 -36 4 c-25 3 -39 -1 -46 -12 -9 -13 -9
-13 -4 4 4 11 8 26 8 33 0 14 17 17 17 2 0 -5 5 -10 11 -10 8 0 7 5 -1 15 -7
9 -19 14 -26 11 -7 -3 -16 -1 -19 4 -4 6 -2 10 4 10 5 0 9 9 8 19 -1 15 -4 17
-14 9 -7 -5 -10 -14 -7 -19 3 -5 0 -9 -5 -9 -14 0 -14 27 -1 35 6 4 7 11 4 17
-5 8 -1 9 11 4 15 -5 16 -4 5 9 -15 18 -20 19 -20 4z m190 -30 c0 -5 -4 -9
-10 -9 -5 0 -9 4 -7 9 1 5 -2 8 -8 8 -13 -2 -16 -27 -4 -27 6 0 4 -6 -3 -14
-7 -8 -16 -12 -19 -10 -12 7 -20 -29 -9 -40 8 -8 9 -6 5 7 -4 9 -3 17 2 17 15
0 11 -33 -5 -50 -9 -8 -17 -14 -19 -12 -2 2 -7 2 -11 -1 -4 -2 -1 -2 6 0 8 1
12 -3 9 -9 -2 -7 -10 -12 -16 -10 -7 1 -5 -8 5 -23 13 -20 20 -23 34 -15 26
14 30 13 23 -5 -3 -9 -8 -14 -11 -11 -2 3 -14 1 -25 -5 -14 -8 -18 -8 -13 0 4
6 0 14 -8 17 -9 3 -13 10 -10 15 3 5 -9 7 -26 5 -30 -3 -55 -16 -31 -16 7 0
10 -4 6 -10 -3 -5 -12 -7 -21 -3 -10 4 -11 9 -4 17 6 9 6 16 -1 23 -8 8 -5 15
10 25 12 8 19 17 16 19 -2 3 4 5 15 5 10 0 16 -4 14 -8 -7 -11 4 -10 26 2 12
6 16 17 13 31 -5 16 -8 18 -15 7 -7 -9 -8 -8 -6 7 2 11 9 20 15 20 7 0 20 10
28 23 12 16 13 22 4 22 -7 0 -4 6 7 14 19 14 44 6 44 -15z m71 -22 c-10 -9
-11 -8 -5 6 3 10 9 15 12 12 3 -3 0 -11 -7 -18z m-284 -4 c-4 -3 7 -15 25 -26
17 -10 27 -22 21 -25 -5 -4 -9 -17 -8 -29 1 -11 -6 -31 -16 -44 l-17 -22 -27
21 c-15 12 -26 22 -24 23 32 7 62 8 54 2 -13 -10 -17 -33 -6 -33 13 0 20 35 9
54 -7 12 -5 18 6 22 9 3 16 11 16 17 0 7 -4 7 -12 -1 -17 -17 -33 -15 -18 3
10 12 8 13 -10 10 -12 -2 -28 -12 -35 -21 -7 -11 -17 -14 -25 -9 -9 5 -11 4
-6 -3 4 -7 1 -12 -6 -12 -9 0 -9 -3 2 -10 8 -5 11 -10 5 -10 -5 0 1 -9 15 -20
14 -11 18 -19 10 -18 -8 2 -20 9 -25 16 -9 11 -13 11 -24 -2 -15 -17 -46 -23
-36 -6 3 6 1 10 -6 10 -7 0 -9 3 -6 6 4 4 13 2 21 -5 18 -15 30 11 13 29 -9 9
-9 11 -1 7 7 -4 19 5 28 18 9 14 21 23 25 20 12 -7 33 20 23 30 -4 5 -2 5 5 1
6 -3 14 -2 18 4 3 5 9 10 12 10 4 0 3 -3 0 -7z m213 -8 c-7 -8 -17 -15 -23
-15 -6 0 -2 7 9 15 25 19 30 19 14 0z m60 -10 c0 -2 -5 -7 -12 -11 -7 -4 -8
-3 -4 4 9 15 1 15 -27 1 -20 -9 -20 -9 -5 4 10 8 14 18 10 22 -4 4 3 2 16 -4
12 -6 22 -14 22 -16z m64 -21 c3 -8 2 -12 -4 -9 -6 3 -10 10 -10 16 0 14 7 11
14 -7z m52 -12 c-4 -3 -14 2 -24 12 -16 18 -16 18 6 6 13 -6 21 -14 18 -18z
m-399 12 c-3 -4 -2 -16 4 -27 8 -14 8 -18 0 -13 -6 4 -11 1 -12 -6 0 -10 -2
-10 -6 0 -6 15 -24 16 -20 1 1 -6 -4 -14 -11 -16 -20 -8 -9 19 18 44 22 20 44
33 27 17z m218 -4 c3 -5 1 -10 -4 -10 -6 0 -11 5 -11 10 0 6 2 10 4 10 3 0 8
-4 11 -10z m75 0 c-8 -5 -19 -10 -25 -10 -5 0 -3 5 5 10 8 5 20 10 25 10 6 0
3 -5 -5 -10z m-20 -27 c0 -2 -8 -3 -17 -1 -10 2 -24 -3 -31 -12 -11 -13 -12
-12 -3 7 8 15 17 20 31 16 11 -3 20 -7 20 -10z m21 -6 c-10 -9 -11 -8 -5 6 3
10 9 15 12 12 3 -3 0 -11 -7 -18z m99 7 c0 -2 -7 -4 -15 -4 -8 0 -15 4 -15 10
0 5 7 7 15 4 8 -4 15 -8 15 -10z m-192 -17 c-2 -13 2 -29 9 -36 8 -7 11 -16 7
-20 -4 -3 -9 0 -11 6 -3 9 -10 9 -28 -3 -31 -20 -40 3 -13 37 13 15 18 18 14
7 -3 -10 -1 -20 5 -23 5 -4 9 -3 8 2 -3 18 1 53 7 53 4 0 4 -10 2 -23z m156 8
c3 -8 1 -15 -4 -15 -6 0 -10 7 -10 15 0 8 2 15 4 15 2 0 6 -7 10 -15z m76 0
c0 -2 -6 -5 -13 -8 -8 -3 -14 1 -14 8 0 7 6 11 14 8 7 -3 13 -6 13 -8z m-105
-5 c-3 -5 -12 -10 -18 -10 -7 0 -6 4 3 10 19 12 23 12 15 0z m-79 -22 c4 -7 3
-8 -4 -4 -13 8 -15 -4 -6 -28 3 -9 10 -14 14 -11 4 3 10 -2 13 -9 4 -10 -1
-14 -14 -13 -10 1 -19 4 -20 7 0 3 -2 14 -5 25 -7 35 7 57 22 33z m52 3 c11
-7 10 -9 -3 -14 -11 -5 -14 -3 -9 5 5 8 2 9 -10 5 -10 -4 -15 -3 -11 3 7 12
16 12 33 1z m40 -15 c-7 -8 -15 -12 -17 -11 -5 6 10 25 20 25 5 0 4 -6 -3 -14z
m42 5 c0 -6 -4 -12 -8 -15 -5 -3 -9 1 -9 9 0 8 4 15 9 15 4 0 8 -4 8 -9z m60
-12 c12 -8 10 -9 -7 -4 -18 5 -22 3 -17 -9 3 -9 2 -16 -4 -16 -8 0 -9 16 -3
38 2 5 17 1 31 -9z m40 -34 c0 -8 -4 -15 -10 -15 -5 0 -7 7 -4 15 4 8 8 15 10
15 2 0 4 -7 4 -15z m-260 -10 c0 -8 -4 -15 -10 -15 -5 0 -10 7 -10 15 0 8 5
15 10 15 6 0 10 -7 10 -15z m160 5 c-8 -5 -19 -10 -25 -10 -5 0 -3 5 5 10 8 5
20 10 25 10 6 0 3 -5 -5 -10z m-151 -21 c21 12 32 5 24 -15 -3 -8 -10 -11 -16
-7 -16 10 -47 11 -52 2 -3 -4 5 -6 18 -5 13 2 33 -3 43 -11 17 -13 16 -14 -19
-10 -31 4 -35 2 -25 -10 9 -11 13 -11 19 -1 7 11 9 11 9 0 0 -7 4 -10 10 -7 5
3 17 2 25 -2 11 -7 6 -9 -19 -10 -47 -1 -87 42 -77 82 0 3 10 1 21 -5 14 -7
26 -7 39 -1z m187 -27 c17 -13 20 -22 13 -37 l-9 -20 3 20 c2 12 -7 27 -23 37
-14 10 -20 18 -15 18 6 0 20 -8 31 -18z m63 3 c3 -3 -7 -4 -23 -1 -16 3 -31 8
-35 11 -3 3 7 4 23 1 16 -3 31 -8 35 -11z m-93 -11 c18 -15 18 -15 -3 -5 -28
14 -36 14 -27 -1 4 -7 3 -8 -5 -4 -11 7 -6 26 8 26 4 0 16 -7 27 -16z m-57
-36 c-5 -10 -12 -18 -15 -18 -2 0 -1 8 4 18 5 9 7 24 5 32 -4 13 -3 13 6 1 6
-10 6 -21 0 -33z m171 28 c0 -3 -4 -8 -10 -11 -5 -3 -10 -1 -10 4 0 6 5 11 10
11 6 0 10 -2 10 -4z m-130 -26 c-12 -23 -16 -24 -26 -8 -4 6 -3 8 3 5 6 -4 13
0 17 8 3 8 8 15 11 15 3 0 1 -9 -5 -20z m92 3 c-6 -2 -10 -9 -6 -14 3 -5 0 -9
-5 -9 -12 0 -14 13 -4 23 3 4 11 7 17 6 6 0 5 -3 -2 -6z m-49 -26 c4 3 7 4 7
0 0 -18 -21 -14 -30 5 -10 21 -10 21 3 6 8 -10 17 -15 20 -11z"/>
<path d="M1798 5002 c11 -7 10 -10 -3 -16 -24 -9 -27 -8 -19 6 5 7 3 8 -5 4
-16 -11 -5 -21 24 -21 25 -1 29 26 4 33 -11 3 -12 2 -1 -6z"/>
<path d="M1866 4982 c-3 -5 1 -9 9 -9 8 0 12 4 9 9 -3 4 -7 8 -9 8 -2 0 -6 -4
-9 -8z"/>
<path d="M5627 5024 c-3 -4 -2 -15 4 -25 7 -14 6 -19 -3 -19 -10 0 -10 -2 1
-9 9 -6 10 -11 2 -15 -16 -10 -14 -20 14 -52 19 -23 25 -25 25 -11 0 9 5 17
10 17 6 0 10 -6 8 -14 -2 -8 2 -15 7 -15 6 0 8 8 7 17 -3 13 -1 14 12 3 9 -7
14 -17 11 -21 -3 -5 3 -7 12 -5 10 1 24 -3 32 -9 11 -8 13 -8 7 2 -10 16 5 15
30 -3 12 -8 33 -16 48 -19 15 -3 34 -10 41 -16 9 -8 14 -7 18 2 2 8 17 14 33
16 26 2 27 1 9 -12 -11 -8 -24 -12 -29 -9 -5 4 -6 1 -2 -6 4 -6 11 -9 16 -6 5
3 11 1 15 -4 8 -14 47 -4 58 14 4 8 13 12 19 9 6 -4 4 3 -5 17 -9 13 -17 26
-17 29 0 11 75 8 82 -4 12 -18 9 -26 -7 -20 -8 4 -12 11 -8 17 3 6 1 7 -5 3
-21 -13 -2 -32 33 -32 18 0 31 4 29 8 -3 5 -10 6 -15 3 -16 -11 -9 7 9 21 22
17 38 18 24 1 -6 -7 -8 -17 -4 -22 9 -13 35 -18 27 -5 -14 23 -14 49 1 43 7
-3 12 -8 10 -12 -3 -4 -1 -13 5 -21 7 -13 9 -13 9 0 0 13 1 13 10 0 9 -13 10
-13 10 0 0 13 1 13 10 0 5 -8 10 -10 10 -4 0 5 10 11 23 11 40 3 62 10 63 21
3 25 5 27 14 12 5 -8 10 -10 11 -5 6 43 3 52 -25 74 -17 14 -28 21 -24 16 5
-4 -1 -15 -12 -22 -11 -8 -17 -19 -14 -25 5 -7 1 -9 -9 -5 -10 4 -14 2 -11 -7
3 -7 -2 -13 -11 -13 -8 0 -15 5 -15 10 0 5 -7 4 -15 -3 -8 -7 -12 -16 -9 -21
3 -5 0 -9 -5 -9 -6 0 -11 4 -11 8 0 12 -39 12 -46 1 -4 -6 -11 -6 -19 1 -9 7
-15 8 -19 1 -4 -6 -16 -7 -29 -3 -28 9 -48 9 -66 -2 -7 -5 -16 -5 -20 0 -7 11
-51 11 -68 1 -6 -4 -13 -4 -16 0 -2 5 -2 2 -1 -4 5 -18 -15 -16 -22 1 -5 12
-8 12 -24 -2 -11 -8 -17 -19 -14 -24 3 -4 -2 -8 -11 -8 -9 0 -14 4 -11 9 10
15 -4 39 -32 57 -15 9 -21 11 -14 3 14 -16 16 -39 2 -39 -5 0 -9 3 -8 8 3 10
-25 52 -36 52 -4 0 -3 -7 4 -15 8 -10 9 -15 2 -15 -6 0 -18 12 -26 28 -8 15
-15 21 -16 14 0 -7 -5 -10 -10 -7 -6 4 -8 11 -5 16 4 5 1 9 -5 9 -6 0 -16 11
-22 25 -11 25 -19 30 -31 19z m47 -59 c14 -22 26 -33 26 -25 0 9 6 6 16 -8 8
-12 23 -21 31 -20 9 2 17 -4 18 -13 4 -21 -17 -19 -39 4 -10 9 -22 15 -27 12
-5 -4 -9 -2 -9 2 0 5 -6 17 -13 27 -12 16 -15 16 -26 3 -9 -12 -9 -17 0 -23 7
-4 9 -3 5 4 -3 6 -2 13 3 16 5 3 11 -1 15 -9 8 -21 -14 -30 -32 -12 -11 12
-12 19 -4 29 13 16 13 27 0 53 -15 29 4 7 36 -40z m676 -47 c0 -6 -8 -4 -17 3
-10 8 -14 9 -10 2 4 -6 3 -14 -3 -18 -6 -4 -7 -11 -4 -17 4 -7 2 -8 -5 -4 -6
4 -18 2 -26 -4 -18 -15 -19 -7 -4 23 10 21 10 21 -5 3 -9 -11 -16 -25 -16 -30
0 -6 -5 -3 -11 7 -6 10 -8 21 -5 24 3 4 6 0 6 -8 0 -7 8 -2 17 11 10 14 18 29
18 33 0 4 7 12 15 17 11 7 20 4 33 -11 9 -12 17 -26 17 -31z m-537 -27 c3 -13
1 -18 -9 -14 -7 2 -10 11 -7 19 7 19 10 18 16 -5z m421 3 c8 -21 8 -21 -8 -21
-8 0 -14 9 -13 19 2 22 13 24 21 2z m-231 -25 c16 -20 16 -23 2 -39 -17 -18
-38 -21 -52 -5 -4 4 -2 5 5 1 11 -7 17 7 12 29 -1 6 -3 15 -3 22 0 7 -4 10 -9
7 -5 -3 -5 -10 -2 -16 4 -7 2 -8 -4 -4 -7 4 -12 1 -13 -6 0 -11 -2 -11 -6 0
-4 10 -8 9 -17 -4 -10 -13 -17 -14 -33 -6 -11 6 -22 9 -25 7 -3 -3 -5 1 -5 9
0 8 6 12 15 8 11 -4 13 -1 8 9 -4 8 2 3 13 -10 14 -15 21 -18 21 -9 0 40 62
45 93 7z m123 19 c4 -7 3 -8 -4 -4 -7 4 -12 2 -12 -5 0 -7 -3 -10 -6 -6 -6 5
3 27 11 27 2 0 7 -5 11 -12z"/>
<path d="M6300 4940 c-8 -14 -8 -20 0 -20 6 0 8 -5 4 -12 -4 -6 -3 -8 4 -5 5
4 8 17 4 29 -4 16 -2 19 8 13 9 -5 11 -4 6 3 -10 16 -14 15 -26 -8z"/>
<path d="M5983 4865 c0 -8 4 -12 9 -9 5 3 6 10 3 15 -9 13 -12 11 -12 -6z"/>
<path d="M5989 4833 c-13 -16 -12 -17 4 -4 16 13 21 21 13 21 -2 0 -10 -8 -17
-17z"/>
<path d="M2000 4901 c0 -7 -5 -9 -12 -5 -7 5 -8 3 -3 -5 5 -9 10 -10 18 -2 6
6 8 14 4 18 -4 3 -7 1 -7 -6z"/>
<path d="M5830 4899 c0 -5 5 -7 10 -4 6 3 10 8 10 11 0 2 -4 4 -10 4 -5 0 -10
-5 -10 -11z"/>
<path d="M5217 4876 c-10 -25 -65 -47 -126 -50 -92 -4 -190 -60 -249 -144 -13
-17 -21 -36 -17 -42 3 -5 38 -9 78 -8 133 3 345 -65 443 -143 58 -46 134 -119
207 -199 67 -72 68 -75 67 -124 -2 -74 -1 -86 9 -86 5 0 10 42 11 93 1 50 3
119 4 152 2 33 -1 68 -6 78 -5 10 -5 17 1 17 18 0 -32 116 -59 140 -3 3 -19
23 -36 45 -56 76 -138 143 -238 195 -16 8 -42 32 -57 53 -19 26 -28 33 -32 23z"/>
<path d="M6042 4850 c7 -10 14 -18 15 -16 6 6 -9 36 -18 36 -5 0 -4 -9 3 -20z"/>
<path d="M1505 4832 c1 -15 4 -31 6 -37 2 -5 -3 -21 -10 -33 -7 -13 -10 -26
-7 -30 3 -3 6 0 6 6 0 7 8 12 18 12 14 0 15 -2 2 -10 -10 -6 -11 -10 -2 -10
22 0 27 2 25 11 -2 5 6 9 17 9 11 0 20 -5 20 -11 0 -5 -6 -7 -12 -3 -7 4 -10
4 -6 -1 4 -4 0 -14 -10 -21 -12 -9 -19 -9 -24 -1 -4 6 -10 8 -14 4 -9 -9 -2
-17 22 -21 11 -2 24 -5 29 -6 21 -5 36 0 30 10 -10 17 7 11 20 -7 7 -9 18 -18
26 -19 8 -2 24 -5 37 -8 15 -3 25 0 29 9 3 8 9 12 15 9 5 -3 4 -12 -4 -22 -10
-12 -10 -14 0 -8 6 4 12 2 12 -3 0 -6 5 -11 11 -11 8 0 8 5 -1 15 -7 8 -8 15
-2 15 15 0 33 -26 24 -35 -4 -5 -2 -5 4 -2 6 4 10 18 8 33 -2 19 1 24 13 20 8
-3 18 -6 21 -6 4 0 0 -4 -8 -10 -8 -5 -11 -12 -7 -17 9 -9 28 17 21 29 -9 14
10 9 44 -12 17 -11 32 -25 32 -31 0 -5 -13 -1 -29 10 -32 23 -45 12 -30 -24 4
-11 8 -14 8 -7 1 6 6 12 12 12 5 0 7 -4 4 -10 -3 -5 -1 -10 4 -10 6 0 11 5 11
10 0 6 5 9 12 8 6 -2 17 7 23 20 18 34 29 40 22 12 -6 -24 -5 -24 8 -6 13 18
20 15 16 -6 0 -5 4 -8 10 -8 6 0 9 3 7 8 -31 63 -30 63 -45 44 -12 -13 -14
-14 -10 -1 3 10 -2 15 -18 15 -13 0 -22 -3 -19 -7 7 -12 -22 -18 -37 -7 -11 8
-10 9 4 4 9 -3 17 -1 17 4 0 5 -11 9 -25 8 -14 -1 -25 -6 -25 -10 0 -4 -5 -8
-11 -8 -5 0 -8 4 -5 8 2 4 -4 8 -14 8 -10 0 -16 -4 -14 -8 3 -4 0 -8 -5 -8 -6
0 -11 4 -11 9 0 6 -9 8 -20 6 -11 -2 -22 0 -25 5 -3 5 -13 6 -22 3 -10 -4 -14
-2 -10 4 3 5 0 10 -8 10 -8 0 -11 -5 -8 -10 3 -5 0 -8 -8 -5 -8 3 -14 9 -14
14 0 19 -16 33 -35 29 -11 -2 -20 0 -20 5 0 5 -7 7 -15 3 -9 -3 -15 -2 -14 3
4 24 -2 36 -17 30 -12 -5 -15 -2 -10 9 4 10 2 14 -5 9 -7 -4 -9 0 -5 14 4 11
3 23 -2 26 -5 3 -8 -7 -7 -22z m39 -67 c-3 -7 -12 -11 -20 -8 -11 4 -12 9 -3
19 14 17 30 9 23 -11z m86 -24 c3 -1 -1 -5 -8 -10 -10 -6 -7 -12 12 -25 19
-12 26 -13 26 -4 0 9 3 8 10 -2 15 -24 12 -32 -10 -20 -11 6 -20 7 -20 3 0 -4
-9 3 -20 17 -20 24 -21 25 -35 6 -18 -23 -20 -4 -3 23 6 10 19 17 27 16 9 -2
18 -4 21 -4z m73 -57 c-4 -12 -8 -13 -14 -3 -9 15 -2 32 11 24 5 -3 6 -13 3
-21z m66 -10 c14 -12 -19 -1 -35 12 -18 14 -18 14 6 3 14 -6 27 -13 29 -15z
m124 9 c-4 -11 -3 -14 5 -9 8 5 10 2 6 -9 -5 -12 -9 -13 -20 -4 -11 9 -11 15
-3 25 15 19 20 18 12 -3z"/>
<path d="M2211 4832 c-10 -18 -9 -22 4 -22 9 0 14 -4 10 -9 -3 -6 -14 -8 -25
-6 -12 2 -18 0 -15 -6 4 -5 11 -6 17 -3 7 5 9 1 5 -9 -3 -9 -2 -19 4 -22 5 -4
6 -11 3 -17 -4 -6 -13 0 -21 15 -18 36 -51 23 -44 -17 1 -5 -5 -6 -14 -2 -11
4 -14 2 -9 -6 5 -8 2 -9 -10 -5 -9 4 -27 1 -39 -6 -12 -8 -34 -13 -49 -12 -15
0 -24 -3 -22 -7 3 -4 -2 -8 -11 -8 -9 0 -14 4 -11 8 2 4 -5 9 -17 9 -15 2 -18
0 -9 -6 8 -5 14 -12 13 -17 0 -5 10 -8 22 -6 20 2 20 2 4 -11 -17 -12 -17 -13
2 -14 14 -1 19 3 16 18 -4 21 2 24 25 9 10 -6 11 -10 3 -10 -7 0 -13 -4 -13
-9 0 -14 46 -6 76 14 26 17 27 17 20 0 -5 -14 -4 -16 7 -7 8 7 16 9 19 6 4 -3
20 2 37 11 33 17 42 29 14 18 -16 -6 -16 -5 -4 10 7 9 17 15 21 12 10 -6 7 15
-4 34 -7 11 -5 13 9 7 14 -5 16 -4 7 7 -8 9 -8 17 -1 24 6 6 6 19 1 33 l-9 24
-12 -22z m-27 -94 c-3 -4 0 -8 7 -8 8 0 8 -4 -1 -15 -7 -8 -9 -15 -4 -15 5 0
1 -5 -8 -11 -12 -7 -24 -6 -37 1 -12 6 -22 6 -25 1 -3 -5 -16 -7 -29 -4 -18 4
-19 3 -7 -6 8 -6 12 -11 8 -11 -3 0 -14 -3 -24 -7 -11 -4 -15 -3 -10 5 3 6 -2
16 -11 22 -17 11 -17 11 1 6 10 -4 24 -1 32 5 7 6 23 12 36 14 13 1 32 6 43
10 19 7 19 7 1 -7 -14 -11 -16 -17 -7 -22 7 -5 15 -5 18 -2 4 3 0 6 -7 6 -9 0
-7 5 6 14 17 13 18 15 2 21 -14 5 -15 10 -5 20 13 13 31 -1 21 -17z"/>
<path d="M2478 4780 c-9 -15 -42 -47 -74 -70 -77 -55 -157 -142 -141 -152 6
-4 21 -5 32 -3 11 3 148 7 304 10 157 3 286 7 289 9 14 15 -84 118 -145 152
-50 28 -95 37 -159 35 -44 -2 -55 2 -71 22 l-19 25 -16 -28z"/>
<path d="M5617 4674 c-16 -16 -5 -48 26 -79 69 -69 281 -103 502 -81 69 7 85
11 143 36 28 12 58 33 67 46 17 27 20 60 5 69 -5 3 -10 2 -10 -2 0 -5 -15 -8
-32 -6 -18 1 -91 5 -163 7 -438 15 -531 16 -538 10z"/>
<path d="M1784 4629 c-5 -8 -3 -9 6 -4 7 4 16 2 22 -6 8 -12 9 -12 6 0 -6 20
-24 25 -34 10z"/>
<path d="M5675 4532 c34 -21 91 -42 113 -42 23 0 8 10 -23 16 -15 3 -45 14
-66 24 -48 25 -64 26 -24 2z"/>
<path d="M6280 4520 c-8 -5 -12 -12 -9 -15 4 -3 12 1 19 10 14 17 11 19 -10 5z"/>
<path d="M6226 4500 c-67 -20 -275 -28 -377 -14 -24 4 -41 3 -38 0 16 -17 273
-27 344 -13 72 14 96 20 101 28 3 5 4 9 2 8 -2 0 -16 -5 -32 -9z"/>
<path d="M6341 4398 c-2 -51 -4 -132 -5 -180 -1 -49 1 -88 6 -88 4 0 8 33 9
73 0 39 2 120 4 180 2 59 0 107 -4 107 -5 0 -9 -42 -10 -92z"/>
<path d="M5718 4423 c-16 -4 -45 -59 -36 -69 3 -3 8 7 12 21 4 16 13 25 25 25
36 0 51 -12 61 -51 6 -23 17 -39 25 -39 19 0 19 1 -1 50 -17 42 -55 70 -86 63z"/>
<path d="M6276 4421 c-4 -6 -2 -11 3 -11 6 0 18 -15 26 -32 l14 -33 -6 30 c-7
37 -28 62 -37 46z"/>
<path d="M6245 4391 c7 -12 -5 -41 -17 -41 -11 0 -38 -25 -38 -35 0 -3 8 -4
18 -1 17 6 18 -3 15 -157 l-4 -163 33 -1 c27 -1 37 5 50 28 10 16 24 29 33 29
11 0 15 10 15 35 0 19 -4 35 -10 35 -5 0 -10 -11 -10 -24 0 -23 -25 -54 -36
-43 -3 3 -6 78 -7 167 -2 160 -2 163 -25 171 -13 5 -21 5 -17 0z"/>
<path d="M5730 4380 c0 -5 5 -10 11 -10 5 0 7 5 4 10 -3 6 -8 10 -11 10 -2 0
-4 -4 -4 -10z"/>
<path d="M5957 4369 c-15 -9 -47 -59 -47 -74 0 -17 27 0 38 24 24 53 101 50
122 -5 10 -24 30 -33 30 -13 0 16 -21 53 -39 66 -19 15 -80 16 -104 2z"/>
<path d="M1580 4320 c18 -12 30 -13 30 -2 0 4 -10 9 -22 9 -18 2 -20 0 -8 -7z"/>
<path d="M1621 4203 c-12 -14 -20 -35 -20 -47 1 -20 2 -20 6 -1 13 55 63 51
88 -6 24 -52 52 -55 30 -4 -15 38 -28 53 -62 72 -19 11 -24 9 -42 -14z"/>
<path d="M1545 4113 c3 -38 7 -103 9 -147 3 -43 9 -83 14 -88 9 -9 9 24 -2
217 -2 33 -4 66 -5 73 -1 6 -5 12 -11 12 -5 0 -7 -28 -5 -67z"/>
<path d="M1675 4110 c1 -30 6 -95 10 -145 5 -49 9 -101 10 -115 0 -14 5 -26
11 -27 10 -3 11 65 1 172 -4 39 -7 84 -7 101 0 16 -6 39 -14 50 -13 17 -14 13
-11 -36z"/>
<path d="M6155 3910 c-13 -5 -14 -9 -5 -9 8 0 24 4 35 9 13 5 14 9 5 9 -8 0
-24 -4 -35 -9z"/>
</g>
</svg>
